<svg xmlns="http://www.w3.org/2000/svg" width="500" height="345" fill="none"><path fill="#3CB371" d="M0 0h500v345H0z"/><path fill="#fff" d="M104.688 167.434c3.168 0 5.634.972 7.398 2.916 1.8 1.908 2.7 4.896 2.7 8.964H95.724l-.054-1.026h13.932c.072-1.764-.072-3.384-.432-4.86-.36-1.512-.936-2.718-1.728-3.618-.756-.9-1.746-1.35-2.97-1.35-1.656 0-3.132.828-4.428 2.484-1.26 1.656-2.016 4.284-2.268 7.884l.162.216c-.072.54-.126 1.134-.162 1.782a35.04 35.04 0 0 0-.054 1.944c0 2.448.396 4.554 1.188 6.318.792 1.764 1.818 3.114 3.078 4.05 1.296.9 2.628 1.35 3.996 1.35a9.67 9.67 0 0 0 3.078-.486c.972-.36 1.872-.936 2.7-1.728.828-.792 1.548-1.854 2.16-3.186l1.08.432c-.396 1.188-1.044 2.34-1.944 3.456-.9 1.116-2.034 2.034-3.402 2.754-1.368.684-2.952 1.026-4.752 1.026-2.592 0-4.824-.594-6.696-1.782-1.836-1.188-3.258-2.826-4.266-4.914-.972-2.124-1.458-4.554-1.458-7.29 0-3.168.504-5.886 1.512-8.154 1.008-2.304 2.43-4.068 4.266-5.292 1.836-1.26 3.978-1.89 6.426-1.89Zm35.848 12.474v3.132h-19.494v-3.132h19.494Zm18.794-12.474c1.152 0 2.268.144 3.348.432 1.08.288 2.052.72 2.916 1.296.828.54 1.458 1.17 1.89 1.89.432.684.648 1.44.648 2.268 0 .972-.27 1.728-.81 2.268-.54.504-1.224.756-2.052.756a3.373 3.373 0 0 1-2.106-.702c-.576-.468-.864-1.134-.864-1.998 0-.828.216-1.494.648-1.998.468-.504 1.008-.828 1.62-.972-.36-.648-1.008-1.188-1.944-1.62a6.65 6.65 0 0 0-2.916-.648c-.9 0-1.8.216-2.7.648-.9.432-1.728 1.152-2.484 2.16-.756.972-1.368 2.322-1.836 4.05-.468 1.692-.702 3.816-.702 6.372 0 3.168.36 5.688 1.08 7.56.72 1.872 1.656 3.222 2.808 4.05a6.868 6.868 0 0 0 3.888 1.188c.936 0 1.89-.18 2.862-.54.972-.36 1.89-.936 2.754-1.728.864-.828 1.602-1.926 2.214-3.294l1.026.378c-.36 1.152-.954 2.322-1.782 3.51-.828 1.152-1.908 2.106-3.24 2.862-1.332.756-2.97 1.134-4.914 1.134-2.232 0-4.248-.576-6.048-1.728-1.8-1.152-3.24-2.79-4.32-4.914-1.044-2.16-1.566-4.716-1.566-7.668s.522-5.544 1.566-7.776c1.08-2.268 2.574-4.032 4.482-5.292 1.908-1.296 4.086-1.944 6.534-1.944Zm25.991 0c2.304 0 4.374.504 6.21 1.512 1.836 1.008 3.294 2.592 4.374 4.752 1.116 2.16 1.674 4.968 1.674 8.424 0 3.456-.558 6.264-1.674 8.424-1.08 2.124-2.538 3.69-4.374 4.698-1.836 1.008-3.906 1.512-6.21 1.512-2.268 0-4.338-.504-6.21-1.512-1.836-1.008-3.312-2.574-4.428-4.698-1.08-2.16-1.62-4.968-1.62-8.424 0-3.456.54-6.264 1.62-8.424 1.116-2.16 2.592-3.744 4.428-4.752 1.872-1.008 3.942-1.512 6.21-1.512Zm0 1.08c-2.052 0-3.744 1.062-5.076 3.186-1.296 2.124-1.944 5.598-1.944 10.422 0 4.824.648 8.298 1.944 10.422 1.332 2.088 3.024 3.132 5.076 3.132 2.052 0 3.726-1.044 5.022-3.132 1.332-2.124 1.998-5.598 1.998-10.422 0-4.824-.666-8.298-1.998-10.422-1.296-2.124-2.97-3.186-5.022-3.186Zm34.174-1.08c1.26 0 2.358.18 3.294.54.936.36 1.71.864 2.322 1.512.684.72 1.152 1.656 1.404 2.808s.378 2.574.378 4.266v14.418c0 1.512.306 2.538.918 3.078.648.54 1.71.81 3.186.81V196c-.612-.036-1.548-.072-2.808-.108a64.397 64.397 0 0 0-3.672-.108c-1.188 0-2.358.036-3.51.108a91.322 91.322 0 0 0-2.538.108v-1.134c1.296 0 2.214-.27 2.754-.81s.81-1.566.81-3.078v-15.606c0-1.116-.072-2.142-.216-3.078-.144-.936-.504-1.692-1.08-2.268-.576-.576-1.512-.864-2.808-.864a6.015 6.015 0 0 0-3.78 1.296c-1.08.864-1.944 2.052-2.592 3.564-.612 1.476-.918 3.132-.918 4.968v11.988c0 1.512.27 2.538.81 3.078s1.458.81 2.754.81V196a90.97 90.97 0 0 0-2.592-.108 53.7 53.7 0 0 0-3.456-.108c-1.188 0-2.412.036-3.672.108-1.26.036-2.196.072-2.808.108v-1.134c1.476 0 2.52-.27 3.132-.81.648-.54.972-1.566.972-3.078v-16.902c0-1.62-.288-2.808-.864-3.564-.576-.792-1.656-1.188-3.24-1.188v-1.134c1.152.108 2.268.162 3.348.162 1.044 0 2.034-.054 2.97-.162a16.926 16.926 0 0 0 2.646-.594v6.372c.936-2.34 2.214-4.014 3.834-5.022s3.294-1.512 5.022-1.512Zm16.254 0c1.26 0 2.358.18 3.294.54.936.36 1.71.864 2.322 1.512.684.72 1.152 1.656 1.404 2.808s.378 2.574.378 4.266v14.418c0 1.512.306 2.538.918 3.078.648.54 1.71.81 3.186.81V196c-.612-.036-1.548-.072-2.808-.108a64.397 64.397 0 0 0-3.672-.108c-1.188 0-2.358.036-3.51.108a91.322 91.322 0 0 0-2.538.108v-1.134c1.296 0 2.214-.27 2.754-.81s.81-1.566.81-3.078v-15.606c0-1.116-.072-2.142-.216-3.078-.144-.936-.504-1.692-1.08-2.268-.576-.576-1.512-.864-2.808-.864a6.015 6.015 0 0 0-3.78 1.296c-1.08.864-1.944 2.034-2.592 3.51-.612 1.476-.918 3.132-.918 4.968l-.162-5.022c.972-2.484 2.286-4.176 3.942-5.076 1.656-.936 3.348-1.404 5.076-1.404Zm31.682 0c1.26 0 2.358.18 3.294.54.936.36 1.71.864 2.322 1.512.684.72 1.152 1.656 1.404 2.808s.378 2.574.378 4.266v14.418c0 1.512.306 2.538.918 3.078.648.54 1.71.81 3.186.81V196c-.612-.036-1.548-.072-2.808-.108a64.397 64.397 0 0 0-3.672-.108c-1.188 0-2.358.036-3.51.108a91.322 91.322 0 0 0-2.538.108v-1.134c1.296 0 2.214-.27 2.754-.81s.81-1.566.81-3.078v-15.606c0-1.116-.072-2.142-.216-3.078-.144-.936-.504-1.692-1.08-2.268-.576-.576-1.512-.864-2.808-.864a6.015 6.015 0 0 0-3.78 1.296c-1.08.864-1.944 2.052-2.592 3.564-.612 1.476-.918 3.132-.918 4.968v11.988c0 1.512.27 2.538.81 3.078s1.458.81 2.754.81V196a90.97 90.97 0 0 0-2.592-.108 53.7 53.7 0 0 0-3.456-.108c-1.188 0-2.412.036-3.672.108-1.26.036-2.196.072-2.808.108v-1.134c1.476 0 2.52-.27 3.132-.81.648-.54.972-1.566.972-3.078v-16.902c0-1.62-.288-2.808-.864-3.564-.576-.792-1.656-1.188-3.24-1.188v-1.134c1.152.108 2.268.162 3.348.162 1.044 0 2.034-.054 2.97-.162a16.926 16.926 0 0 0 2.646-.594v6.372c.936-2.34 2.214-4.014 3.834-5.022s3.294-1.512 5.022-1.512Zm16.254 0c1.26 0 2.358.18 3.294.54.936.36 1.71.864 2.322 1.512.684.72 1.152 1.656 1.404 2.808s.378 2.574.378 4.266v14.418c0 1.512.306 2.538.918 3.078.648.54 1.71.81 3.186.81V196c-.612-.036-1.548-.072-2.808-.108a64.397 64.397 0 0 0-3.672-.108c-1.188 0-2.358.036-3.51.108a91.322 91.322 0 0 0-2.538.108v-1.134c1.296 0 2.214-.27 2.754-.81s.81-1.566.81-3.078v-15.606c0-1.116-.072-2.142-.216-3.078-.144-.936-.504-1.692-1.08-2.268-.576-.576-1.512-.864-2.808-.864a6.015 6.015 0 0 0-3.78 1.296c-1.08.864-1.944 2.034-2.592 3.51-.612 1.476-.918 3.132-.918 4.968l-.162-5.022c.972-2.484 2.286-4.176 3.942-5.076 1.656-.936 3.348-1.404 5.076-1.404Zm26.983 0c3.168 0 5.634.972 7.398 2.916 1.8 1.908 2.7 4.896 2.7 8.964h-19.062l-.054-1.026h13.932c.072-1.764-.072-3.384-.432-4.86-.36-1.512-.936-2.718-1.728-3.618-.756-.9-1.746-1.35-2.97-1.35-1.656 0-3.132.828-4.428 2.484-1.26 1.656-2.016 4.284-2.268 7.884l.162.216c-.072.54-.126 1.134-.162 1.782a35.04 35.04 0 0 0-.054 1.944c0 2.448.396 4.554 1.188 6.318.792 1.764 1.818 3.114 3.078 4.05 1.296.9 2.628 1.35 3.996 1.35a9.67 9.67 0 0 0 3.078-.486c.972-.36 1.872-.936 2.7-1.728.828-.792 1.548-1.854 2.16-3.186l1.08.432c-.396 1.188-1.044 2.34-1.944 3.456-.9 1.116-2.034 2.034-3.402 2.754-1.368.684-2.952 1.026-4.752 1.026-2.592 0-4.824-.594-6.696-1.782-1.836-1.188-3.258-2.826-4.266-4.914-.972-2.124-1.458-4.554-1.458-7.29 0-3.168.504-5.886 1.512-8.154 1.008-2.304 2.43-4.068 4.266-5.292 1.836-1.26 3.978-1.89 6.426-1.89Zm30.989 0c.972 0 1.818.198 2.538.594.756.396 1.332.918 1.728 1.566.432.612.648 1.314.648 2.106 0 .9-.288 1.692-.864 2.376-.54.684-1.278 1.026-2.214 1.026a3.077 3.077 0 0 1-1.998-.702c-.576-.504-.864-1.206-.864-2.106 0-.684.18-1.26.54-1.728.396-.504.828-.9 1.296-1.188-.252-.36-.63-.54-1.134-.54-1.116 0-2.142.342-3.078 1.026-.936.648-1.728 1.494-2.376 2.538a14.042 14.042 0 0 0-1.512 3.348c-.36 1.152-.54 2.232-.54 3.24v11.448c0 1.764.504 2.952 1.512 3.564 1.044.576 2.448.864 4.212.864V196c-.828-.036-1.998-.072-3.51-.108a101.258 101.258 0 0 0-4.806-.108c-1.224 0-2.448.036-3.672.108-1.188.036-2.088.072-2.7.108v-1.134c1.476 0 2.52-.27 3.132-.81.648-.54.972-1.566.972-3.078v-16.902c0-1.62-.288-2.808-.864-3.564-.576-.792-1.656-1.188-3.24-1.188v-1.134c1.152.108 2.268.162 3.348.162 1.044 0 2.034-.054 2.97-.162a16.926 16.926 0 0 0 2.646-.594v6.75c.396-1.044.954-2.088 1.674-3.132a10.691 10.691 0 0 1 2.7-2.7 5.955 5.955 0 0 1 3.456-1.08Zm19.698 0c1.152 0 2.268.144 3.348.432 1.08.288 2.052.72 2.916 1.296.828.54 1.458 1.17 1.89 1.89.432.684.648 1.44.648 2.268 0 .972-.27 1.728-.81 2.268-.54.504-1.224.756-2.052.756a3.373 3.373 0 0 1-2.106-.702c-.576-.468-.864-1.134-.864-1.998 0-.828.216-1.494.648-1.998.468-.504 1.008-.828 1.62-.972-.36-.648-1.008-1.188-1.944-1.62a6.65 6.65 0 0 0-2.916-.648c-.9 0-1.8.216-2.7.648-.9.432-1.728 1.152-2.484 2.16-.756.972-1.368 2.322-1.836 4.05-.468 1.692-.702 3.816-.702 6.372 0 3.168.36 5.688 1.08 7.56.72 1.872 1.656 3.222 2.808 4.05a6.868 6.868 0 0 0 3.888 1.188c.936 0 1.89-.18 2.862-.54.972-.36 1.89-.936 2.754-1.728.864-.828 1.602-1.926 2.214-3.294l1.026.378c-.36 1.152-.954 2.322-1.782 3.51-.828 1.152-1.908 2.106-3.24 2.862-1.332.756-2.97 1.134-4.914 1.134-2.232 0-4.248-.576-6.048-1.728-1.8-1.152-3.24-2.79-4.32-4.914-1.044-2.16-1.566-4.716-1.566-7.668s.522-5.544 1.566-7.776c1.08-2.268 2.574-4.032 4.482-5.292 1.908-1.296 4.086-1.944 6.534-1.944Zm25.884 0c3.168 0 5.634.972 7.398 2.916 1.8 1.908 2.7 4.896 2.7 8.964h-19.062l-.054-1.026h13.932c.072-1.764-.072-3.384-.432-4.86-.36-1.512-.936-2.718-1.728-3.618-.756-.9-1.746-1.35-2.97-1.35-1.656 0-3.132.828-4.428 2.484-1.26 1.656-2.016 4.284-2.268 7.884l.162.216c-.072.54-.126 1.134-.162 1.782a35.04 35.04 0 0 0-.054 1.944c0 2.448.396 4.554 1.188 6.318.792 1.764 1.818 3.114 3.078 4.05 1.296.9 2.628 1.35 3.996 1.35a9.67 9.67 0 0 0 3.078-.486c.972-.36 1.872-.936 2.7-1.728.828-.792 1.548-1.854 2.16-3.186l1.08.432c-.396 1.188-1.044 2.34-1.944 3.456-.9 1.116-2.034 2.034-3.402 2.754-1.368.684-2.952 1.026-4.752 1.026-2.592 0-4.824-.594-6.696-1.782-1.836-1.188-3.258-2.826-4.266-4.914-.972-2.124-1.458-4.554-1.458-7.29 0-3.168.504-5.886 1.512-8.154 1.008-2.304 2.43-4.068 4.266-5.292 1.836-1.26 3.978-1.89 6.426-1.89Z"/></svg>