<svg xmlns="http://www.w3.org/2000/svg" width="500" height="345" fill="none"><path fill="#fff" d="M0 0h500v345H0z"/><path fill="#000" d="M36.78 199v-53.9h5.74v13.3h27.16c1.54 0 2.94.397 4.2 1.19a8.134 8.134 0 0 1 3.08 3.08c.793 1.26 1.19 2.66 1.19 4.2v23.66c0 1.54-.397 2.963-1.19 4.27-.747 1.26-1.773 2.287-3.08 3.08-1.26.747-2.66 1.12-4.2 1.12h-32.9Zm8.54-5.74h24.36c.747 0 1.377-.257 1.89-.77.56-.56.84-1.213.84-1.96v-23.66c0-.747-.28-1.377-.84-1.89-.513-.56-1.143-.84-1.89-.84H45.32c-.747 0-1.4.28-1.96.84-.56.513-.84 1.143-.84 1.89v23.66c0 .747.28 1.4.84 1.96a2.81 2.81 0 0 0 1.96.77ZM83.33 199v-32.13c0-1.54.373-2.94 1.12-4.2.793-1.307 1.82-2.333 3.08-3.08a8.08 8.08 0 0 1 4.27-1.19h22.819v5.74h-22.82c-.746 0-1.4.28-1.96.84-.513.513-.77 1.143-.77 1.89V199h-5.74Zm44.22 0a8.454 8.454 0 0 1-4.27-1.12 9.7 9.7 0 0 1-3.08-3.08 8.456 8.456 0 0 1-1.12-4.27v-23.66c0-1.54.373-2.94 1.12-4.2.793-1.307 1.82-2.333 3.08-3.08a8.078 8.078 0 0 1 4.27-1.19h24.36c1.586 0 3.01.397 4.27 1.19a8.141 8.141 0 0 1 3.08 3.08c.793 1.26 1.19 2.66 1.19 4.2v14.7h-35.63v8.96c0 .747.256 1.4.77 1.96a2.81 2.81 0 0 0 1.96.77h32.9V199h-32.9Zm-2.73-23.17h29.82v-8.96c0-.747-.28-1.377-.84-1.89-.514-.56-1.144-.84-1.89-.84h-24.36c-.747 0-1.4.28-1.96.84-.514.513-.77 1.143-.77 1.89v8.96ZM176.087 199a8.454 8.454 0 0 1-4.27-1.12 9.7 9.7 0 0 1-3.08-3.08 8.456 8.456 0 0 1-1.12-4.27v-14.7h35.56v-8.96c0-.747-.28-1.377-.84-1.89-.514-.56-1.144-.84-1.89-.84h-32.83v-5.74h32.83c1.586 0 3.01.397 4.27 1.19a8.141 8.141 0 0 1 3.08 3.08c.793 1.26 1.19 2.66 1.19 4.2V199h-32.9Zm0-5.74h27.09v-11.69h-29.82v8.96c0 .747.256 1.4.77 1.96a2.81 2.81 0 0 0 1.96.77ZM216.36 199v-53.9h5.74v30.73h11.2l15.96-17.43h7.56v.07l-18.41 20.23 18.34 20.23v.07h-7.49l-15.96-17.43h-11.2V199h-5.74Zm64.326 0v-53.9h5.74v13.3h27.16c1.54 0 2.94.397 4.2 1.19a8.127 8.127 0 0 1 3.08 3.08c.794 1.26 1.19 2.66 1.19 4.2v23.66c0 1.54-.396 2.963-1.19 4.27-.746 1.26-1.773 2.287-3.08 3.08-1.26.747-2.66 1.12-4.2 1.12h-32.9Zm8.54-5.74h24.36c.747 0 1.377-.257 1.89-.77.56-.56.84-1.213.84-1.96v-23.66c0-.747-.28-1.377-.84-1.89-.513-.56-1.143-.84-1.89-.84h-24.36c-.746 0-1.4.28-1.96.84-.56.513-.84 1.143-.84 1.89v23.66c0 .747.28 1.4.84 1.96.56.513 1.214.77 1.96.77Zm38.01 5.74v-32.13c0-1.54.373-2.94 1.12-4.2.793-1.307 1.82-2.333 3.08-3.08a8.078 8.078 0 0 1 4.27-1.19h22.82v5.74h-22.82c-.747 0-1.4.28-1.96.84-.514.513-.77 1.143-.77 1.89V199h-5.74Zm35.82 0v-40.6h5.74V199h-5.74Zm0-48.16v-5.74h5.74v5.74h-5.74ZM384.991 199a8.456 8.456 0 0 1-4.27-1.12 9.71 9.71 0 0 1-3.08-3.08 8.466 8.466 0 0 1-1.12-4.27v-23.66c0-1.54.374-2.94 1.12-4.2.794-1.307 1.82-2.333 3.08-3.08a8.08 8.08 0 0 1 4.27-1.19h32.76v5.74h-32.76c-.746 0-1.4.28-1.96.84-.513.513-.77 1.143-.77 1.89v23.66c0 .747.257 1.4.77 1.96.56.513 1.214.77 1.96.77h32.9V199h-32.9Zm39.045 0v-53.9h5.74v30.73h11.2l15.96-17.43h7.56v.07l-18.41 20.23 18.34 20.23v.07h-7.49l-15.96-17.43h-11.2V199h-5.74ZM38.25 211.425a2.625 2.625 0 1 1-5.25 0 2.625 2.625 0 0 1 5.25 0Zm10.5 0a2.625 2.625 0 1 1-5.25 0 2.625 2.625 0 0 1 5.25 0Zm10.5 0a2.625 2.625 0 1 1-5.25 0 2.625 2.625 0 0 1 5.25 0Zm10.5 0a2.625 2.625 0 1 1-5.25 0 2.625 2.625 0 0 1 5.25 0Zm10.5 0a2.625 2.625 0 1 1-5.25 0 2.625 2.625 0 0 1 5.25 0Zm10.5 0a2.625 2.625 0 1 1-5.25 0 2.625 2.625 0 0 1 5.25 0Zm10.5 0a2.625 2.625 0 1 1-5.25 0 2.625 2.625 0 0 1 5.25 0Zm10.5 0a2.625 2.625 0 1 1-5.25 0 2.625 2.625 0 0 1 5.25 0Zm10.5 0a2.625 2.625 0 1 1-5.25 0 2.625 2.625 0 0 1 5.25 0Zm10.5 0a2.625 2.625 0 1 1-5.25 0 2.625 2.625 0 0 1 5.25 0Zm10.5 0a2.625 2.625 0 1 1-5.25 0 2.625 2.625 0 0 1 5.25 0Zm10.5 0a2.625 2.625 0 1 1-5.25 0 2.625 2.625 0 0 1 5.25 0Zm10.5 0a2.625 2.625 0 1 1-5.25 0 2.625 2.625 0 0 1 5.25 0Zm10.5 0a2.625 2.625 0 1 1-5.25 0 2.625 2.625 0 0 1 5.25 0Zm10.5 0a2.625 2.625 0 1 1-5.25 0 2.625 2.625 0 0 1 5.25 0Zm10.5 0a2.625 2.625 0 1 1-5.25 0 2.625 2.625 0 0 1 5.25 0Zm10.5 0a2.625 2.625 0 1 1-5.25 0 2.625 2.625 0 0 1 5.25 0Zm10.5 0a2.625 2.625 0 1 1-5.25 0 2.625 2.625 0 0 1 5.25 0Zm10.5 0a2.625 2.625 0 1 1-5.25 0 2.625 2.625 0 0 1 5.25 0Zm10.5 0a2.625 2.625 0 1 1-5.25 0 2.625 2.625 0 0 1 5.25 0Zm10.5 0a2.625 2.625 0 1 1-5.25 0 2.625 2.625 0 0 1 5.25 0Zm10.5 0a2.625 2.625 0 1 1-5.25 0 2.625 2.625 0 0 1 5.25 0Zm10.5 0a2.625 2.625 0 1 1-5.25 0 2.625 2.625 0 0 1 5.25 0Zm10.5 0a2.625 2.625 0 1 1-5.25 0 2.625 2.625 0 0 1 5.25 0Zm10.5 0a2.625 2.625 0 1 1-5.25 0 2.625 2.625 0 0 1 5.25 0Zm10.5 0a2.625 2.625 0 1 1-5.25 0 2.625 2.625 0 0 1 5.25 0Zm10.5 0a2.625 2.625 0 1 1-5.25 0 2.625 2.625 0 0 1 5.25 0Zm10.5 0a2.625 2.625 0 1 1-5.25 0 2.625 2.625 0 0 1 5.25 0Zm10.5 0a2.625 2.625 0 1 1-5.25 0 2.625 2.625 0 0 1 5.25 0Zm10.5 0a2.625 2.625 0 1 1-5.25 0 2.625 2.625 0 0 1 5.25 0Zm10.5 0a2.625 2.625 0 1 1-5.25 0 2.625 2.625 0 0 1 5.25 0Zm10.5 0a2.625 2.625 0 1 1-5.25 0 2.625 2.625 0 0 1 5.25 0Zm10.5 0a2.625 2.625 0 1 1-5.25 0 2.625 2.625 0 0 1 5.25 0Zm10.5 0a2.625 2.625 0 1 1-5.25 0 2.625 2.625 0 0 1 5.25 0Zm10.5 0a2.625 2.625 0 1 1-5.25 0 2.625 2.625 0 0 1 5.25 0Zm10.5 0a2.625 2.625 0 1 1-5.25 0 2.625 2.625 0 0 1 5.25 0Zm10.5 0a2.625 2.625 0 1 1-5.25 0 2.625 2.625 0 0 1 5.25 0Zm10.5 0a2.625 2.625 0 1 1-5.25 0 2.625 2.625 0 0 1 5.25 0Zm10.5 0a2.625 2.625 0 1 1-5.25 0 2.625 2.625 0 0 1 5.25 0Zm10.5 0a2.625 2.625 0 1 1-5.25 0 2.625 2.625 0 0 1 5.25 0Zm10.5 0a2.625 2.625 0 1 1-5.25 0 2.625 2.625 0 0 1 5.25 0Z"/></svg>