<svg xmlns="http://www.w3.org/2000/svg" width="100" height="100" fill="none"><path fill="url(#a)" d="M11.707 21.65c-.185-5.324 3.963-10.234 9.57-10.234H78.73c5.607 0 9.754 4.91 9.57 10.234-.179 5.114.052 11.739 1.72 17.14 1.672 5.42 4.493 8.844 9.112 9.284v4.99c-4.62.44-7.44 3.865-9.112 9.284-1.668 5.401-1.899 12.026-1.72 17.14.184 5.325-3.963 10.233-9.57 10.233H21.277c-5.607 0-9.755-4.91-9.57-10.233.178-5.114-.053-11.739-1.721-17.14-1.672-5.418-4.5-8.843-9.12-9.284v-4.99c4.62-.44 7.448-3.865 9.12-9.283 1.668-5.402 1.898-12.027 1.721-17.141Z"/><g filter="url(#b)"><path fill="url(#c)" d="M52.43 71.669c9.077 0 14.547-4.445 14.547-11.775 0-5.542-3.903-9.553-9.698-10.189v-.23c4.257-.693 7.599-4.647 7.599-9.063 0-6.292-4.968-10.39-12.537-10.39H35.31v41.647h17.12ZM41.933 35.304h8.811c4.79 0 7.51 2.135 7.51 6.003 0 4.127-3.163 6.436-8.9 6.436h-7.421v-12.44Zm0 31.083V52.678h8.752c6.268 0 9.52 2.309 9.52 6.811 0 4.503-3.163 6.898-9.136 6.898h-9.136Z"/></g><defs><linearGradient id="a" x1="15.469" x2="101.335" y1="13.489" y2="81.65" gradientUnits="userSpaceOnUse"><stop stop-color="#9013FE"/><stop offset="1" stop-color="#6610F2"/></linearGradient><linearGradient id="c" x1="38.306" x2="57.498" y1="32.763" y2="65.222" gradientUnits="userSpaceOnUse"><stop stop-color="#fff"/><stop offset="1" stop-color="#F1E5FC"/></linearGradient><filter id="b" width="32.65" height="42.63" x="34.819" y="29.653" color-interpolation-filters="sRGB" filterUnits="userSpaceOnUse"><feFlood flood-opacity="0" result="BackgroundImageFix"/><feColorMatrix in="SourceAlpha" result="hardAlpha" values="0 0 0 0 0 0 0 0 0 0 0 0 0 0 0 0 0 0 127 0"/><feOffset dy=".123"/><feGaussianBlur stdDeviation=".246"/><feColorMatrix values="0 0 0 0 0 0 0 0 0 0 0 0 0 0 0 0 0 0 0.15 0"/><feBlend in2="BackgroundImageFix" result="effect1_dropShadow_0_213"/><feBlend in="SourceGraphic" in2="effect1_dropShadow_0_213" result="shape"/></filter></defs></svg>