<svg xmlns="http://www.w3.org/2000/svg" width="95" height="132" fill="none"><g clip-path="url(#a)"><path fill="#264DE4" d="M47.442 131.667 8.781 121.091.165 25.876h94.67l-8.625 95.201-38.768 10.59Z"/><path fill="#2965F1" d="m78.827 115.014 7.37-81.353H47.5v89.911l31.327-8.558Z"/><path fill="#EBEBEB" d="m19.916 68.975 1.062 11.678H47.5V68.975H19.916Zm-2.134-23.636 1.077 11.678H47.5V45.339H17.782ZM47.5 99.304l-.052.013-13.199-3.512-.844-9.313H21.508l1.66 18.336 24.278 6.64.054-.015v-12.15Z"/><path fill="#000" d="M22.445 0H36.8v5.915h-8.35v5.914H36.8v5.915H22.445V0ZM39.67 0h14.355v5.143h-8.352v1.029h8.352v11.83H39.67V12.6h8.351v-1.028H39.67V0Zm17.226 0H71.25v5.143H62.9v1.029h8.351v11.83H56.896V12.6h8.351v-1.028h-8.35L56.895 0Z"/><path fill="#fff" d="m75.008 68.975 2.14-23.636H47.458v11.678h16.7l-1.078 11.958H47.459v11.678h14.594l-1.376 15.145-13.218 3.515v12.149l24.296-6.634.178-1.973 2.786-30.744.289-3.136Z"/></g><defs><clipPath id="a"><path fill="#fff" d="M0 0h95v132H0z"/></clipPath></defs></svg>