<svg xmlns="http://www.w3.org/2000/svg" width="66" height="100" fill="none"><g clip-path="url(#a)"><path fill="#0ACF83" d="M16.5 100c9.108 0 16.5-7.467 16.5-16.667V66.667H16.5C7.394 66.667.003 74.133.003 83.333S7.393 100 16.5 100Z"/><path fill="#A259FF" d="M.002 50c0-9.2 7.391-16.667 16.499-16.667H33v33.334H16.5C7.393 66.667 0 59.2 0 50Z"/><path fill="#F24E1E" d="M.002 16.667C.002 7.467 7.393 0 16.5 0H33v33.333H16.5C7.393 33.333 0 25.867 0 16.667Z"/><path fill="#FF7262" d="M33 0h16.5c9.107 0 16.498 7.467 16.498 16.667 0 9.2-7.391 16.666-16.499 16.666H33V0Z"/><path fill="#1ABCFE" d="M65.998 50c0 9.2-7.391 16.667-16.499 16.667C40.392 66.667 33 59.2 33 50c0-9.2 7.392-16.667 16.5-16.667 9.107 0 16.498 7.467 16.498 16.667Z"/></g><defs><clipPath id="a"><path fill="#fff" d="M0 0h66v100H0z"/></clipPath></defs></svg>