<svg xmlns="http://www.w3.org/2000/svg" width="100" height="100" fill="none"><g clip-path="url(#a)"><path fill="#00B4E0" d="M76.563 0H23.437C10.493 0 0 10.493 0 23.438v53.124C0 89.507 10.493 100 23.438 100h53.124C89.507 100 100 89.507 100 76.562V23.438C100 10.492 89.507 0 76.562 0Z"/><path fill="#fff" d="M15.82 44.232c-.156 0-.195-.078-.117-.195l.82-1.055c.079-.117.274-.195.43-.195h13.945c.157 0 .196.117.118.234l-.664 1.016c-.079.117-.274.234-.391.234l-14.14-.039Zm-5.898 3.594c-.156 0-.195-.078-.117-.196l.82-1.054c.078-.117.273-.196.43-.196h17.812c.156 0 .235.118.195.235l-.312.937c-.04.157-.195.235-.352.235l-18.476.039Zm9.453 3.593c-.156 0-.195-.117-.117-.234l.547-.976c.078-.118.234-.235.39-.235h7.813c.156 0 .234.117.234.274l-.078.937c0 .156-.156.274-.273.274l-8.516-.04Zm40.547-7.89c-2.461.625-4.14 1.094-6.563 1.719-.586.156-.625.195-1.132-.391-.586-.664-1.016-1.094-1.836-1.484-2.461-1.211-4.844-.86-7.07.586-2.657 1.718-4.024 4.257-3.985 7.421.039 3.125 2.187 5.704 5.273 6.133 2.657.352 4.883-.586 6.641-2.578.352-.43.664-.898 1.055-1.445h-7.54c-.82 0-1.015-.508-.742-1.172.508-1.211 1.446-3.242 1.993-4.258.117-.234.39-.625.976-.625h14.219c-.078 1.055-.078 2.11-.234 3.164-.43 2.813-1.485 5.39-3.204 7.657-2.812 3.71-6.484 6.015-11.132 6.64-3.828.508-7.383-.234-10.508-2.578-2.89-2.188-4.531-5.078-4.961-8.672-.508-4.258.742-8.086 3.32-11.445 2.774-3.633 6.446-5.938 10.938-6.758 3.672-.664 7.187-.234 10.351 1.914 2.07 1.367 3.555 3.242 4.532 5.508.234.351.078.547-.391.664Z"/><path fill="#fff" d="M72.852 65.13c-3.555-.078-6.797-1.093-9.532-3.437-2.304-1.992-3.75-4.531-4.218-7.54-.704-4.413.507-8.32 3.164-11.796 2.851-3.75 6.289-5.703 10.937-6.523 3.984-.704 7.734-.313 11.133 1.992 3.086 2.11 5 4.96 5.508 8.71.664 5.274-.86 9.571-4.492 13.243-2.579 2.617-5.743 4.258-9.376 5-1.054.195-2.109.234-3.124.352Zm9.296-15.78c-.039-.509-.039-.9-.117-1.29-.703-3.867-4.258-6.055-7.969-5.195-3.632.82-5.976 3.125-6.835 6.797-.704 3.047.78 6.133 3.593 7.383 2.149.937 4.297.82 6.367-.235 3.086-1.601 4.766-4.101 4.961-7.46Z"/></g><defs><clipPath id="a"><path fill="#fff" d="M0 0h100v100H0z"/></clipPath></defs></svg>