<svg xmlns="http://www.w3.org/2000/svg" width="112" height="120" fill="none"><path fill="#E44F26" d="M20.657 102.004 12.793 7.5h86.414l-7.874 94.489L55.946 112.5l-35.29-10.496Z"/><path fill="#F1662A" d="m56 104.468 28.595-8.494 6.727-80.745H56v89.239Z"/><path fill="#EBEBEB" d="M56 50.276H41.685l-.987-11.869H56v-11.59H28.875l.259 3.112 2.657 31.939H56V50.276Zm0 30.101-.049.016-12.047-3.484-.77-9.244h-10.86l1.515 18.195 22.162 6.593.049-.016v-12.06Z"/><path fill="#fff" d="M55.961 50.276v11.591h13.321L68.03 76.901 55.961 80.39v12.06l22.18-6.589.16-1.957 2.542-30.514.266-3.113H55.96Zm0-23.46v11.591h26.131l.217-2.602.494-5.876.259-3.113h-27.1Z"/></svg>