<svg width="112" height="120" viewBox="0 0 112 120" fill="none" xmlns="http://www.w3.org/2000/svg">
<path d="M20.657 102.004L12.7925 7.5H99.2075L91.3325 101.989L55.9475 112.5L20.657 102.004Z" fill="#E44F26"/>
<path d="M56 104.468L84.595 95.9738L91.322 15.2288H56V104.468Z" fill="#F1662A"/>
<path d="M56 50.2762H41.685L40.698 38.4075H56V26.8162H28.875L29.134 29.9287L31.7905 61.8675H56V50.2762ZM56 80.3775L55.951 80.3925L43.904 76.9087L43.134 67.665H32.2735L33.789 85.86L55.951 92.4525L56 92.4375V80.3775Z" fill="#EBEBEB"/>
<path d="M55.9614 50.2762V61.8675H69.2824L68.0294 76.9012L55.9614 80.3887V92.4487L78.1409 85.86L78.3019 83.9025L80.8429 53.3887L81.1089 50.2762H55.9614ZM55.9614 26.8162V38.4075H82.0924L82.3094 35.805L82.8029 29.9287L83.0619 26.8162H55.9614Z" fill="white"/>
</svg>
