<svg xmlns="http://www.w3.org/2000/svg" width="100" height="100" fill="none"><g clip-path="url(#a)"><path fill="#F0DB4F" d="M76.563 0H23.437C10.493 0 0 10.493 0 23.438v53.124C0 89.507 10.493 100 23.438 100h53.124C89.507 100 100 89.507 100 76.562V23.438C100 10.492 89.507 0 76.562 0Z"/><path fill="#323330" d="m26.294 83.567 7.652-4.631c1.477 2.617 2.82 4.832 6.041 4.832 3.088 0 5.035-1.207 5.035-5.906V45.91h9.398v32.085c0 9.733-5.706 14.164-14.03 14.164-7.518 0-11.881-3.894-14.096-8.593m33.23-1.006 7.651-4.43c2.015 3.29 4.633 5.706 9.264 5.706 3.894 0 6.377-1.947 6.377-4.632 0-3.222-2.55-4.363-6.847-6.242l-2.349-1.008c-6.78-2.886-11.277-6.51-11.277-14.163 0-7.048 5.37-12.419 13.761-12.419 5.974 0 10.27 2.081 13.358 7.519l-7.317 4.698c-1.611-2.886-3.356-4.027-6.041-4.027-2.752 0-4.498 1.745-4.498 4.027 0 2.82 1.746 3.961 5.773 5.707l2.35 1.006c7.987 3.424 12.485 6.914 12.485 14.767 0 8.46-6.645 13.09-15.573 13.09-8.726 0-14.365-4.161-17.117-9.599Z"/></g><defs><clipPath id="a"><path fill="#fff" d="M0 0h100v100H0z"/></clipPath></defs></svg>