<svg xmlns="http://www.w3.org/2000/svg" width="147" height="100" fill="none"><g clip-path="url(#a)"><path fill="#00758F" d="m43.73 65.988 4.467 14.466c1.004 3.284 1.422 5.577 1.255 6.884 2.443-6.53 4.15-13.647 5.122-21.35h5.371c-2.31 12.54-5.356 21.653-9.138 27.338-2.946 4.38-6.174 6.57-9.688 6.57-.938 0-2.093-.282-3.464-.843V96.03c.67.098 1.456.15 2.36.15 1.64 0 2.961-.453 3.966-1.358 1.204-1.103 1.807-2.342 1.807-3.716 0-.938-.47-2.864-1.406-5.776l-6.224-19.342h5.572ZM9.539 57.096l8.182 24.916h.05l8.234-24.916h6.726c1.473 12.357 2.343 23.663 2.61 33.91H29.67c-.2-9.58-.752-18.588-1.656-27.026h-.05L19.33 91.007H15.01L6.427 63.98h-.05C5.74 72.084 5.337 81.094 5.17 91.007H0c.334-12.057 1.17-23.36 2.509-33.91h7.03Z"/><path fill="#F29111" d="M101.205 56.593c8.802 0 13.203 5.612 13.203 16.83 0 6.097-1.323 10.702-3.968 13.813a11.559 11.559 0 0 1-1.558 1.514l6.229 3.074h-.006l-2.212 3.811-8.111-4.723c-1.345.397-2.824.596-4.436.596-4.322 0-7.55-1.257-9.685-3.768-2.343-2.778-3.514-7.15-3.514-13.111 0-6.062 1.322-10.65 3.967-13.764 2.41-2.85 5.774-4.272 10.091-4.272Zm-26.953.05c3.145 0 6.006.84 8.582 2.513l-1.308 2.91c-2.205-.934-4.379-1.404-6.522-1.404-1.74 0-3.08.418-4.014 1.258-.94.834-1.52 1.906-1.52 3.213 0 2.008 1.433 3.75 4.08 5.222.868.473 1.732.952 2.594 1.436l.197.11.1.056.197.111.099.056.197.111a826.2 826.2 0 0 1 3.89 2.204c2.647 1.875 3.967 3.875 3.967 7.168 0 2.876-1.056 5.236-3.161 7.084-2.107 1.838-4.937 2.76-8.48 2.76-3.316 0-6.528-1.06-9.64-3.166l1.456-2.912c2.678 1.339 5.101 2.008 7.277 2.008 2.04 0 3.638-.455 4.794-1.353 1.153-.904 1.844-2.166 1.844-3.766 0-2.013-1.403-3.734-3.978-5.178-.806-.444-1.609-.893-2.41-1.346l-.197-.111-1.085-.614-.194-.11c-1.738-.987-3.241-1.85-3.241-1.85-2.574-1.878-3.864-3.894-3.864-7.215 0-2.747.962-4.967 2.884-6.657 1.927-1.692 4.412-2.539 7.456-2.539Zm50.501.453v29.739h10.691v4.171H119.33v-33.91h5.423Zm16.632 29.752v.704h-1.175v3.45h-.899v-3.45h-1.221v-.704h3.295Zm2.17 0 1.129 2.832 1.037-2.832h1.274v4.154h-.847V87.84l-1.18 3.162h-.611l-1.182-3.162h-.045v3.162h-.802v-4.154h1.227Zm-42.903-26.085c-5.187 0-7.782 4.273-7.782 12.811 0 4.891.688 8.438 2.06 10.649 1.272 2.046 3.263 3.066 5.974 3.066 5.187 0 7.781-4.305 7.781-12.912 0-4.823-.687-8.339-2.058-10.55-1.273-2.042-3.263-3.064-5.975-3.064"/><path fill="#00758F" d="M87.057 2.101c1.72-4.22 7.737-1.024 10.072.45.572.369 1.228 1.148 1.884 1.436 1.024.04 2.046.12 3.072.163 1.923.45 3.724.819 5.239 1.68 7.043 4.14 11.627 8.357 15.846 15.324.902 1.476 1.352 3.072 2.088 4.67 1.023 2.38 2.171 4.878 3.357 7.129.531 1.067.942 2.253 1.68 3.154.288.413 1.106.534 1.595.78 1.351.698 2.989 1.228 4.26 2.048 2.375 1.477 4.67 3.238 6.757 5.04.778.696 1.308 1.68 2.049 2.416v.372c-.658.201-1.314.407-1.97.573-1.433.367-2.702.284-4.092.652-.859.248-1.926.577-2.827.66l.083.083c.53 1.512 3.398 2.741 4.71 3.645 1.593 1.148 3.069 2.539 4.257 4.137.41.408.82.779 1.228 1.185.286.412.366.945.655 1.313v.124c-.32-.113-.55-.328-.768-.552l-.13-.136a3.201 3.201 0 0 0-.411-.376c-.903-.616-1.801-1.353-2.705-1.926-1.554-.984-3.356-1.555-4.951-2.542-.902-.574-1.762-1.227-2.622-1.883-.78-.575-1.638-1.68-2.128-2.499-.288-.452-.328-.985-.658-1.312.059-.547.561-.71 1.068-.843l.117-.03c.175-.046.346-.091.495-.151 2.129-.902 4.666-1.23 7.943-1.148-.123-.82-2.171-1.844-2.824-2.336-1.313-.943-2.702-1.928-4.094-2.787-.737-.45-2.008-.778-2.826-1.146-1.105-.451-3.563-.902-4.175-1.76-1.041-1.355-1.789-2.97-2.514-4.602l-.198-.445-.198-.445c-.858-1.965-1.924-4.013-2.784-6.025-.449-.981-.656-1.843-1.148-2.784-2.988-5.776-7.41-10.612-12.772-14.012-1.762-1.107-3.727-2.131-5.896-2.827-1.229-.37-2.704-.166-4.013-.45h-.862c-.736-.207-1.35-.985-1.924-1.395-1.268-.86-2.537-1.436-4.053-2.05-.531-.245-2.048-.817-2.577-.367-.328.083-.495.206-.575.534-.326.49-.04 1.228.163 1.68.615 1.31 1.474 2.088 2.254 3.195.694.981 1.556 2.088 2.047 3.155 1.061 2.293 1.556 4.835 2.539 7.128.365.862.941 1.844 1.472 2.622.45.617 1.268 1.064 1.516 1.845.493.82-.739 3.524-1.024 4.383-1.067 3.36-.86 8.03.368 10.943l.066.154.065.155c.449 1.067.929 2.216 2.121 2.514.082-.081 0-.039.163-.081.289-2.255.37-4.426 1.148-6.19.45-1.103 1.349-1.882 1.965-2.783.41.246.41.985.655 1.475.533 1.269 1.105 2.66 1.762 3.934 1.348 2.621 2.865 5.163 4.584 7.457.576.819 1.392 1.72 2.129 2.459.328.285.696.45.943.818h.08v.124c-1.228-.452-2.007-1.72-2.987-2.46-1.844-1.392-4.053-3.482-5.324-5.488-.532-1.151-1.107-2.255-1.68-3.4v-.083c-.245.327-.162.652-.285 1.147-.532 2.047-.122 4.383-1.965 5.12-2.088.862-3.646-1.392-4.3-2.417-2.089-3.4-2.661-9.135-1.188-13.766.328-1.024.372-2.254.943-3.072-.123-.74-.694-.942-1.025-1.395-.573-.775-1.064-1.678-1.512-2.538-.862-1.681-1.476-3.69-2.13-5.492-.288-.736-.37-1.475-.657-2.172-.49-1.063-1.39-2.13-2.087-3.071-.941-1.353-3.685-3.974-2.58-6.639Zm13.428 8.027c.11.11.242.206.379.3l.164.113c.22.152.433.311.563.53.207.287.245.572.493.86 0 .986-.286 1.64-.864 2.048 0 0-.039.043-.079.084-.328-.657-.614-1.31-.944-1.966-.406-.572-.98-1.027-1.31-1.68h-.08v-.083a6.547 6.547 0 0 1 1.678-.206Z"/></g><defs><clipPath id="a"><path fill="#fff" d="M0 0h147v100H0z"/></clipPath></defs></svg>