<svg xmlns="http://www.w3.org/2000/svg" width="100" height="100" fill="none"><path fill="url(#a)" d="M49.524 9.569c-3.298.015-6.447.296-9.219.786-8.164 1.443-9.645 4.461-9.645 10.03v7.352h19.292v2.45H23.419c-5.606 0-10.515 3.37-12.051 9.782-1.772 7.348-1.85 11.934 0 19.607 1.371 5.711 4.646 9.78 10.253 9.78h6.634v-8.814c0-6.368 5.508-11.984 12.051-11.984h19.27c5.364 0 9.645-4.417 9.645-9.803v-18.37c0-5.229-4.41-9.156-9.645-10.029a60.264 60.264 0 0 0-10.052-.787Zm-10.433 5.913c1.992 0 3.62 1.654 3.62 3.688 0 2.026-1.627 3.664-3.62 3.664-2 0-3.62-1.638-3.62-3.664 0-2.034 1.62-3.688 3.62-3.688Z"/><path fill="url(#b)" d="M71.627 30.188v8.567c0 6.64-5.632 12.23-12.052 12.23h-19.27c-5.278 0-9.645 4.518-9.645 9.804V79.16c0 5.228 4.546 8.303 9.646 9.803 6.106 1.794 11.962 2.119 19.269 0 4.856-1.407 9.645-4.237 9.645-9.803v-7.353H49.952v-2.451h28.915c5.606 0 7.697-3.91 9.647-9.781 2.014-6.043 1.927-11.855 0-19.606-1.386-5.582-4.032-9.782-9.647-9.782h-7.24Zm-10.839 46.52c2.001 0 3.62 1.639 3.62 3.666 0 2.033-1.62 3.687-3.62 3.687-1.992 0-3.62-1.654-3.62-3.687 0-2.027 1.628-3.665 3.62-3.665Z"/><path fill="url(#c)" d="M76.023 93.435c0 2.768-11.575 5.013-25.853 5.013-14.278 0-25.853-2.245-25.853-5.013s11.574-5.013 25.853-5.013c14.278 0 25.853 2.244 25.853 5.013Z" opacity=".444"/><defs><linearGradient id="a" x1="8.076" x2="52.571" y1="11.868" y2="49.813" gradientUnits="userSpaceOnUse"><stop stop-color="#5A9FD4"/><stop offset="1" stop-color="#306998"/></linearGradient><linearGradient id="b" x1="69.312" x2="53.355" y1="73.4" y2="51.024" gradientUnits="userSpaceOnUse"><stop stop-color="#FFD43B"/><stop offset="1" stop-color="#FFE873"/></linearGradient><radialGradient id="c" cx="0" cy="0" r="1" gradientTransform="matrix(0 -5.01431 22.0421 0 50.066 93.292)" gradientUnits="userSpaceOnUse"><stop stop-color="#B8B8B8" stop-opacity=".498"/><stop offset="1" stop-color="#7F7F7F" stop-opacity="0"/></radialGradient></defs></svg>