<?xml version="1.0" standalone="no"?>
<!DOCTYPE svg PUBLIC "-//W3C//DTD SVG 20010904//EN"
 "http://www.w3.org/TR/2001/REC-SVG-20010904/DTD/svg10.dtd">
<svg version="1.0" xmlns="http://www.w3.org/2000/svg"
 width="225.000000pt" height="225.000000pt" viewBox="0 0 225.000000 225.000000"
 preserveAspectRatio="xMidYMid meet">

<g transform="translate(0.000000,225.000000) scale(0.100000,-0.100000)"
fill="#000000" stroke="none">
<path d="M0 1125 l0 -1125 1125 0 1125 0 0 1125 0 1125 -1125 0 -1125 0 0
-1125z m776 921 c75 -20 180 -78 269 -150 l79 -62 85 69 c260 208 473 207 535
-4 30 -101 30 -181 0 -385 l-6 -40 43 -13 c75 -22 222 -96 277 -140 143 -114
154 -239 32 -361 -45 -45 -85 -72 -172 -115 -62 -30 -127 -58 -145 -61 -18 -3
-33 -9 -33 -13 0 -3 7 -41 15 -84 27 -143 16 -294 -27 -382 -27 -54 -46 -73
-92 -97 -103 -53 -278 10 -457 163 l-56 48 -24 -25 c-45 -48 -144 -117 -225
-156 -86 -41 -163 -56 -229 -44 -49 10 -108 65 -135 129 -37 84 -38 285 -4
423 5 19 -2 24 -48 39 -110 36 -230 106 -298 174 -124 124 -120 224 11 346 63
58 179 120 282 152 l59 18 -6 35 c-24 128 -28 176 -24 265 11 223 114 319 294
271z"/>
<path d="M637 1960 c-36 -23 -60 -91 -65 -184 -4 -85 11 -239 26 -263 5 -9 38
-6 117 7 61 11 122 20 137 20 22 0 39 15 87 78 33 42 74 93 91 114 l30 36 -52
44 c-72 61 -106 83 -179 119 -67 34 -161 48 -192 29z"/>
<path d="M1446 1945 c-70 -29 -144 -77 -209 -136 l-49 -44 66 -79 c36 -43 75
-93 87 -110 21 -31 27 -33 138 -49 64 -10 128 -20 143 -23 25 -6 27 -3 39 53
7 32 13 108 13 168 2 221 -66 287 -228 220z"/>
<path d="M1073 1643 c-87 -103 -93 -93 51 -93 l127 0 -61 75 c-34 41 -63 75
-65 75 -2 0 -25 -26 -52 -57z"/>
<path d="M882 1383 c-27 -43 -71 -119 -98 -169 l-48 -90 48 -90 c27 -49 71
-123 97 -165 l49 -76 98 -6 c53 -3 141 -3 194 0 l98 6 64 106 c35 59 77 134
94 167 l30 60 -44 85 c-25 46 -68 121 -97 167 l-52 82 -191 0 -192 0 -50 -77z
m353 -107 c134 -103 74 -318 -94 -334 -97 -9 -188 61 -198 152 -8 66 4 112 40
153 44 50 80 64 153 60 49 -2 69 -8 99 -31z"/>
<path d="M688 1428 c-37 -7 -58 -15 -58 -24 0 -7 10 -39 21 -71 12 -32 26 -69
31 -83 9 -23 11 -22 41 35 18 33 45 81 61 108 l28 47 -34 -1 c-18 -1 -59 -6
-90 -11z"/>
<path d="M1440 1437 c0 -2 27 -50 59 -106 l59 -102 31 87 c18 48 28 90 24 94
-13 13 -173 37 -173 27z"/>
<path d="M460 1366 c-87 -31 -144 -60 -206 -107 -133 -98 -122 -189 34 -293
66 -44 204 -106 235 -106 10 0 22 20 33 53 9 28 32 88 50 132 l34 79 -39 96
c-21 52 -44 112 -51 133 -6 20 -15 37 -18 36 -4 0 -36 -11 -72 -23z"/>
<path d="M1662 1258 l-52 -132 52 -130 c28 -72 53 -133 55 -135 6 -8 165 60
223 95 65 39 124 98 140 138 32 85 -85 192 -298 272 -34 13 -64 24 -65 24 -2
0 -27 -59 -55 -132z"/>
<path d="M1494 911 c-34 -58 -61 -107 -60 -108 2 -3 179 27 187 32 6 4 -52
170 -63 180 -2 1 -31 -45 -64 -104z"/>
<path d="M682 994 c-5 -10 -21 -51 -35 -90 l-26 -72 57 -10 c31 -6 76 -14 99
-17 l43 -7 -47 79 c-26 43 -54 91 -64 107 -16 27 -18 27 -27 10z"/>
<path d="M596 731 c-35 -120 -34 -320 2 -388 12 -23 32 -48 44 -54 37 -20 127
-5 204 34 66 33 214 141 214 155 0 4 -14 23 -31 42 -16 19 -56 69 -89 111
l-59 76 -78 7 c-43 4 -107 13 -141 20 -55 11 -62 11 -66 -3z"/>
<path d="M1540 729 c-52 -9 -112 -18 -132 -18 -31 -1 -42 -7 -65 -38 -15 -21
-55 -72 -90 -115 l-62 -76 42 -39 c103 -94 234 -163 313 -163 42 0 54 4 75 27
41 45 52 82 56 193 4 108 -13 242 -32 245 -5 1 -53 -6 -105 -16z"/>
<path d="M1019 673 c33 -47 109 -128 113 -123 40 49 97 119 107 133 13 16 6
17 -113 17 l-127 0 20 -27z"/>
</g>
</svg>
