<svg width="100" height="100" viewBox="0 0 100 100" fill="none" xmlns="http://www.w3.org/2000/svg">
<path d="M70.8333 33.3333V66.6667H87.5M54.1667 62.5L58.3333 66.6667M12.5 62.5C12.5 63.6051 12.939 64.6649 13.7204 65.4463C14.5018 66.2277 15.5616 66.6667 16.6667 66.6667H25C26.1051 66.6667 27.1649 66.2277 27.9463 65.4463C28.7277 64.6649 29.1667 63.6051 29.1667 62.5V54.1667C29.1667 53.0616 28.7277 52.0018 27.9463 51.2204C27.1649 50.439 26.1051 50 25 50H16.6667C15.5616 50 14.5018 49.561 13.7204 48.7796C12.939 47.9982 12.5 46.9384 12.5 45.8333V37.5C12.5 36.3949 12.939 35.3351 13.7204 34.5537C14.5018 33.7723 15.5616 33.3333 16.6667 33.3333H25C26.1051 33.3333 27.1649 33.7723 27.9463 34.5537C28.7277 35.3351 29.1667 36.3949 29.1667 37.5M50 33.3333C52.2101 33.3333 54.3298 34.2113 55.8926 35.7741C57.4554 37.3369 58.3333 39.4565 58.3333 41.6667V58.3333C58.3333 60.5435 57.4554 62.6631 55.8926 64.2259C54.3298 65.7887 52.2101 66.6667 50 66.6667C47.7899 66.6667 45.6702 65.7887 44.1074 64.2259C42.5446 62.6631 41.6667 60.5435 41.6667 58.3333V41.6667C41.6667 39.4565 42.5446 37.3369 44.1074 35.7741C45.6702 34.2113 47.7899 33.3333 50 33.3333Z" stroke="black" stroke-width="8.33333" stroke-linecap="round" stroke-linejoin="round"/>
</svg>
