<svg xmlns="http://www.w3.org/2000/svg" width="100" height="100" fill="none"><path stroke="#000" stroke-linecap="round" stroke-linejoin="round" stroke-width="8.333" d="M70.833 33.333v33.334H87.5M54.167 62.5l4.166 4.167M12.5 62.5a4.167 4.167 0 0 0 4.167 4.167H25a4.167 4.167 0 0 0 4.167-4.167v-8.333A4.167 4.167 0 0 0 25 50h-8.333a4.167 4.167 0 0 1-4.167-4.167V37.5a4.167 4.167 0 0 1 4.167-4.167H25a4.167 4.167 0 0 1 4.167 4.167M50 33.333a8.334 8.334 0 0 1 8.333 8.334v16.666a8.333 8.333 0 1 1-16.666 0V41.667A8.333 8.333 0 0 1 50 33.333Z"/></svg>