<svg xmlns="http://www.w3.org/2000/svg" width="224" height="100" fill="none"><g clip-path="url(#a)"><path fill="#003B57" d="M85.103 49.142c-2.984 0-5.41.886-7.27 2.656-1.86 1.772-2.804 4.094-2.804 6.94 0 1.475.234 2.82.696 4.051.462 1.235 1.18 2.379 2.146 3.413.966 1.034 2.9 2.439 5.782 4.226 3.536 2.164 5.85 3.92 6.96 5.292 1.112 1.37 1.664 2.806 1.664 4.303 0 2.005-.658 3.605-2.011 4.808-1.355 1.203-3.168 1.802-5.414 1.802-2.37 0-4.434-.837-6.207-2.5-1.773-1.665-2.668-3.868-2.688-6.63h-1.102v10.022h1.102c.337-.949.802-1.434 1.412-1.434.293 0 .98.202 2.05.581 2.602.929 4.739 1.377 6.419 1.377 2.895 0 5.366-1.017 7.425-3.082 2.056-2.065 3.094-4.556 3.094-7.464 0-2.254-.685-4.26-2.03-6.01-1.345-1.75-3.961-3.786-7.87-6.125-3.364-2.026-5.548-3.676-6.555-4.963-1.01-1.284-1.528-2.706-1.528-4.265 0-1.686.618-3.04 1.837-4.051 1.219-1.011 2.816-1.512 4.815-1.512 2.249 0 4.124.669 5.607 2.016 1.482 1.35 2.34 3.219 2.591 5.621h1.103V49.53h-1.025c-.126.443-.242.726-.348.853-.104.126-.304.194-.6.194-.356 0-.992-.15-1.895-.446-1.934-.653-3.716-.989-5.356-.989m36.023 0c-3.636 0-6.937.86-9.919 2.579-2.987 1.715-5.352 4.098-7.097 7.133-1.744 3.035-2.61 6.258-2.61 9.693 0 4.614 1.507 8.726 4.544 12.33 3.039 3.6 6.681 5.844 10.906 6.707.966.504 2.348 1.807 4.157 3.915 2.039 2.38 3.764 4.096 5.182 5.118a15.576 15.576 0 0 0 4.563 2.268c1.619.494 3.369.737 5.26.737 2.291 0 4.342-.4 6.149-1.221l-.406-1.008a9.768 9.768 0 0 1-3.345.562c-1.599 0-3.215-.529-4.834-1.59-1.618-1.064-3.64-3.093-6.052-6.087-1.134-1.434-1.917-2.34-2.36-2.694 4.624-.906 8.425-3.152 11.39-6.747 2.963-3.593 4.447-7.694 4.447-12.29 0-5.457-1.937-10.044-5.782-13.783-3.848-3.74-8.579-5.622-14.192-5.622m22.488 0 .058 1.182c2.42 0 3.777.715 4.08 2.152.113.515.164 1.464.173 2.83l-.019 26.152c-.02 1.953-.297 3.2-.831 3.741-.535.537-1.438.874-2.746 1.008l-.058 1.183h24.132l.619-5.932h-1.103c-.315 1.616-1.036 2.774-2.184 3.431-1.152.662-3.189.989-6.13.989h-2.282c-2.647 0-4.178-.96-4.583-2.889a6.095 6.095 0 0 1-.116-1.24l.097-26.442c0-1.95.245-3.257.754-3.897.514-.637 1.442-.994 2.784-1.085l-.057-1.183h-12.588Zm-22.102 1.434c4.101 0 7.449 1.62 10.036 4.886 2.585 3.267 3.867 7.745 3.867 13.415 0 5.373-1.3 9.674-3.906 12.91-2.606 3.235-6.074 4.847-10.383 4.847-4.141 0-7.498-1.662-10.075-5.002-2.574-3.34-3.847-7.675-3.847-13.008 0-5.478 1.289-9.864 3.886-13.143 2.596-3.274 6.072-4.904 10.422-4.904m55.496 5.622c-.589 0-1.037.2-1.373.601-.343.4-.449.885-.329 1.473.116.571.438 1.071.948 1.493.507.42 1.055.64 1.643.64.57 0 1.004-.22 1.315-.64.312-.421.407-.922.29-1.493-.12-.588-.43-1.073-.909-1.474-.484-.4-1.016-.6-1.585-.6m15.913 4.012c-1 3.857-3.167 5.945-6.496 6.281l.038 1.105h3.887l-.077 13.066c.006 2.234.074 3.721.231 4.478.384 1.812 1.564 2.733 3.539 2.733 2.858 0 5.855-1.745 8.991-5.234l-.947-.814c-2.264 2.298-4.265 3.45-6.013 3.45-1.075 0-1.741-.619-1.992-1.84a4.686 4.686 0 0 1-.097-1.048l.039-14.79h5.936l-.058-1.765h-5.859V60.21h-1.122Zm22.953 4.924c-3.321 0-6.021 1.616-8.121 4.827-2.089 3.216-2.736 6.78-1.915 10.701.484 2.297 1.446 4.077 2.92 5.33 1.471 1.255 3.337 1.882 5.569 1.882 2.077 0 4.97-.528 6.187-1.59 1.221-1.062 2.345-2.782 3.384-5.137l-.831-.873c-1.657 3.056-5 4.595-7.522 4.595-3.467 0-5.59-1.907-6.381-5.7a13.991 13.991 0 0 1-.232-1.55c4.124-.655 7.25-1.814 9.359-3.49 2.107-1.676 4.224-3.454 3.829-5.33a4.324 4.324 0 0 0-1.702-2.657c-.901-.662-3.238-1.008-4.544-1.008Zm-36.294.136-7.155 1.648v1.28l2.475-.31c1.199 0 1.905.543 2.127 1.627.075.363.123.873.136 1.512l-.078 11.729c-.02 1.622-.199 2.566-.56 2.85-.365.283-1.325.426-2.882.426l-.038 1.105h11.35l-.019-1.106c-1.577 0-2.6-.124-3.055-.368-.448-.241-.757-.682-.89-1.357-.103-.486-.148-1.323-.155-2.48l.039-16.556h-1.295Zm34.476 2.171c.691 0 1.358.268 2.03.795.663.525 1.067 1.11 1.199 1.745.648 3.118-2.11 5.273-8.314 6.474-.177-2.273.216-4.338 1.218-6.203.995-1.864 2.29-2.81 3.867-2.81Z"/><path fill="#0F80CC" d="M69.078 4.365H7.508C3.38 4.365.003 7.75.003 11.887V79.96c0 4.137 3.376 7.522 7.503 7.522H48.06c-.46-20.228 6.43-59.486 21.019-83.117Z"/><path fill="url(#b)" d="M66.84 6.56H7.508c-2.93 0-5.314 2.39-5.314 5.327v63.107c13.437-5.17 33.606-9.632 47.551-9.43 2.803-14.69 11.039-43.479 17.097-59.005Z"/><path fill="#003B57" d="M83.439 2.137c-4.217-3.77-9.323-2.256-14.361 2.228a35.47 35.47 0 0 0-2.237 2.194c-8.62 9.168-16.622 26.15-19.108 39.119.969 1.969 1.725 4.48 2.223 6.4.128.492.243.954.335 1.347.22.931.337 1.534.337 1.534s-.078-.293-.395-1.215l-.207-.597a7.076 7.076 0 0 0-.133-.33c-.562-1.31-2.118-4.076-2.802-5.28a132.48 132.48 0 0 0-1.536 4.817c1.976 3.625 3.18 9.837 3.18 9.837s-.104-.402-.6-1.808c-.442-1.242-2.638-5.1-3.158-6.001-.89 3.293-1.243 5.516-.924 6.058.619 1.048 1.208 2.858 1.726 4.86 1.17 4.508 1.982 9.998 1.982 9.998s.026.364.07.924a91.962 91.962 0 0 0 .228 11.26c.388 4.697 1.117 8.733 2.046 10.892l.632-.345c-1.365-4.254-1.92-9.83-1.677-16.261.367-9.829 2.623-21.683 6.792-34.038 7.044-18.65 16.815-33.614 25.759-40.76-8.152 7.38-19.184 31.27-22.487 40.116-3.698 9.907-6.318 19.204-7.898 28.11 2.725-8.35 11.536-11.938 11.536-11.938s4.32-5.344 9.37-12.977c-3.024.692-7.991 1.876-9.655 2.577-2.454 1.032-3.115 1.384-3.115 1.384s7.949-4.853 14.77-7.05C83.51 32.38 93.73 11.34 83.438 2.136Z"/></g><defs><linearGradient id="b" x1="3729.94" x2="3729.94" y1="146.576" y2="6469.46" gradientUnits="userSpaceOnUse"><stop stop-color="#97D9F6"/><stop offset=".92" stop-color="#0F80CC"/><stop offset="1" stop-color="#0F80CC"/></linearGradient><clipPath id="a"><path fill="#fff" d="M0 0h224v100H0z"/></clipPath></defs></svg>