<svg xmlns="http://www.w3.org/2000/svg" width="100" height="100" fill="none"><g clip-path="url(#a)"><path fill="#0877B9" fill-rule="evenodd" d="M27.505 97.236c-.274 0-.513.023-.716.068a1.463 1.463 0 0 0-.508.208.888.888 0 0 0-.296.329c-.064.138-.096.289-.094.441 0 .284.09.511.27.68.183.166.437.25.762.25.257.002.51-.067.732-.198.227-.137.461-.341.711-.617v-1.161h-.861Zm27.905-2.398c-.257 0-.475.062-.654.186-.18.124-.33.29-.435.481a2.34 2.34 0 0 0-.244.675c-.05.254-.076.511-.075.77 0 .273.019.542.065.81.042.262.115.496.221.7.104.207.247.373.42.496.175.123.393.185.66.185.133 0 .26-.019.383-.054.136-.041.266-.103.384-.183a2.9 2.9 0 0 0 .408-.332c.161-.159.312-.327.451-.505v-2.191c-.273-.338-.537-.595-.791-.771a1.375 1.375 0 0 0-.793-.267Zm10.148-.023c-.3 0-.557.053-.771.16a1.407 1.407 0 0 0-.533.445c-.144.209-.249.44-.31.686-.07.284-.104.575-.1.867 0 .302.025.582.08.845.056.266.15.498.277.692.13.199.303.355.52.469.218.116.49.174.814.175.293 0 .549-.054.767-.16.219-.106.394-.253.534-.445.148-.204.253-.437.308-.683.068-.285.1-.578.098-.87a3.86 3.86 0 0 0-.084-.84 2.112 2.112 0 0 0-.273-.696 1.406 1.406 0 0 0-.515-.472c-.216-.114-.487-.172-.812-.173Zm-4.993-.754c.102 0 .185.003.25.01.053.007.104.02.153.04a.181.181 0 0 1 .078.057.155.155 0 0 1 .023.082v5.484a.133.133 0 0 1-.023.08.196.196 0 0 1-.078.059.79.79 0 0 1-.153.036c-.164.015-.329.015-.494 0a.782.782 0 0 1-.155-.036.156.156 0 0 1-.079-.058.156.156 0 0 1-.023-.081v-5.485a.179.179 0 0 1 .023-.081c.013-.022.04-.041.078-.058a.78.78 0 0 1 .157-.039 2.15 2.15 0 0 1 .243-.01Zm-13.021 0c.097 0 .178.003.242.01a.39.39 0 0 1 .156.036c.032.013.06.033.084.058a.156.156 0 0 1 .025.085v3.19c0 .322.022.579.068.772.04.176.113.343.214.493a.966.966 0 0 0 .36.317c.148.074.32.112.515.113.25 0 .5-.088.751-.267.25-.179.515-.441.797-.787v-3.832c0-.029.007-.057.02-.083a.188.188 0 0 1 .08-.058.392.392 0 0 1 .157-.038c.061-.005.146-.008.247-.008.098 0 .18.003.244.01a.39.39 0 0 1 .153.034.231.231 0 0 1 .081.059.126.126 0 0 1 .026.085v5.484a.156.156 0 0 1-.02.08.157.157 0 0 1-.075.059.78.78 0 0 1-.14.035 1.953 1.953 0 0 1-.447 0 .546.546 0 0 1-.14-.035.156.156 0 0 1-.073-.058.156.156 0 0 1-.015-.081v-.727c-.316.346-.625.595-.927.755a1.992 1.992 0 0 1-.926.238c-.366-.001-.674-.062-.924-.182a1.594 1.594 0 0 1-.606-.498 1.952 1.952 0 0 1-.331-.732 4.305 4.305 0 0 1-.1-1.011V94.25a.147.147 0 0 1 .02-.086.156.156 0 0 1 .083-.058.39.39 0 0 1 .158-.036c.066-.006.144-.01.243-.01Zm-28.073 0c.098 0 .18.003.244.01a.391.391 0 0 1 .157.036.23.23 0 0 1 .08.058.146.146 0 0 1 .024.085v3.19c0 .322.023.579.072.772.045.194.115.358.21.493.098.136.22.242.365.317.146.074.316.112.51.113.253 0 .505-.088.755-.267.247-.179.514-.441.794-.787v-3.832c0-.032.007-.06.022-.083a.157.157 0 0 1 .082-.058.392.392 0 0 1 .156-.038c.082-.007.164-.01.247-.008.094 0 .175.003.241.01a.39.39 0 0 1 .153.034c.03.015.06.035.084.059a.156.156 0 0 1 .025.085v5.484a.133.133 0 0 1-.022.08.157.157 0 0 1-.075.059.63.63 0 0 1-.141.035 1.877 1.877 0 0 1-.447 0 .625.625 0 0 1-.14-.035c-.036-.017-.058-.036-.067-.058a.156.156 0 0 1-.021-.081v-.727c-.311.346-.621.595-.927.755a1.966 1.966 0 0 1-.924.238c-.366-.001-.674-.062-.924-.182a1.641 1.641 0 0 1-.608-.498 2.03 2.03 0 0 1-.331-.732 4.46 4.46 0 0 1-.1-1.011V94.25a.15.15 0 0 1 .022-.086.187.187 0 0 1 .08-.058.39.39 0 0 1 .16-.036c.065-.006.146-.008.245-.008l-.001-.001Zm-7.773 0c.083-.001.167.002.25.01a.62.62 0 0 1 .15.04c.032.01.06.03.08.057a.155.155 0 0 1 .024.082v5.484a.133.133 0 0 1-.023.08.18.18 0 0 1-.08.059.78.78 0 0 1-.15.036 2.61 2.61 0 0 1-.494 0 .775.775 0 0 1-.157-.036.156.156 0 0 1-.078-.058.133.133 0 0 1-.023-.081v-5.485a.15.15 0 0 1 .023-.081.156.156 0 0 1 .078-.058.78.78 0 0 1 .157-.039 2.15 2.15 0 0 1 .243-.01Zm53.898-.088c.453 0 .847.068 1.181.202.323.124.61.325.836.586.225.255.39.566.504.933.111.365.166.777.166 1.236 0 .445-.058.856-.176 1.232a2.735 2.735 0 0 1-.526.973 2.39 2.39 0 0 1-.879.638 3.05 3.05 0 0 1-1.22.226c-.451 0-.845-.067-1.18-.2a2.11 2.11 0 0 1-.836-.587 2.5 2.5 0 0 1-.501-.93 4.297 4.297 0 0 1-.166-1.241c0-.45.059-.859.176-1.236.105-.356.284-.686.524-.97.238-.276.538-.494.875-.634.348-.153.758-.228 1.224-.228h-.002Zm-38.395 0c.395 0 .73.046 1.006.137.277.087.5.218.67.394.169.172.293.383.37.64.079.257.118.556.118.897v3.698c0 .05-.016.086-.049.109a.313.313 0 0 1-.133.054 1.173 1.173 0 0 1-.251.02 1.325 1.325 0 0 1-.253-.02.312.312 0 0 1-.137-.054c-.028-.023-.042-.06-.041-.109v-.55c-.23.249-.502.452-.805.6-.29.14-.61.212-.932.211-.29 0-.55-.036-.784-.114a1.679 1.679 0 0 1-.596-.325 1.405 1.405 0 0 1-.383-.524 1.717 1.717 0 0 1-.137-.706c0-.308.062-.578.189-.803.128-.233.314-.428.54-.569.266-.163.559-.277.866-.338a5.47 5.47 0 0 1 1.15-.11h.758v-.427c0-.212-.023-.4-.069-.562a.984.984 0 0 0-.214-.404.938.938 0 0 0-.387-.244c-.19-.06-.387-.09-.586-.085-.246 0-.471.034-.666.092a3.438 3.438 0 0 0-.52.196c-.147.068-.27.131-.372.19-.097.062-.17.093-.22.092-.03 0-.06-.01-.085-.027a.195.195 0 0 1-.065-.071.312.312 0 0 1-.04-.127.775.775 0 0 1-.013-.167.9.9 0 0 1 .024-.239.39.39 0 0 1 .1-.17c.055-.052.15-.113.283-.185.137-.071.289-.136.466-.195.187-.062.377-.11.57-.146.207-.039.418-.058.628-.059Zm-11.71 0c.146 0 .292.014.438.04.147.022.276.054.397.09.175.048.34.126.488.23a.355.355 0 0 1 .088.087.311.311 0 0 1 .03.084.963.963 0 0 1 .019.11c.008.115.008.23 0 .345a.392.392 0 0 1-.033.124c-.013.032-.029.058-.052.07a.124.124 0 0 1-.065.024c-.039 0-.091-.023-.158-.068a1.965 1.965 0 0 0-.267-.144 3.14 3.14 0 0 0-.388-.143 1.796 1.796 0 0 0-.51-.067 1.562 1.562 0 0 0-.45.058.86.86 0 0 0-.321.167.704.704 0 0 0-.25.567c-.001.157.039.29.12.398.081.11.187.205.318.285.128.079.276.152.442.218l.511.202c.172.069.342.146.51.231.17.086.32.188.45.308.13.125.233.271.311.44.079.172.122.375.122.612 0 .28-.053.53-.157.747a1.563 1.563 0 0 1-.442.556 1.953 1.953 0 0 1-.683.339 3.365 3.365 0 0 1-1.902-.045 2.344 2.344 0 0 1-.359-.147.94.94 0 0 1-.21-.136.328.328 0 0 1-.099-.17 1.483 1.483 0 0 1-.02-.494.788.788 0 0 1 .034-.128.156.156 0 0 1 .048-.07.155.155 0 0 1 .078-.02c.045 0 .112.026.2.082.086.054.193.114.32.179.128.065.28.126.456.182.173.051.375.08.601.08.17 0 .325-.018.463-.055.129-.03.251-.086.36-.163.1-.068.18-.16.234-.27a.86.86 0 0 0 .081-.39.648.648 0 0 0-.116-.39 1.17 1.17 0 0 0-.316-.28 2.81 2.81 0 0 0-.438-.218l-.501-.195a6.283 6.283 0 0 1-.508-.237 1.878 1.878 0 0 1-.44-.318 1.484 1.484 0 0 1-.315-.45 1.56 1.56 0 0 1-.116-.627 1.476 1.476 0 0 1 .497-1.138c.167-.148.375-.266.625-.355.282-.096.577-.142.875-.137Zm28.156-1.382c.1 0 .184.007.25.013.052.006.104.02.153.039a.2.2 0 0 1 .078.065c.016.023.025.05.025.078v1.305h1.406a.156.156 0 0 1 .088.023.156.156 0 0 1 .062.07c.022.04.035.085.039.13.009.056.013.12.012.196a.71.71 0 0 1-.055.319c-.036.065-.085.097-.146.097h-1.406v3.058c0 .378.056.663.167.854.114.193.312.29.602.29a1.26 1.26 0 0 0 .25-.026c.065-.017.129-.037.192-.058.05-.017.098-.036.145-.058a.266.266 0 0 1 .111-.027c.02 0 .04.005.058.014.02.013.036.034.043.058.03.096.042.197.04.299 0 .117-.008.21-.024.28a.313.313 0 0 1-.075.153.47.47 0 0 1-.146.09c-.072.031-.145.055-.22.072a2.333 2.333 0 0 1-.546.062 2.186 2.186 0 0 1-.734-.11 1.173 1.173 0 0 1-.497-.342 1.408 1.408 0 0 1-.283-.58 3.435 3.435 0 0 1-.088-.825v-3.203h-.766c-.063 0-.112-.033-.148-.098-.039-.066-.054-.173-.054-.32 0-.074.004-.139.013-.194a.776.776 0 0 1 .041-.13.156.156 0 0 1 .063-.072.156.156 0 0 1 .087-.023h.765v-1.304c0-.03.006-.055.019-.077a.195.195 0 0 1 .081-.067.626.626 0 0 1 .154-.039c.08-.008.162-.012.244-.012Zm-39.89-.628c.112 0 .202.004.27.01a.785.785 0 0 1 .155.032c.032.014.06.037.081.065a.469.469 0 0 1 .052.102l2.26 6.635h.008l2.197-6.623a.547.547 0 0 1 .042-.11.156.156 0 0 1 .086-.068.78.78 0 0 1 .172-.033c.198-.016.395-.014.592.007.072.01.12.03.146.058.03.03.039.069.033.124a1.029 1.029 0 0 1-.058.218l-2.57 7.32a.313.313 0 0 1-.068.112.312.312 0 0 1-.12.068.78.78 0 0 1-.196.032c-.097.007-.195.01-.292.01l-.238-.003a1.327 1.327 0 0 1-.295-.042.233.233 0 0 1-.09-.042.157.157 0 0 1-.058-.056.312.312 0 0 1-.039-.084L3.25 92.373a.78.78 0 0 1-.052-.218c0-.053.017-.094.051-.123a.39.39 0 0 1 .18-.055c.078-.009.188-.014.328-.014Zm35.524-.078a3.28 3.28 0 0 1 1.024.169c.157.05.297.108.42.17.121.062.202.113.243.153a.469.469 0 0 1 .074.09.775.775 0 0 1 .048.212c.003.048.005.111.006.189 0 .072-.003.136-.01.191a1.084 1.084 0 0 1-.024.146.195.195 0 0 1-.053.085.132.132 0 0 1-.079.026.502.502 0 0 1-.207-.084 6.274 6.274 0 0 0-.352-.193 3.124 3.124 0 0 0-.491-.195 2.192 2.192 0 0 0-.638-.087c-.216 0-.41.029-.571.088a1.095 1.095 0 0 0-.4.233.937.937 0 0 0-.238.349 1.17 1.17 0 0 0-.081.425c0 .22.051.41.153.567.1.16.236.3.406.42.17.123.36.233.576.338l.657.305c.223.104.442.218.657.341.217.124.41.271.575.44.17.172.31.373.41.594.104.231.156.503.156.814 0 .37-.068.7-.205.99a2.108 2.108 0 0 1-.566.733 2.423 2.423 0 0 1-.855.454 3.6 3.6 0 0 1-1.057.152c-.264 0-.508-.023-.733-.069a3.913 3.913 0 0 1-.604-.163 3.128 3.128 0 0 1-.442-.2 1.092 1.092 0 0 1-.25-.176.43.43 0 0 1-.105-.186 1.095 1.095 0 0 1-.033-.303c0-.09.004-.163.011-.22.007-.05.02-.1.038-.147a.158.158 0 0 1 .058-.075.189.189 0 0 1 .088-.019c.057 0 .138.033.243.101.1.07.232.147.396.228.161.08.357.156.588.227.258.076.527.111.797.108.212 0 .419-.03.62-.092.178-.055.344-.144.488-.26.137-.11.243-.247.317-.413.076-.174.113-.363.11-.553a1.04 1.04 0 0 0-.153-.572 1.563 1.563 0 0 0-.403-.416 3.36 3.36 0 0 0-.57-.328l-.653-.306a7.035 7.035 0 0 1-.654-.345 2.737 2.737 0 0 1-.566-.446 2.11 2.11 0 0 1-.407-.598 2.031 2.031 0 0 1-.153-.827c0-.328.06-.622.18-.88.12-.257.286-.473.498-.648.227-.181.486-.317.764-.4.309-.094.63-.14.952-.137Zm21.29-.085c.234 0 .397.04.485.125.087.083.13.24.13.47 0 .238-.044.399-.132.482-.092.088-.255.13-.495.13-.234 0-.396-.042-.485-.127-.088-.08-.13-.24-.13-.471 0-.235.045-.395.133-.482.09-.084.256-.127.494-.127Zm-48.866 0c.233 0 .396.04.485.125.085.083.128.24.129.47 0 .238-.045.399-.133.482-.091.088-.256.131-.494.13-.238 0-.397-.042-.484-.127-.089-.08-.13-.24-.13-.471 0-.234.041-.397.132-.482.089-.084.254-.127.495-.127Zm45.786-.377c.102 0 .185.004.25.014a.82.82 0 0 1 .154.035c.032.013.06.035.08.062a.155.155 0 0 1 .031.085v8.115c0 .029-.009.058-.023.083a.156.156 0 0 1-.072.059.78.78 0 0 1-.14.033c-.14.017-.28.017-.42 0a.792.792 0 0 1-.14-.033.187.187 0 0 1-.077-.059.156.156 0 0 1-.026-.083v-.727c-.258.29-.562.538-.899.733-.308.173-.648.26-1.02.26-.4 0-.745-.078-1.028-.234a1.913 1.913 0 0 1-.693-.635 2.812 2.812 0 0 1-.386-.936 5.162 5.162 0 0 1-.121-1.14 4.91 4.91 0 0 1 .15-1.273c.103-.381.253-.703.452-.973.193-.263.447-.476.74-.618.32-.15.668-.224 1.02-.218.307-.003.61.07.882.211.294.164.56.372.79.618V91.62c0-.03.006-.059.018-.085a.156.156 0 0 1 .082-.062c.129-.04.26-.056.396-.049Zm-25.518-.025c.102 0 .184.003.248.012a.468.468 0 0 1 .152.037.18.18 0 0 1 .082.06.156.156 0 0 1 .023.087v8.14a.133.133 0 0 1-.023.08.236.236 0 0 1-.082.059.627.627 0 0 1-.152.036 2.586 2.586 0 0 1-.491 0 .775.775 0 0 1-.157-.036.187.187 0 0 1-.08-.058.156.156 0 0 1-.02-.081v-8.142a.19.19 0 0 1 .02-.084c.019-.03.047-.051.08-.062a.627.627 0 0 1 .157-.036c.08-.01.162-.014.243-.012Zm56.016 3.44c-.257 0-.475.062-.654.186-.18.124-.33.29-.435.481a2.34 2.34 0 0 0-.245.675c-.05.254-.075.511-.074.77 0 .273.019.542.065.81.041.262.115.496.22.7.105.208.244.373.42.496.175.123.394.185.658.185.136 0 .263-.02.387-.054.135-.043.263-.104.38-.183.13-.084.267-.195.41-.332.142-.137.293-.305.452-.505v-2.191c-.273-.338-.537-.595-.791-.771a1.382 1.382 0 0 0-.792-.266h-.001Zm-6.488-.023c-.3 0-.557.053-.77.16a1.406 1.406 0 0 0-.534.445 2.03 2.03 0 0 0-.31.686 3.45 3.45 0 0 0-.1.867c0 .301.026.583.08.845.057.266.149.497.277.692.13.199.304.355.52.469.219.116.489.174.81.175.297-.001.553-.054.771-.159.211-.103.394-.255.533-.445.14-.19.243-.417.31-.684a4.064 4.064 0 0 0 .012-1.71 2.107 2.107 0 0 0-.273-.696 1.365 1.365 0 0 0-.515-.472c-.216-.114-.49-.173-.811-.173Zm12.837-.055a1.405 1.405 0 0 0-1.126.51 1.72 1.72 0 0 0-.297.54 2.348 2.348 0 0 0-.115.645h2.991c.014-.528-.103-.942-.351-1.242-.247-.303-.614-.453-1.102-.453Zm.052-.787c.433 0 .797.072 1.099.209.288.127.544.319.75.559.193.23.336.507.427.82.093.328.139.667.137 1.008v.186c0 .156-.04.268-.12.336a.413.413 0 0 1-.27.099H92.8c0 .305.031.579.094.823.06.245.161.454.305.628s.33.308.556.402c.229.094.508.141.84.14.417.002.832-.069 1.226-.207a5 5 0 0 0 .367-.143.626.626 0 0 1 .219-.063c.029 0 .055.007.078.02.023.017.04.04.052.066.011.038.02.077.025.116.013.108.014.217.004.325a.775.775 0 0 1-.018.105.273.273 0 0 1-.083.149.781.781 0 0 1-.199.11c-.137.063-.28.113-.426.15a6.24 6.24 0 0 1-.605.13 4.69 4.69 0 0 1-.735.059c-.452 0-.846-.063-1.184-.188a2.235 2.235 0 0 1-.858-.56 2.452 2.452 0 0 1-.524-.934 4.36 4.36 0 0 1-.175-1.304 4.17 4.17 0 0 1 .181-1.269c.11-.351.29-.678.527-.96.23-.259.514-.464.833-.6a2.735 2.735 0 0 1 1.09-.212Zm-12.85 0c.452 0 .846.068 1.18.202.321.125.609.326.835.586.226.255.391.566.506.933.11.364.165.777.165 1.236 0 .446-.058.857-.174 1.232-.106.358-.286.69-.529.973-.24.277-.54.495-.878.638a3.048 3.048 0 0 1-1.218.226c-.454 0-.847-.067-1.181-.2a2.109 2.109 0 0 1-.836-.587 2.5 2.5 0 0 1-.501-.93 4.294 4.294 0 0 1-.167-1.241c0-.45.059-.859.177-1.236.105-.356.283-.686.523-.97.238-.276.538-.494.875-.634.348-.152.755-.227 1.224-.227h-.001Zm-6.046-2.068c.227 0 .448.02.663.062.218.042.417.096.6.162.18.066.343.14.486.225.143.084.242.155.297.21.04.038.075.08.104.125.02.031.033.065.041.1.037.176.044.356.02.534a.547.547 0 0 1-.036.143.194.194 0 0 1-.057.085.117.117 0 0 1-.082.029c-.059 0-.137-.04-.242-.12a3.901 3.901 0 0 0-.393-.26 3.124 3.124 0 0 0-.588-.265 2.653 2.653 0 0 0-.83-.117c-.35 0-.67.07-.96.209a2.03 2.03 0 0 0-.737.618c-.218.301-.379.64-.475.999a4.92 4.92 0 0 0-.17 1.343c.001.498.055.939.163 1.324.111.383.264.705.466.962.204.257.452.452.745.586.295.13.627.196.997.197.316 0 .59-.039.824-.116.209-.066.41-.152.601-.258.14-.079.275-.165.406-.26.108-.078.191-.117.25-.117.027 0 .053.007.076.02.023.018.038.04.048.068a.644.644 0 0 1 .03.143 5.426 5.426 0 0 1 .003.404.777.777 0 0 1-.023.126.311.311 0 0 1-.04.098.547.547 0 0 1-.083.104c-.08.07-.165.133-.257.186a2.883 2.883 0 0 1-.485.244 3.905 3.905 0 0 1-1.483.283 3.596 3.596 0 0 1-1.386-.254 2.812 2.812 0 0 1-1.053-.758c-.293-.332-.514-.74-.67-1.232-.159-.489-.234-1.055-.234-1.692 0-.654.08-1.236.25-1.747.15-.475.39-.917.71-1.3.299-.35.673-.629 1.095-.814a3.437 3.437 0 0 1 1.409-.28Zm14.578-.482c.083-.002.166.003.249.014a.781.781 0 0 1 .152.036c.032.013.06.034.082.06a.157.157 0 0 1 .03.087v8.114c-.002.029-.01.058-.023.083a.157.157 0 0 1-.075.059.784.784 0 0 1-.137.033c-.14.017-.28.017-.419 0a.79.79 0 0 1-.14-.033.196.196 0 0 1-.079-.059.156.156 0 0 1-.025-.083v-.727a3.75 3.75 0 0 1-.898.733 2.068 2.068 0 0 1-1.021.26c-.401 0-.744-.078-1.028-.234a1.921 1.921 0 0 1-.692-.635 2.808 2.808 0 0 1-.388-.936 5.15 5.15 0 0 1-.12-1.14c0-.47.05-.894.15-1.273.104-.381.254-.703.452-.973a1.99 1.99 0 0 1 .742-.618c.318-.15.666-.224 1.017-.218.322.001.615.071.88.211.296.163.564.371.792.62v-3.185c.001-.03.008-.058.02-.085.012-.027.041-.046.081-.061.051-.016.103-.028.156-.036.065-.01.143-.014.242-.014Z" clip-rule="evenodd"/><mask id="b" width="86" height="85" x="7" y="0" maskUnits="userSpaceOnUse" style="mask-type:alpha"><path fill="#fff" fill-rule="evenodd" d="M67.645 83.8a5.253 5.253 0 0 0 4.185-.162l17.372-8.36a5.273 5.273 0 0 0 2.986-4.751V13.848a5.274 5.274 0 0 0-2.986-4.752L71.83.736a5.25 5.25 0 0 0-5.993 1.022L32.58 32.098 18.096 21.102a3.512 3.512 0 0 0-4.487.2l-4.646 4.226a3.516 3.516 0 0 0-.004 5.199l12.562 11.46L8.96 53.648a3.516 3.516 0 0 0 .004 5.2l4.646 4.226a3.511 3.511 0 0 0 4.486.2l14.486-10.997 33.255 30.34c.514.516 1.13.918 1.809 1.182Zm3.461-60.766L45.874 42.188 71.106 61.34V23.034Z" clip-rule="evenodd"/></mask><g mask="url(#b)"><path fill="#0065A9" d="M92.88 9.476 74.352.555a5.603 5.603 0 0 0-6.39 1.086L7.306 56.943a3.746 3.746 0 0 0 .005 5.541l4.954 4.505a3.746 3.746 0 0 0 4.786.212l73.04-55.41c2.45-1.86 5.97-.112 5.97 2.964v-.215a5.62 5.62 0 0 0-3.182-5.064Z"/><g filter="url(#c)"><path fill="#007ACC" d="m92.88 79.981-18.528 8.921a5.603 5.603 0 0 1-6.39-1.086L7.306 32.514a3.747 3.747 0 0 1 .005-5.54l4.954-4.505a3.747 3.747 0 0 1 4.786-.212l73.04 55.41c2.45 1.86 5.97.111 5.97-2.964v.215a5.62 5.62 0 0 1-3.182 5.063Z"/></g><g filter="url(#d)"><path fill="#1F9CF0" d="M74.353 88.904a5.603 5.603 0 0 1-6.392-1.088c2.074 2.074 5.62.606 5.62-2.328V3.97c0-2.933-3.546-4.402-5.62-2.328A5.604 5.604 0 0 1 74.353.553l18.524 8.909a5.62 5.62 0 0 1 3.185 5.065V74.93a5.62 5.62 0 0 1-3.185 5.065l-18.524 8.908Z"/></g><path fill="url(#e)" fill-rule="evenodd" d="M69.852 89.075a5.594 5.594 0 0 0 4.46-.17l18.513-8.91a5.62 5.62 0 0 0 3.182-5.064V14.527a5.62 5.62 0 0 0-3.182-5.065L74.312.553a5.595 5.595 0 0 0-6.388 1.088L32.482 33.976l-15.437-11.72a3.742 3.742 0 0 0-4.783.214l-4.951 4.504a3.748 3.748 0 0 0-.004 5.54L20.695 44.73 7.307 56.943a3.746 3.746 0 0 0 .004 5.541l4.951 4.505a3.743 3.743 0 0 0 4.782.212l15.438-11.719 35.442 32.334a5.58 5.58 0 0 0 1.927 1.26Zm3.688-64.76L46.65 44.729l26.892 20.413V24.316l-.002-.001Z" clip-rule="evenodd" opacity=".25"/></g></g><defs><filter id="c" width="103.855" height="81.84" x="-.854" y="14.556" color-interpolation-filters="sRGB" filterUnits="userSpaceOnUse"><feFlood flood-opacity="0" result="BackgroundImageFix"/><feColorMatrix in="SourceAlpha" result="hardAlpha" values="0 0 0 0 0 0 0 0 0 0 0 0 0 0 0 0 0 0 127 0"/><feOffset/><feGaussianBlur stdDeviation="3.469"/><feColorMatrix values="0 0 0 0 0 0 0 0 0 0 0 0 0 0 0 0 0 0 0.25 0"/><feBlend in2="BackgroundImageFix" mode="overlay" result="effect1_dropShadow_0_244"/><feBlend in="SourceGraphic" in2="effect1_dropShadow_0_244" result="shape"/></filter><filter id="d" width="41.978" height="103.336" x="61.023" y="-6.939" color-interpolation-filters="sRGB" filterUnits="userSpaceOnUse"><feFlood flood-opacity="0" result="BackgroundImageFix"/><feColorMatrix in="SourceAlpha" result="hardAlpha" values="0 0 0 0 0 0 0 0 0 0 0 0 0 0 0 0 0 0 127 0"/><feOffset/><feGaussianBlur stdDeviation="3.469"/><feColorMatrix values="0 0 0 0 0 0 0 0 0 0 0 0 0 0 0 0 0 0 0.25 0"/><feBlend in2="BackgroundImageFix" mode="overlay" result="effect1_dropShadow_0_244"/><feBlend in="SourceGraphic" in2="effect1_dropShadow_0_244" result="shape"/></filter><linearGradient id="e" x1="51.046" x2="51.046" y1="-.001" y2="89.458" gradientUnits="userSpaceOnUse"><stop stop-color="#fff"/><stop offset="1" stop-color="#fff" stop-opacity="0"/></linearGradient><clipPath id="a"><path fill="#fff" d="M0 0h100v100H0z"/></clipPath></defs></svg>