<svg width="100" height="100" viewBox="0 0 100 100" fill="none" xmlns="http://www.w3.org/2000/svg">
<g clip-path="url(#clip0_0_244)">
<path fill-rule="evenodd" clip-rule="evenodd" d="M27.5046 97.2359C27.2306 97.2359 26.9921 97.2586 26.789 97.3039C26.5843 97.3492 26.4147 97.4211 26.2812 97.5117C26.1569 97.5945 26.0546 97.707 25.9851 97.8406C25.9211 97.9789 25.8891 98.1297 25.8913 98.282C25.8918 98.5664 25.9819 98.793 26.1616 98.9617C26.3444 99.1284 26.5981 99.2117 26.9226 99.2117C27.1804 99.2141 27.4335 99.1453 27.6554 99.0141C27.8819 98.8773 28.1163 98.6727 28.3663 98.3969V97.2359H27.5046ZM55.4101 94.8383C55.1533 94.8383 54.9353 94.9003 54.7561 95.0242C54.5756 95.1485 54.4265 95.3133 54.321 95.5055C54.2053 95.7166 54.1228 95.9442 54.0765 96.1805C54.0261 96.4336 54.001 96.6911 54.0015 96.9492C54.0015 97.2227 54.021 97.4922 54.0671 97.7594C54.1088 98.0224 54.1824 98.2562 54.2882 98.4609C54.3921 98.6672 54.5351 98.8328 54.7077 98.9555C54.8827 99.0789 55.1007 99.1414 55.3679 99.1414C55.5007 99.1404 55.6283 99.1221 55.7507 99.0867C55.8873 99.0456 56.0169 98.984 56.1351 98.9039C56.2808 98.8058 56.4173 98.6947 56.5429 98.5719C56.7043 98.4135 56.8549 98.2453 56.9944 98.0672V95.8758C56.721 95.5378 56.4572 95.2807 56.203 95.1047C55.9727 94.936 55.6955 94.8423 55.4101 94.8383ZM65.5577 94.8148C65.2582 94.8148 65.0012 94.8682 64.7866 94.975C64.5746 95.0766 64.3914 95.2297 64.2538 95.4203C64.1101 95.6285 64.0051 95.8609 63.9436 96.1062C63.8733 96.3898 63.8405 96.6812 63.8444 96.9727C63.8444 97.275 63.8686 97.5547 63.9249 97.818C63.9796 98.0836 64.0749 98.3156 64.2015 98.5102C64.3306 98.7086 64.5041 98.8648 64.7218 98.9789C64.939 99.0951 65.2101 99.1534 65.5351 99.1539C65.8278 99.1534 66.0835 99.1003 66.3022 98.9945C66.521 98.8875 66.696 98.7406 66.8358 98.5492C66.9836 98.3447 67.0886 98.1125 67.1444 97.8664C67.2116 97.581 67.2444 97.2885 67.2421 96.9953C67.2421 96.6984 67.2171 96.4188 67.1585 96.1555C67.1094 95.9093 67.0168 95.6738 66.8851 95.4602C66.7559 95.2621 66.5788 95.0998 66.3702 94.9883C66.1541 94.8737 65.8832 94.8159 65.5577 94.8148ZM60.5655 94.0609C60.6666 94.0609 60.7499 94.0643 60.8155 94.0711C60.8677 94.0776 60.9189 94.0908 60.9679 94.1102C60.9996 94.1227 61.0257 94.1419 61.046 94.168C61.0613 94.1926 61.0694 94.221 61.0694 94.25V99.7336C61.0705 99.7622 61.0623 99.7905 61.046 99.8141C61.0253 99.8399 60.9985 99.8601 60.9679 99.8727C60.9184 99.8897 60.8674 99.9017 60.8155 99.9086C60.6509 99.9242 60.4861 99.9242 60.321 99.9086C60.2681 99.9022 60.216 99.8904 60.1655 99.8734C60.1339 99.8628 60.1065 99.8422 60.0874 99.8148C60.0723 99.7904 60.0642 99.7623 60.064 99.7336V94.2492C60.0652 94.2207 60.0732 94.1928 60.0874 94.168C60.1004 94.1461 60.1265 94.1268 60.1655 94.1102C60.2161 94.0918 60.2685 94.0787 60.3218 94.0711C60.3869 94.0638 60.4681 94.0604 60.5655 94.0609ZM47.5437 94.0609C47.641 94.0609 47.7218 94.0643 47.7858 94.0711C47.8398 94.0721 47.8931 94.0844 47.9421 94.107C47.9739 94.12 48.0024 94.1397 48.0257 94.1648C48.0421 94.1902 48.0508 94.2198 48.0507 94.25V97.4406C48.0507 97.762 48.0733 98.019 48.1187 98.2117C48.1593 98.388 48.2319 98.5553 48.3327 98.7055C48.4265 98.8414 48.5468 98.9469 48.6937 99.0219C48.841 99.0964 49.0124 99.1341 49.2077 99.1352C49.4577 99.1357 49.7082 99.0466 49.9593 98.868C50.2082 98.6893 50.4739 98.4268 50.7562 98.0805V94.2492C50.7558 94.2202 50.7625 94.1915 50.7757 94.1656C50.7971 94.1394 50.8251 94.1194 50.8569 94.1078C50.9059 94.0846 50.9591 94.0719 51.0132 94.0703C51.0741 94.0648 51.1593 94.0617 51.2601 94.0617C51.358 94.0617 51.4392 94.0648 51.5038 94.0711C51.5567 94.0723 51.6088 94.0843 51.6569 94.1063C51.6882 94.1198 51.7153 94.1393 51.7382 94.1648C51.7569 94.1891 51.7661 94.2194 51.764 94.25V99.7336C51.7648 99.7617 51.7581 99.7895 51.7444 99.8141C51.7261 99.8409 51.6999 99.8614 51.6694 99.8727C51.6238 99.8887 51.5767 99.9005 51.5288 99.9078C51.3803 99.9249 51.2304 99.9249 51.0819 99.9078C51.0337 99.9026 50.9865 99.8911 50.9413 99.8734C50.912 99.8616 50.8869 99.8412 50.8694 99.8148C50.857 99.7897 50.8516 99.7616 50.8538 99.7336V99.007C50.5382 99.3531 50.2288 99.6023 49.9272 99.7625C49.6423 99.9157 49.3242 99.9973 49.0007 100C48.6345 99.999 48.3265 99.9383 48.0765 99.818C47.8364 99.7051 47.6283 99.534 47.471 99.3203C47.3109 99.1017 47.1981 98.8521 47.1397 98.5875C47.0666 98.2557 47.033 97.9163 47.0397 97.5766V94.25C47.0387 94.2161 47.0457 94.1875 47.0608 94.1641C47.0811 94.1363 47.1099 94.116 47.1429 94.1063C47.1926 94.083 47.2466 94.0705 47.3015 94.0695C47.3671 94.0641 47.4452 94.0609 47.5437 94.0609ZM19.471 94.0609C19.5694 94.0609 19.6509 94.0643 19.7155 94.0711C19.7695 94.0721 19.8227 94.0844 19.8718 94.107C19.903 94.1206 19.9298 94.1398 19.9522 94.1648C19.9689 94.1909 19.9767 94.2193 19.9757 94.25V97.4406C19.9752 97.762 19.9991 98.019 20.0476 98.2117C20.0929 98.4055 20.1632 98.5701 20.2585 98.7055C20.3559 98.8414 20.4772 98.9469 20.6226 99.0219C20.7694 99.0964 20.9395 99.1341 21.1327 99.1352C21.3864 99.1357 21.6382 99.0466 21.8882 98.868C22.1351 98.6891 22.4022 98.4266 22.6819 98.0805V94.2492C22.6814 94.2169 22.6887 94.1891 22.7038 94.1656C22.7241 94.1379 22.7529 94.1175 22.7858 94.1078C22.8348 94.0846 22.888 94.0719 22.9421 94.0703C23.0239 94.063 23.1062 94.0602 23.189 94.0617C23.2832 94.0617 23.3637 94.0648 23.4304 94.0711C23.483 94.0724 23.5348 94.0844 23.5827 94.1063C23.6139 94.121 23.6424 94.1408 23.6671 94.1648C23.6835 94.1902 23.6922 94.2198 23.6921 94.25V99.7336C23.6936 99.7621 23.686 99.7903 23.6702 99.8141C23.6519 99.8409 23.6257 99.8614 23.5952 99.8727C23.5496 99.8898 23.5022 99.9016 23.4538 99.9078C23.3054 99.9256 23.1554 99.9256 23.0069 99.9078C22.9589 99.9018 22.9117 99.8903 22.8663 99.8734C22.8309 99.8562 22.8088 99.8367 22.7999 99.8148C22.7856 99.7902 22.7783 99.7621 22.7788 99.7336V99.007C22.4679 99.3531 22.1577 99.6023 21.8522 99.7625C21.5694 99.9164 21.2507 99.9977 20.928 100C20.5624 99.999 20.2543 99.9383 20.0038 99.818C19.7639 99.7037 19.5553 99.533 19.396 99.3203C19.2378 99.1006 19.1252 98.8514 19.0647 98.5875C18.993 98.2554 18.9594 97.9163 18.9647 97.5766V94.25C18.9642 94.2161 18.9715 94.1875 18.9866 94.1641C19.008 94.1378 19.0361 94.1178 19.0679 94.1063C19.1178 94.0829 19.1721 94.0704 19.2272 94.0695C19.2918 94.0643 19.3733 94.0617 19.4718 94.0617L19.471 94.0609ZM11.6976 94.0609C11.7813 94.0598 11.865 94.0632 11.9483 94.0711C11.9998 94.0778 12.0502 94.091 12.0983 94.1102C12.1301 94.1215 12.1579 94.1415 12.1788 94.168C12.1941 94.1926 12.2022 94.221 12.2022 94.25V99.7336C12.2033 99.7622 12.1951 99.7905 12.1788 99.8141C12.158 99.8408 12.1301 99.8611 12.0983 99.8727C12.0496 99.8896 11.9994 99.9016 11.9483 99.9086C11.7838 99.9242 11.6192 99.9242 11.4546 99.9086C11.4014 99.9023 11.3491 99.8905 11.2983 99.8734C11.2667 99.8628 11.2393 99.8422 11.2202 99.8148C11.2038 99.791 11.1955 99.7625 11.1968 99.7336V94.2492C11.1968 94.2201 11.2046 94.193 11.2202 94.168C11.2394 94.1409 11.2668 94.1206 11.2983 94.1102C11.3489 94.0918 11.4013 94.0787 11.4546 94.0711C11.5197 94.0638 11.6009 94.0604 11.6983 94.0609H11.6976ZM65.596 93.9734C66.0491 93.9734 66.4429 94.0406 66.7772 94.175C67.0997 94.2989 67.3867 94.5001 67.6132 94.7609C67.8382 95.0164 68.003 95.3266 68.1171 95.6937C68.228 96.0589 68.2835 96.4708 68.2835 96.9297C68.2835 97.3755 68.2246 97.7865 68.1069 98.1625C67.9997 98.5191 67.8208 98.8501 67.5811 99.1352C67.341 99.4123 67.0402 99.6304 66.7022 99.7727C66.3507 99.9242 65.9442 99.9997 65.4827 99.9992C65.0306 99.9987 64.6371 99.9318 64.3022 99.7984C63.9798 99.6745 63.6928 99.4733 63.4663 99.2125C63.2348 98.9419 63.0638 98.6249 62.9647 98.2828C62.8491 97.8791 62.7933 97.4606 62.7991 97.0406C62.7991 96.5914 62.8577 96.182 62.9749 95.8047C63.08 95.4487 63.2586 95.1187 63.4991 94.8359C63.7373 94.5589 64.0369 94.3414 64.3741 94.2008C64.7218 94.0484 65.1319 93.9734 65.5976 93.9734H65.596ZM27.2015 93.9734C27.5963 93.9734 27.9314 94.019 28.2069 94.1102C28.484 94.1971 28.7075 94.3284 28.8772 94.5039C29.046 94.6758 29.1702 94.8867 29.2476 95.1445C29.3257 95.4008 29.3647 95.6997 29.3647 96.0414V99.7391C29.3647 99.7885 29.3486 99.8247 29.3163 99.8477C29.2769 99.8759 29.2314 99.8947 29.1835 99.9023C29.1006 99.9179 29.0162 99.9244 28.9319 99.9219C28.8471 99.9235 28.7624 99.9169 28.6788 99.9023C28.6295 99.8953 28.5827 99.8765 28.5421 99.8477C28.514 99.8247 28.5002 99.7885 28.5007 99.7391V99.1898C28.2717 99.4375 27.9989 99.6407 27.696 99.7891C27.4052 99.9287 27.0866 100.001 26.764 100C26.4741 100 26.2147 99.9641 25.9796 99.8859C25.7611 99.8192 25.5586 99.7086 25.3843 99.5609C25.2175 99.4184 25.0864 99.2389 25.0015 99.0367C24.9064 98.8139 24.8596 98.5735 24.864 98.3312C24.864 98.0234 24.9257 97.7531 25.053 97.5281C25.1812 97.2953 25.3671 97.1 25.5921 96.9594C25.8587 96.7965 26.152 96.682 26.4585 96.6211C26.8371 96.5436 27.2228 96.5064 27.6093 96.5102H28.3671V96.0844C28.3671 95.8719 28.3442 95.6844 28.2983 95.5219C28.2594 95.3722 28.1858 95.2339 28.0835 95.118C27.9767 95.0061 27.8438 94.9223 27.6968 94.8742C27.5075 94.8136 27.3095 94.7849 27.1108 94.7891C26.8647 94.7891 26.6397 94.8227 26.4452 94.8812C26.2668 94.9322 26.0928 94.9975 25.9249 95.0766C25.778 95.1448 25.6541 95.2083 25.553 95.2672C25.4556 95.3292 25.3822 95.3596 25.3327 95.3586C25.3024 95.3582 25.2728 95.349 25.2476 95.332C25.2204 95.3141 25.1981 95.2897 25.1827 95.2609C25.1608 95.222 25.1475 95.1789 25.1437 95.1344C25.1332 95.0793 25.1288 95.0232 25.1304 94.9672C25.1304 94.868 25.1366 94.7859 25.1538 94.7281C25.1721 94.664 25.2066 94.6056 25.2538 94.5586C25.309 94.5065 25.4033 94.4448 25.5366 94.3734C25.6741 94.3016 25.8257 94.2367 26.003 94.1781C26.1896 94.1164 26.3801 94.0676 26.5733 94.032C26.7805 93.9933 26.9907 93.9737 27.2015 93.9734ZM15.4905 93.9734C15.6369 93.9734 15.783 93.9865 15.9288 94.0125C16.0757 94.0352 16.2054 94.0672 16.3265 94.1031C16.5011 94.1511 16.666 94.2291 16.814 94.3336C16.8483 94.357 16.8778 94.3857 16.9022 94.4195C16.9159 94.4461 16.9256 94.4745 16.9312 94.5039C16.9384 94.5325 16.945 94.569 16.9507 94.6133C16.9585 94.7289 16.9585 94.8443 16.9507 94.9594C16.9466 95.002 16.9355 95.0437 16.9179 95.0828C16.9054 95.1148 16.889 95.1406 16.8655 95.1539C16.8465 95.1676 16.8241 95.1758 16.8007 95.1773C16.7621 95.1773 16.7095 95.1544 16.6429 95.1086C16.5579 95.0539 16.4689 95.0058 16.3765 94.9648C16.2503 94.9087 16.1206 94.8609 15.9882 94.8219C15.8222 94.7751 15.6504 94.7525 15.478 94.7547C15.326 94.752 15.1744 94.7714 15.028 94.8125C14.9103 94.8448 14.8009 94.9018 14.7069 94.9797C14.6261 95.0473 14.5615 95.1322 14.5179 95.2281C14.4752 95.3289 14.4542 95.4375 14.4562 95.5469C14.4556 95.7036 14.496 95.8362 14.5772 95.9445C14.658 96.0544 14.764 96.1495 14.8952 96.2297C15.0233 96.3089 15.1707 96.3818 15.3374 96.4484L15.8483 96.65C16.0202 96.7187 16.1903 96.7958 16.3585 96.8813C16.5278 96.9667 16.6778 97.0693 16.8085 97.1891C16.9377 97.3135 17.0413 97.4602 17.1194 97.6289C17.1976 97.8008 17.2405 98.0039 17.2405 98.2406C17.2405 98.5214 17.1884 98.7706 17.0843 98.9883C16.9816 99.2052 16.8302 99.3955 16.6421 99.5445C16.4389 99.701 16.2069 99.816 15.9593 99.8828C15.6756 99.9628 15.3821 100.002 15.0874 100C14.896 100 14.7069 99.9836 14.5312 99.9539C14.3703 99.9275 14.2117 99.8886 14.0569 99.8375C13.9336 99.7988 13.8136 99.7499 13.6983 99.6914C13.6222 99.6555 13.5513 99.6095 13.4874 99.5547C13.4381 99.5095 13.4037 99.4504 13.389 99.3852C13.3548 99.2226 13.3482 99.0554 13.3694 98.8906C13.377 98.8473 13.3883 98.8047 13.403 98.7633C13.4123 98.7358 13.4291 98.7115 13.4515 98.693C13.475 98.6796 13.5017 98.6726 13.5288 98.6727C13.5741 98.6721 13.6408 98.6995 13.7288 98.7547C13.8153 98.8089 13.9223 98.8685 14.0499 98.9336C14.177 98.9992 14.3285 99.0599 14.5046 99.1156C14.678 99.1672 14.8796 99.1961 15.1062 99.1961C15.2765 99.1961 15.4306 99.1779 15.5687 99.1414C15.6976 99.1102 15.8202 99.0555 15.9288 98.9781C16.0288 98.91 16.1096 98.8171 16.1632 98.7086C16.2205 98.5866 16.2484 98.4527 16.2444 98.318C16.2485 98.1789 16.2076 98.0422 16.128 97.9281C16.0404 97.8165 15.9332 97.7217 15.8116 97.6484C15.6724 97.5632 15.526 97.4903 15.3741 97.4305L14.8726 97.2352C14.6998 97.1636 14.5304 97.0844 14.3647 96.9977C14.2038 96.9135 14.0559 96.8064 13.9257 96.6797C13.7934 96.5506 13.6863 96.398 13.6101 96.2297C13.5286 96.0311 13.489 95.8178 13.4937 95.6031C13.4889 95.3886 13.531 95.1757 13.6169 94.9791C13.7029 94.7825 13.8306 94.607 13.9913 94.4648C14.158 94.3174 14.3663 94.1992 14.6163 94.1102C14.8977 94.0145 15.1934 93.9683 15.4905 93.9734ZM43.6468 92.5906C43.7468 92.5906 43.8312 92.5984 43.8968 92.6039C43.9493 92.6104 44.0007 92.6235 44.0499 92.643C44.0812 92.6576 44.1072 92.6792 44.128 92.7078C44.1444 92.7306 44.1531 92.7579 44.153 92.7859V94.0906H45.5593C45.5901 94.0896 45.6206 94.0978 45.6468 94.1141C45.674 94.1306 45.6956 94.1552 45.7085 94.1844C45.7309 94.2245 45.7443 94.269 45.7476 94.3148C45.7569 94.3695 45.7611 94.4346 45.7601 94.5102C45.7595 94.6565 45.7413 94.7628 45.7054 94.8289C45.6689 94.8935 45.6202 94.9258 45.5593 94.9258H44.153V97.9836C44.153 98.3622 44.2088 98.6471 44.3202 98.8383C44.4335 99.0305 44.6319 99.1281 44.9218 99.1281C45.0129 99.1271 45.0963 99.1185 45.1718 99.1023C45.2365 99.0849 45.3005 99.0653 45.364 99.0437C45.4133 99.0269 45.4618 99.0076 45.5093 98.9859C45.5439 98.9692 45.5817 98.9601 45.6202 98.9594C45.64 98.9594 45.6593 98.9638 45.678 98.9727C45.6989 98.986 45.7142 99.0066 45.721 99.0305C45.7501 99.1274 45.7633 99.2285 45.7601 99.3297C45.7606 99.4469 45.7528 99.5401 45.7366 99.6094C45.7265 99.6663 45.7008 99.7193 45.6624 99.7625C45.6195 99.8018 45.5697 99.8328 45.5155 99.8539C45.4444 99.8844 45.3707 99.9082 45.2952 99.925C45.2068 99.9426 45.118 99.9579 45.0288 99.9711C44.936 99.9819 44.8426 99.9871 44.7491 99.9867C44.5004 99.9922 44.2526 99.9552 44.0163 99.8773C43.8237 99.8086 43.6524 99.6906 43.5194 99.5352C43.3812 99.3665 43.2842 99.1681 43.2358 98.9555C43.1731 98.6848 43.1435 98.4075 43.1476 98.1297V94.9266H42.3819C42.3194 94.9266 42.2702 94.894 42.2343 94.8289C42.1952 94.7633 42.1796 94.6562 42.1796 94.5094C42.1791 94.4349 42.1835 94.3701 42.1929 94.3148C42.2029 94.2705 42.2167 94.2271 42.2343 94.1852C42.2471 94.1553 42.269 94.1301 42.2968 94.1133C42.323 94.097 42.3534 94.0888 42.3843 94.0898H43.1491V92.7859C43.1491 92.7568 43.1554 92.731 43.1679 92.7086C43.1884 92.6795 43.2165 92.6565 43.2491 92.6422C43.2986 92.6227 43.3503 92.6095 43.403 92.6031C43.4838 92.5948 43.565 92.5906 43.6468 92.5906ZM3.75615 91.9633C3.86865 91.9633 3.95876 91.9667 4.02646 91.9734C4.07921 91.9786 4.1313 91.989 4.18193 92.0047C4.21427 92.0191 4.24228 92.0417 4.26318 92.0703C4.28444 92.1019 4.30175 92.1361 4.31475 92.1719L6.57568 98.807H6.58271L8.78037 92.1844C8.79012 92.146 8.804 92.1088 8.82178 92.0734C8.84142 92.0414 8.87193 92.0176 8.90772 92.0062C8.96357 91.9886 9.02122 91.9774 9.07959 91.9727C9.27751 91.957 9.4749 91.9594 9.67178 91.9797C9.74365 91.9896 9.79235 92.0091 9.81787 92.0383C9.84756 92.068 9.85693 92.107 9.85146 92.1617C9.84001 92.2367 9.82048 92.3096 9.79287 92.3805L7.22334 99.7008C7.20872 99.7421 7.18556 99.7799 7.15537 99.8117C7.12062 99.8432 7.07923 99.8664 7.03428 99.8797C6.97083 99.8989 6.9052 99.9099 6.83896 99.9125C6.74172 99.9193 6.64426 99.9224 6.54678 99.9219L6.30928 99.9188C6.2096 99.9161 6.11054 99.9022 6.01396 99.8773C5.98162 99.8698 5.95126 99.8554 5.9249 99.8352C5.90075 99.8219 5.88054 99.8025 5.86631 99.7789C5.84922 99.7531 5.83606 99.725 5.82725 99.6953L3.24912 92.3734C3.22129 92.3037 3.20366 92.2303 3.19678 92.1555C3.19678 92.1018 3.21396 92.0607 3.24834 92.032C3.30282 91.9992 3.36451 91.9801 3.42803 91.9766C3.50615 91.9682 3.61553 91.9633 3.75615 91.9633ZM39.2812 91.8852C39.6296 91.8867 39.9757 91.9438 40.3054 92.0539C40.4616 92.1031 40.6022 92.1617 40.7257 92.2234C40.8465 92.2859 40.9272 92.337 40.9679 92.3766C40.9963 92.4035 41.0212 92.434 41.0421 92.4672C41.0567 92.4932 41.066 92.5216 41.0702 92.5523C41.0802 92.5939 41.0867 92.6363 41.0897 92.6789C41.0934 92.7273 41.0955 92.7904 41.096 92.868C41.096 92.9398 41.0929 93.0036 41.0866 93.0594C41.0816 93.1083 41.0732 93.1569 41.0616 93.2047C41.0516 93.2372 41.0333 93.2666 41.0085 93.2898C40.9858 93.3065 40.9585 93.3155 40.9304 93.3156C40.889 93.3156 40.8163 93.2875 40.7226 93.232C40.6075 93.164 40.4902 93.0996 40.371 93.0391C40.213 92.9602 40.0486 92.8948 39.8796 92.8437C39.6725 92.7836 39.4577 92.7544 39.2421 92.757C39.0257 92.757 38.8327 92.7859 38.671 92.8453C38.5226 92.8935 38.3862 92.9729 38.271 93.0781C38.1661 93.1746 38.0846 93.2938 38.0327 93.4266C37.9794 93.5622 37.9518 93.7066 37.9515 93.8523C37.9515 94.0711 38.003 94.2625 38.1046 94.4188C38.2051 94.5786 38.3405 94.7185 38.5108 94.8383C38.6804 94.9617 38.8718 95.0719 39.0866 95.1766C39.3007 95.2766 39.52 95.3784 39.7444 95.482C39.9668 95.5862 40.1856 95.7 40.4007 95.8234C40.6184 95.9474 40.8103 96.094 40.9765 96.2633C41.1468 96.4352 41.2858 96.6359 41.3858 96.857C41.49 97.0883 41.5421 97.3596 41.5421 97.6711C41.5421 98.0409 41.4736 98.3706 41.3366 98.6602C41.2049 98.9439 41.0117 99.1947 40.771 99.3945C40.5192 99.6016 40.2283 99.7557 39.9155 99.8477C39.5727 99.9508 39.2165 100.002 38.8585 100C38.595 100 38.3509 99.9771 38.1265 99.9313C37.9209 99.8931 37.7186 99.8385 37.5218 99.768C37.3697 99.7128 37.2221 99.646 37.0804 99.568C36.9889 99.5214 36.9045 99.4623 36.8296 99.3922C36.7796 99.34 36.7436 99.276 36.7249 99.2063C36.6999 99.1072 36.6888 99.0052 36.6921 98.9031C36.6921 98.8135 36.6957 98.7401 36.703 98.6828C36.7098 98.6325 36.7226 98.5832 36.7413 98.5359C36.7524 98.5056 36.7726 98.4794 36.7991 98.4609C36.8266 98.4476 36.8569 98.4412 36.8874 98.4422C36.9442 98.4411 37.0249 98.4747 37.1296 98.543C37.2296 98.6138 37.3616 98.6898 37.5257 98.7711C37.6871 98.8513 37.8832 98.9268 38.114 98.9977C38.3718 99.0742 38.6413 99.1094 38.9108 99.1055C39.1228 99.106 39.3299 99.0755 39.5319 99.0141C39.7093 98.9586 39.8746 98.8704 40.0194 98.7539C40.1564 98.6445 40.2619 98.507 40.3358 98.3414C40.4118 98.1668 40.4494 97.9779 40.446 97.7875C40.4513 97.5863 40.3981 97.3879 40.2929 97.2164C40.1856 97.0537 40.0489 96.9124 39.8897 96.8C39.7111 96.6723 39.5203 96.5624 39.3202 96.4719L38.6671 96.1656C38.4432 96.0623 38.225 95.9473 38.0132 95.8211C37.8055 95.698 37.6151 95.548 37.4468 95.375C37.2779 95.2004 37.1405 94.9979 37.0405 94.7766C36.9324 94.5147 36.8802 94.2332 36.8874 93.95C36.8869 93.6219 36.9468 93.3284 37.0671 93.0695C37.1869 92.8128 37.3528 92.5969 37.5647 92.4219C37.7915 92.2409 38.0509 92.1051 38.3288 92.0219C38.6378 91.9285 38.9584 91.8824 39.2812 91.8852ZM60.571 91.8C60.8054 91.8 60.9679 91.8391 61.0562 91.925C61.1431 92.0083 61.1866 92.1651 61.1866 92.3953C61.1861 92.6333 61.1418 92.7938 61.0538 92.8766C60.9616 92.9648 60.7991 93.0078 60.5585 93.0078C60.3246 93.0078 60.1632 92.9654 60.0741 92.8805C59.9858 92.7992 59.9444 92.6398 59.9444 92.4086C59.9444 92.1742 59.9887 92.0138 60.0772 91.9273C60.1679 91.843 60.3325 91.8005 60.571 91.8ZM11.7054 91.8C11.9382 91.8 12.1015 91.8391 12.1897 91.925C12.2752 92.0083 12.3181 92.1651 12.3187 92.3953C12.3187 92.6333 12.2744 92.7938 12.1858 92.8766C12.0947 92.9646 11.9301 93.0083 11.6921 93.0078C11.4538 93.0078 11.2952 92.9648 11.2077 92.8805C11.1194 92.7992 11.0772 92.6398 11.0772 92.4086C11.0772 92.175 11.1194 92.0125 11.2101 91.9273C11.2986 91.843 11.4642 91.8005 11.7054 91.8ZM57.4913 91.4234C57.5929 91.4229 57.6762 91.4273 57.7413 91.4367C57.8069 91.4466 57.8582 91.4583 57.8952 91.4719C57.9273 91.4849 57.9551 91.5065 57.9757 91.5344C57.9939 91.5589 58.0045 91.5883 58.0061 91.6188V99.7336C58.0053 99.763 57.9972 99.7917 57.9827 99.8172C57.9652 99.8435 57.9402 99.864 57.9108 99.8758C57.8654 99.8913 57.8185 99.9025 57.771 99.9094C57.6317 99.9265 57.4908 99.9265 57.3515 99.9094C57.3037 99.9025 57.2566 99.8913 57.2108 99.8758C57.1806 99.8633 57.1543 99.8431 57.1343 99.8172C57.1176 99.7924 57.1084 99.7634 57.1077 99.7336V99.007C56.8499 99.2977 56.546 99.5453 56.2093 99.7398C55.9009 99.9128 55.5608 99.9995 55.189 100C54.7897 100 54.4436 99.9219 54.1608 99.7656C53.8807 99.615 53.6426 99.397 53.4679 99.1312C53.2836 98.8449 53.1528 98.5276 53.0819 98.1945C52.9994 97.8205 52.9588 97.4385 52.9608 97.0555C52.9598 96.5857 53.0098 96.1612 53.1108 95.782C53.214 95.4008 53.364 95.0789 53.5632 94.8094C53.7556 94.5455 54.01 94.3331 54.3038 94.1906C54.6223 94.0412 54.9708 93.9669 55.3226 93.9734C55.6297 93.9704 55.9328 94.0428 56.2054 94.1844C56.4992 94.3477 56.7655 94.5562 56.9944 94.8023V91.6188C56.9944 91.5885 57.0007 91.5602 57.0132 91.5336C57.0328 91.5044 57.0617 91.4826 57.0952 91.4719C57.2239 91.4323 57.3559 91.4161 57.4913 91.4234ZM31.9733 91.3977C32.0749 91.3971 32.1575 91.4013 32.221 91.4102C32.2735 91.4138 32.325 91.4262 32.3733 91.4469C32.4057 91.459 32.4339 91.4801 32.4546 91.5078C32.4706 91.5336 32.4787 91.5634 32.478 91.5937V99.7336C32.4791 99.7622 32.4709 99.7905 32.4546 99.8141C32.432 99.8392 32.4043 99.8592 32.3733 99.8727C32.3243 99.891 32.2731 99.903 32.221 99.9086C32.0569 99.9242 31.8931 99.9242 31.7296 99.9086C31.6764 99.9023 31.6241 99.8905 31.5733 99.8734C31.5414 99.8616 31.5134 99.8414 31.4921 99.8148C31.4783 99.79 31.4716 99.7619 31.4726 99.7336V91.5922C31.4726 91.5625 31.4791 91.5344 31.4921 91.5078C31.5115 91.4787 31.5401 91.457 31.5733 91.4461C31.6237 91.4275 31.6762 91.4154 31.7296 91.4102C31.8104 91.3996 31.8919 91.3955 31.9733 91.3977ZM87.989 94.8383C87.7317 94.8383 87.5137 94.9003 87.3351 95.0242C87.1545 95.1485 87.0055 95.3133 86.8999 95.5055C86.7842 95.7166 86.7017 95.9442 86.6554 96.1805C86.6053 96.4336 86.5804 96.6911 86.5811 96.9492C86.5811 97.2227 86.5999 97.4922 86.646 97.7594C86.6871 98.0224 86.7606 98.2562 86.8663 98.4609C86.9705 98.6677 87.1103 98.8326 87.2858 98.9555C87.4608 99.0789 87.6801 99.1409 87.9436 99.1414C88.0804 99.1414 88.2069 99.1211 88.3312 99.0867C88.4655 99.0438 88.5944 98.9828 88.7116 98.9039C88.8413 98.8195 88.9778 98.7089 89.121 98.5719C89.2632 98.4349 89.414 98.2667 89.5733 98.0672V95.8758C89.2999 95.5378 89.0361 95.2807 88.7819 95.1047C88.5516 94.9366 88.2749 94.8438 87.9897 94.8391L87.989 94.8383ZM81.5007 94.8148C81.2007 94.8148 80.9439 94.8682 80.7304 94.975C80.518 95.0765 80.3346 95.2296 80.1968 95.4203C80.0518 95.6277 79.9469 95.8603 79.8874 96.1062C79.8171 96.3898 79.7835 96.6812 79.7866 96.9727C79.7861 97.2742 79.8132 97.556 79.8679 97.818C79.9241 98.0841 80.016 98.3148 80.1436 98.5102C80.2739 98.7086 80.4476 98.8648 80.6647 98.9789C80.883 99.0951 81.153 99.1534 81.4749 99.1539C81.7707 99.1529 82.0275 99.1 82.2452 98.9953C82.4564 98.8924 82.6393 98.7395 82.778 98.55C82.9176 98.3609 83.021 98.1331 83.0882 97.8664C83.1554 97.5812 83.1882 97.2883 83.1858 96.9953C83.1864 96.7131 83.1576 96.4317 83.0999 96.1555C83.0511 95.9093 82.9588 95.6739 82.8272 95.4602C82.6992 95.2608 82.5215 95.0982 82.3116 94.9883C82.096 94.8742 81.8226 94.8148 81.5007 94.8148ZM94.3382 94.7602C94.1121 94.7566 93.8882 94.8047 93.6835 94.9008C93.5017 94.9889 93.341 95.1152 93.2124 95.2711C93.0817 95.4317 92.9812 95.6146 92.9155 95.8109C92.8471 96.0191 92.8082 96.2358 92.7999 96.4547H95.7913C95.8048 95.9266 95.6877 95.5125 95.4397 95.2125C95.1934 94.9104 94.8262 94.7596 94.3382 94.7602ZM94.3897 93.9734C94.8226 93.9734 95.1866 94.0453 95.489 94.182C95.7772 94.3094 96.0335 94.5008 96.239 94.7406C96.4319 94.9719 96.5749 95.2484 96.6663 95.5609C96.7585 95.8891 96.8046 96.2281 96.803 96.5688V96.7547C96.8035 96.9109 96.7634 97.0232 96.6827 97.0914C96.6073 97.1555 96.5114 97.1904 96.4124 97.1898H92.7999C92.7999 97.4945 92.8311 97.7688 92.8936 98.0125C92.9535 98.2578 93.0554 98.4672 93.1991 98.6406C93.3429 98.8151 93.5283 98.9492 93.7554 99.043C93.9835 99.1372 94.2632 99.1841 94.5944 99.1836C95.0121 99.1846 95.4269 99.1143 95.821 98.9758C95.9715 98.9227 96.0939 98.875 96.1882 98.8328C96.2567 98.7988 96.3308 98.7776 96.4069 98.7703C96.4356 98.7703 96.4616 98.7768 96.4851 98.7898C96.5079 98.8066 96.5257 98.8293 96.5366 98.8555C96.5482 98.8936 96.5568 98.9325 96.5624 98.9719C96.5749 99.0802 96.5759 99.1885 96.5655 99.2969C96.5622 99.3321 96.5564 99.3671 96.5483 99.4016C96.5371 99.459 96.5079 99.5113 96.4647 99.5508C96.4044 99.5972 96.3375 99.6346 96.2663 99.6617C96.1288 99.7241 95.9861 99.7743 95.8397 99.8117C95.6404 99.8649 95.4386 99.9082 95.2351 99.9414C94.9919 99.9802 94.7461 99.9998 94.4999 100C94.0483 100 93.6538 99.9375 93.3163 99.8125C92.9906 99.6948 92.6966 99.5031 92.4577 99.2523C92.2165 98.9832 92.0378 98.6642 91.9343 98.318C91.8171 97.943 91.7585 97.5125 91.7585 97.0141C91.7595 96.5427 91.8202 96.1198 91.9405 95.7453C92.0499 95.3938 92.2296 95.0672 92.4671 94.7859C92.6968 94.5263 92.9812 94.3208 93.2999 94.1844C93.6449 94.0403 94.0159 93.9685 94.3897 93.9734ZM81.5397 93.9734C81.9923 93.9734 82.3856 94.0406 82.7194 94.175C83.0413 94.3 83.3288 94.5008 83.5554 94.7609C83.7812 95.0164 83.946 95.3266 84.0608 95.6937C84.1707 96.0583 84.2259 96.4706 84.2265 96.9305C84.2265 97.3763 84.1681 97.787 84.0515 98.1625C83.9457 98.5202 83.7657 98.8516 83.5233 99.1352C83.2836 99.4124 82.9831 99.6305 82.6452 99.7727C82.2937 99.9242 81.8874 99.9997 81.4265 99.9992C80.9733 99.9992 80.5798 99.9323 80.246 99.7984C79.9236 99.6745 79.6365 99.4733 79.4101 99.2125C79.1786 98.9419 79.0076 98.6249 78.9085 98.2828C78.7926 97.8791 78.7365 97.4606 78.7421 97.0406C78.7421 96.5914 78.8007 96.182 78.9186 95.8047C79.0235 95.4488 79.2019 95.1187 79.4421 94.8359C79.6803 94.5589 79.9799 94.3414 80.3171 94.2008C80.6645 94.0492 81.0723 93.9737 81.5405 93.9742L81.5397 93.9734ZM75.4937 91.9047C75.7213 91.9042 75.9424 91.925 76.1569 91.9672C76.3746 92.0094 76.5744 92.0633 76.7561 92.1289C76.9374 92.1945 77.0996 92.2695 77.2429 92.3539C77.3861 92.4383 77.4851 92.5086 77.5397 92.5648C77.5796 92.6016 77.6145 92.6433 77.6437 92.6891C77.6632 92.72 77.6773 92.7541 77.6851 92.7898C77.7223 92.965 77.7292 93.1452 77.7054 93.3227C77.6999 93.3717 77.6878 93.4198 77.6694 93.4656C77.6581 93.4987 77.6382 93.5281 77.6116 93.5508C77.589 93.5706 77.5596 93.5809 77.5296 93.5797C77.471 93.5797 77.3929 93.5406 77.2882 93.4602C77.1625 93.3656 77.0313 93.2787 76.8952 93.2C76.7088 93.0917 76.5116 93.0029 76.3069 92.9352C76.0383 92.8524 75.7583 92.8129 75.4772 92.818C75.1262 92.818 74.8064 92.8875 74.5179 93.0266C74.2257 93.1706 73.9725 93.3828 73.7796 93.6453C73.562 93.9464 73.4012 94.2848 73.3054 94.6437C73.187 95.0814 73.1297 95.5334 73.1351 95.9867C73.1361 96.4846 73.1905 96.926 73.2983 97.3109C73.4093 97.6937 73.5616 98.0156 73.764 98.2734C73.9681 98.5297 74.2163 98.7247 74.5085 98.8586C74.8038 98.9893 75.1364 99.0552 75.5061 99.0562C75.8218 99.0562 76.0963 99.0174 76.3296 98.9398C76.539 98.8742 76.7395 98.7883 76.9312 98.682C77.0707 98.6034 77.2061 98.5169 77.3374 98.4227C77.4452 98.3445 77.5285 98.3055 77.5874 98.3055C77.6139 98.3054 77.64 98.3122 77.6632 98.325C77.6856 98.3427 77.7015 98.3654 77.7108 98.393C77.7265 98.4398 77.7366 98.4875 77.7413 98.5359C77.7444 98.5984 77.7463 98.6763 77.7468 98.7695C77.7468 98.8352 77.746 98.8919 77.7444 98.9398C77.7401 98.9826 77.7323 99.0249 77.721 99.0664C77.7136 99.1009 77.7004 99.134 77.6819 99.1641C77.6584 99.202 77.6303 99.2369 77.5983 99.268C77.5189 99.3386 77.4326 99.4009 77.3405 99.4539C77.1871 99.5502 77.0249 99.6318 76.8561 99.6977C76.6412 99.7844 76.419 99.8519 76.1921 99.8992C75.9228 99.955 75.6484 99.9823 75.3733 99.9805C74.8991 99.9881 74.4281 99.9018 73.9874 99.7266C73.5818 99.5596 73.2209 99.3001 72.9335 98.9687C72.6413 98.6367 72.4202 98.2281 72.2632 97.7367C72.1054 97.2484 72.0304 96.682 72.0304 96.0453C72.0304 95.3914 72.1108 94.8094 72.2804 94.2984C72.4299 93.8228 72.6708 93.3809 72.9897 92.9977C73.2887 92.6473 73.6632 92.3692 74.0851 92.1844C74.5297 91.993 75.0097 91.8977 75.4937 91.9047ZM90.0718 91.4234C90.1551 91.4212 90.2384 91.4257 90.321 91.4367C90.3728 91.4436 90.4239 91.4556 90.4733 91.4727C90.5051 91.4858 90.5331 91.5067 90.5546 91.5336C90.5728 91.5587 90.5831 91.5886 90.5843 91.6195V99.7336C90.5834 99.7628 90.5756 99.7915 90.5616 99.8172C90.5433 99.844 90.5171 99.8645 90.4866 99.8758C90.4421 99.8911 90.3964 99.9023 90.3499 99.9094C90.2108 99.9264 90.0702 99.9264 89.9312 99.9094C89.8833 99.9025 89.8363 99.8913 89.7905 99.8758C89.7599 99.8632 89.7331 99.843 89.7124 99.8172C89.6963 99.7923 89.6876 99.7633 89.6874 99.7336V99.007C89.4277 99.2964 89.1246 99.5436 88.789 99.7398C88.4767 99.9132 88.125 100.003 87.7679 100C87.3668 100 87.0241 99.9219 86.7397 99.7656C86.4601 99.6146 86.2223 99.3967 86.0476 99.1312C85.8627 98.8451 85.7314 98.5277 85.6601 98.1945C85.578 97.8205 85.5379 97.4384 85.5405 97.0555C85.54 96.5857 85.5897 96.1612 85.6897 95.782C85.7944 95.4008 85.9436 95.0789 86.1421 94.8094C86.3351 94.5453 86.589 94.3328 86.8835 94.1906C87.2017 94.0413 87.55 93.967 87.9015 93.9734C88.2228 93.974 88.5163 94.0443 88.7819 94.1844C89.0774 94.3466 89.3446 94.5555 89.5733 94.8031V91.6188C89.5742 91.5894 89.5806 91.5606 89.5921 91.5336C89.6046 91.507 89.6343 91.4883 89.6741 91.4727C89.7253 91.4569 89.7775 91.4449 89.8304 91.4367C89.8952 91.4266 89.9733 91.4234 90.0718 91.4234Z" fill="#0877B9"/>
<mask id="mask0_0_244" style="mask-type:alpha" maskUnits="userSpaceOnUse" x="7" y="0" width="86" height="85">
<path fill-rule="evenodd" clip-rule="evenodd" d="M67.6446 83.7992C68.9727 84.3164 70.4883 84.2836 71.8298 83.6383L89.2016 75.2789C90.0963 74.8482 90.8511 74.1737 91.3793 73.333C91.9076 72.4922 92.1877 71.5195 92.1876 70.5266V13.8484C92.1877 12.8555 91.9076 11.8828 91.3793 11.042C90.8511 10.2013 90.0963 9.52679 89.2016 9.0961L71.8298 0.73672C70.8483 0.264185 69.7442 0.108615 68.6704 0.291568C67.5966 0.474522 66.6064 0.98694 65.8368 1.75781L32.5805 32.0977L18.0962 21.1016C17.4426 20.6054 16.636 20.3537 15.8163 20.3902C14.9965 20.4268 14.2155 20.7492 13.6087 21.3016L8.96257 25.5281C8.60055 25.8573 8.31125 26.2585 8.11316 26.7059C7.91507 27.1533 7.81257 27.6372 7.8122 28.1265C7.81183 28.6158 7.91361 29.0998 8.11102 29.5475C8.30844 29.9952 8.59714 30.3968 8.95866 30.7266L21.5212 42.1875L8.95866 53.6484C8.59702 53.9782 8.30821 54.3798 8.11071 54.8276C7.91322 55.2754 7.8114 55.7595 7.81177 56.2489C7.81214 56.7383 7.91468 57.2223 8.11285 57.6698C8.31101 58.1173 8.60043 58.5184 8.96257 58.8477L13.6087 63.0742C14.2155 63.6263 14.9965 63.9484 15.816 63.9848C16.6356 64.0212 17.442 63.7695 18.0954 63.2734L32.5805 52.2773L65.836 82.6172C66.3501 83.1327 66.9661 83.5353 67.6446 83.7992ZM71.1063 23.0336L45.8735 42.1875L71.1063 61.3414V23.0336Z" fill="white"/>
</mask>
<g mask="url(#mask0_0_244)">
<path d="M92.8798 9.47619L74.3517 0.554785C73.3053 0.0514422 72.1283 -0.114367 70.9835 0.0802827C69.8387 0.274932 68.7827 0.820424 67.9614 1.64134L7.3075 56.9433C6.92208 57.2947 6.61428 57.7227 6.4038 58.2C6.19333 58.6772 6.08481 59.1931 6.08521 59.7147C6.0856 60.2363 6.19489 60.752 6.40608 61.2289C6.61727 61.7059 6.92571 62.1334 7.31166 62.4843L12.2657 66.9887C12.9131 67.5774 13.7461 67.9209 14.6202 67.9596C15.4944 67.9984 16.3545 67.73 17.0515 67.201L90.0922 11.7908C92.5426 9.93163 96.062 11.6793 96.062 14.7549V14.5401C96.062 13.4821 95.7634 12.4455 95.2004 11.5497C94.6375 10.6539 93.8331 9.93515 92.8798 9.47619Z" fill="#0065A9"/>
<g filter="url(#filter0_d_0_244)">
<path d="M92.8798 79.9815L74.3517 88.9021C73.3053 89.4056 72.1284 89.5715 70.9836 89.377C69.8389 89.1825 68.7828 88.6372 67.9614 87.8164L7.3075 32.5145C6.92208 32.1631 6.61428 31.735 6.4038 31.2578C6.19333 30.7806 6.08481 30.2647 6.08521 29.7431C6.0856 29.2215 6.19489 28.7057 6.40608 28.2288C6.61727 27.7519 6.92571 27.3243 7.31166 26.9735L12.2657 22.4691C12.9131 21.8804 13.7461 21.5369 14.6202 21.4981C15.4944 21.4593 16.3545 21.7277 17.0515 22.2567L90.0922 77.6669C92.5426 79.5261 96.062 77.7785 96.062 74.7028V74.9176C96.062 75.9757 95.7634 77.0122 95.2004 77.908C94.6375 78.8039 93.8331 79.5226 92.8798 79.9815Z" fill="#007ACC"/>
</g>
<g filter="url(#filter1_d_0_244)">
<path d="M74.3525 88.9038C73.3059 89.4072 72.1287 89.573 70.9838 89.3782C69.8388 89.1834 68.7827 88.6376 67.9614 87.8164C70.0346 89.8904 73.5815 88.4217 73.5815 85.4884V3.96931C73.5815 1.03603 70.0346 -0.432691 67.9614 1.64134C68.7826 0.81997 69.8387 0.274057 70.9836 0.0791043C72.1286 -0.115849 73.3058 0.0497924 74.3525 0.553118L92.8773 9.46204C93.8312 9.9207 94.6362 10.6394 95.1996 11.5354C95.763 12.4314 96.0619 13.4684 96.062 14.5268V74.9309C96.0619 75.9894 95.763 77.0263 95.1996 77.9223C94.6362 78.8183 93.8312 79.537 92.8773 79.9957L74.3525 88.9038Z" fill="#1F9CF0"/>
</g>
<path opacity="0.25" fill-rule="evenodd" clip-rule="evenodd" d="M69.8515 89.0753C70.5669 89.3545 71.3321 89.4834 72.0994 89.454C72.8668 89.4246 73.6199 89.2376 74.3118 88.9046L92.8249 79.9957C93.7783 79.5367 94.5828 78.8178 95.1458 77.9218C95.7087 77.0258 96.0073 75.9891 96.0071 74.9309V14.5268C96.0073 13.4686 95.7087 12.4319 95.1458 11.5359C94.5828 10.6399 93.7783 9.92105 92.8249 9.46204L74.3118 0.553118C73.2658 0.0493269 72.0889 -0.116574 70.9444 0.0784111C69.7998 0.273396 68.7443 0.81961 67.9241 1.64134L32.4824 33.9757L17.045 22.2567C16.3485 21.7279 15.4888 21.4597 14.6152 21.4987C13.7415 21.5376 12.9091 21.8812 12.2625 22.4699L7.31093 26.9743C6.92511 27.3252 6.61679 27.7527 6.40568 28.2295C6.19457 28.7063 6.08532 29.222 6.08493 29.7435C6.08454 30.265 6.19301 30.7808 6.4034 31.2579C6.6138 31.7351 6.92148 32.1631 7.30676 32.5145L20.6951 44.7289L7.30676 56.9433C6.92134 57.2947 6.61355 57.7227 6.40307 58.1999C6.1926 58.6772 6.08408 59.1931 6.08447 59.7147C6.08487 60.2363 6.19416 60.752 6.40535 61.2289C6.61654 61.7059 6.92498 62.1334 7.31093 62.4843L12.2625 66.9887C12.9092 67.577 13.7415 67.9204 14.6149 67.9592C15.4884 67.9979 16.3478 67.7297 17.0441 67.201L32.4824 55.482L67.9241 87.8164C68.4718 88.3654 69.1288 88.7942 69.8515 89.0753ZM73.54 24.315L46.6492 44.7289L73.5417 65.142V24.3158L73.54 24.315Z" fill="url(#paint0_linear_0_244)"/>
</g>
</g>
<defs>
<filter id="filter0_d_0_244" x="-0.853761" y="14.5555" width="103.855" height="81.8397" filterUnits="userSpaceOnUse" color-interpolation-filters="sRGB">
<feFlood flood-opacity="0" result="BackgroundImageFix"/>
<feColorMatrix in="SourceAlpha" type="matrix" values="0 0 0 0 0 0 0 0 0 0 0 0 0 0 0 0 0 0 127 0" result="hardAlpha"/>
<feOffset/>
<feGaussianBlur stdDeviation="3.46948"/>
<feColorMatrix type="matrix" values="0 0 0 0 0 0 0 0 0 0 0 0 0 0 0 0 0 0 0.25 0"/>
<feBlend mode="overlay" in2="BackgroundImageFix" result="effect1_dropShadow_0_244"/>
<feBlend mode="normal" in="SourceGraphic" in2="effect1_dropShadow_0_244" result="shape"/>
</filter>
<filter id="filter1_d_0_244" x="61.0225" y="-6.93937" width="41.9785" height="103.336" filterUnits="userSpaceOnUse" color-interpolation-filters="sRGB">
<feFlood flood-opacity="0" result="BackgroundImageFix"/>
<feColorMatrix in="SourceAlpha" type="matrix" values="0 0 0 0 0 0 0 0 0 0 0 0 0 0 0 0 0 0 127 0" result="hardAlpha"/>
<feOffset/>
<feGaussianBlur stdDeviation="3.46948"/>
<feColorMatrix type="matrix" values="0 0 0 0 0 0 0 0 0 0 0 0 0 0 0 0 0 0 0.25 0"/>
<feBlend mode="overlay" in2="BackgroundImageFix" result="effect1_dropShadow_0_244"/>
<feBlend mode="normal" in="SourceGraphic" in2="effect1_dropShadow_0_244" result="shape"/>
</filter>
<linearGradient id="paint0_linear_0_244" x1="51.0462" y1="-0.0005668" x2="51.0462" y2="89.4583" gradientUnits="userSpaceOnUse">
<stop stop-color="white"/>
<stop offset="1" stop-color="white" stop-opacity="0"/>
</linearGradient>
<clipPath id="clip0_0_244">
<rect width="100" height="100" fill="white"/>
</clipPath>
</defs>
</svg>
