<svg xmlns="http://www.w3.org/2000/svg" width="102" height="100" fill="none"><g clip-path="url(#a)"><path fill="#35495E" d="M25.652 76.526c-.299-.001-.591.085-.84.247-.255.165-.487.449-.487.813 0 .048-.03.156.067.344l-.025-.06 5.108 16.248c.091.305.31.538.558.672.247.134.516.183.779.183.558 0 1.171-.26 1.359-.85v-.001l5.103-16.309v-.06c0 .084.024.036.024-.142 0-.371-.24-.644-.5-.815a1.591 1.591 0 0 0-.877-.27c-.39 0-.838.232-.988.674l-.003.005-4.12 13.48-4.135-13.456a.918.918 0 0 0-.419-.554 1.175 1.175 0 0 0-.604-.15Zm40.685.837c-.813 0-1.499.611-1.499 1.375s.675 1.396 1.499 1.396c.808 0 1.45-.643 1.45-1.396 0-.752-.654-1.375-1.45-1.375ZM54.36 82.565c-2.78 0-5.069 2.181-5.069 4.802v2.686c0 1.468.597 2.727 1.61 3.595 1.012.868 2.426 1.349 4.046 1.349 1.197 0 2.173-.263 2.87-.62.35-.179.629-.378.836-.596.207-.22.359-.458.359-.756 0-.274-.107-.511-.282-.724-.174-.213-.447-.41-.801-.41-.255 0-.451.106-.621.208-.17.102-.33.215-.521.324-.384.216-.893.427-1.791.427-1.001 0-1.835-.28-2.41-.75-.574-.469-.909-1.121-.909-1.976v-.497h5.128c.548 0 1.156 0 1.682-.328.526-.33.844-.984.844-1.979 0-2.757-2.346-4.755-4.97-4.755Zm19.274 0c-1.478 0-2.565.469-3.263 1.173-.698.705-1 1.622-1 2.478 0 1.093.451 1.875 1.095 2.376.645.502 1.446.755 2.209.98.763.225 1.493.426 1.983.722.49.297.753.616.753 1.292 0 .363-.112.652-.412.888-.302.237-.837.423-1.708.423-1.03 0-1.606-.25-2.026-.503-.21-.128-.379-.26-.553-.378-.173-.118-.371-.245-.648-.245-.332 0-.577.2-.726.409-.151.204-.233.449-.235.7 0 .317.157.595.38.836.223.242.523.457.893.644.739.375 1.756.637 2.964.637 1.313 0 2.392-.314 3.156-.924.763-.609 1.18-1.514 1.18-2.558 0-1.18-.438-2.028-1.082-2.588-.645-.56-1.458-.85-2.232-1.083-.774-.231-1.519-.413-2.017-.667-.498-.255-.733-.49-.733-1.032 0-.293.12-.661.423-.953.304-.29.8-.526 1.623-.526.659 0 1.148.149 1.54.305.196.079.366.161.527.23.162.068.311.135.525.135.386 0 .652-.25.81-.482.157-.232.248-.461.248-.724 0-.328-.208-.56-.438-.734a3.245 3.245 0 0 0-.855-.434 7.276 7.276 0 0 0-2.381-.397Zm-34.949.145c-.646 0-1.205.398-1.205.99v6.4c0 2.597 2.252 4.897 5.044 4.897 2.746 0 5.045-2.274 5.045-4.897v-6.424c0-.296-.166-.553-.385-.716a1.325 1.325 0 0 0-.796-.25c-.301 0-.58.086-.804.246-.223.16-.401.414-.401.72V90.1c0 1.36-1.21 2.678-2.659 2.678-1.471 0-2.657-1.34-2.657-2.678v-6.4c0-.308-.171-.544-.383-.712a1.285 1.285 0 0 0-.799-.278Zm27.652 0c-.302 0-.581.077-.804.242a.916.916 0 0 0-.375.724v11.793c0 .886-.064 1.628-.262 2.078-.198.45-.432.648-1.1.648-.59 0-1.084.506-1.084 1.111 0 .251.083.528.293.742.21.215.535.343.912.343 1.27 0 2.243-.553 2.821-1.45.58-.897.805-2.097.805-3.472V83.677c0-.307-.178-.575-.406-.732a1.391 1.391 0 0 0-.8-.234Zm-12.001 1.932c1.586 0 2.658 1.303 2.658 2.63a.925.925 0 0 1-.032.281c-.014.043-.013.038-.035.053-.044.028-.29.09-.758.09h-4.492v-.521c0-1.388 1.184-2.533 2.659-2.533Zm7.58 7.32a1.52 1.52 0 0 0-1.524 1.518c0 .78.647 1.493 1.524 1.493.83 0 1.498-.69 1.498-1.493 0-.834-.68-1.517-1.498-1.517ZM25.025.308l15.722.004 10.276 16.725L61.263.315 76.973.31l-25.87 43.994L25.025.308Z"/><path fill="#41B883" d="M7.879.425 25.012.311l26.075 43.996L76.958.313l17.163.018-43.037 72.41L7.879.425Z"/></g><defs><clipPath id="a"><path fill="#fff" d="M0 0h102v100H0z"/></clipPath></defs></svg>