<svg width="500" height="345" viewBox="0 0 500 345" fill="none" xmlns="http://www.w3.org/2000/svg">
<rect width="500" height="345" fill="white"/>
<path d="M64.2 192.2C64.4933 193.373 64.64 194.84 64.64 196.6C64.64 198.287 64.4933 199.753 64.2 201H46.6C46.3067 199.753 46.16 198.287 46.16 196.6C46.16 194.84 46.3067 193.373 46.6 192.2H42.2C41.9067 190.953 41.76 189.487 41.76 187.8C41.76 186.04 41.9067 184.573 42.2 183.4C41.9067 182.153 41.76 180.687 41.76 179C41.76 177.24 41.9067 175.773 42.2 174.6C41.9067 173.353 41.76 171.887 41.76 170.2C41.76 168.44 41.9067 166.973 42.2 165.8H33.4C33.1067 164.553 32.96 163.087 32.96 161.4C32.96 159.64 33.1067 158.173 33.4 157H42.2C41.9067 155.753 41.76 154.287 41.76 152.6C41.76 150.84 41.9067 149.373 42.2 148.2C41.9067 146.953 41.76 145.487 41.76 143.8C41.76 142.04 41.9067 140.573 42.2 139.4H51C51.2933 140.573 51.44 142.04 51.44 143.8C51.44 145.487 51.2933 146.953 51 148.2C51.2933 149.373 51.44 150.84 51.44 152.6C51.44 154.287 51.2933 155.753 51 157H64.2C64.4933 158.173 64.64 159.64 64.64 161.4C64.64 163.087 64.4933 164.553 64.2 165.8H51C51.2933 166.973 51.44 168.44 51.44 170.2C51.44 171.887 51.2933 173.353 51 174.6C51.2933 175.773 51.44 177.24 51.44 179C51.44 180.687 51.2933 182.153 51 183.4C51.2933 184.573 51.44 186.04 51.44 187.8C51.44 189.487 51.2933 190.953 51 192.2H64.2ZM112.643 192.2C112.936 193.373 113.083 194.84 113.083 196.6C113.083 198.287 112.936 199.753 112.643 201H103.843C103.55 199.753 103.403 198.287 103.403 196.6C103.403 194.84 103.55 193.373 103.843 192.2H99.443C99.1496 190.953 99.003 189.487 99.003 187.8C99.003 186.04 99.1496 184.573 99.443 183.4H86.243C86.5363 184.573 86.683 186.04 86.683 187.8C86.683 189.487 86.5363 190.953 86.243 192.2H99.443C99.7363 193.373 99.883 194.84 99.883 196.6C99.883 198.287 99.7363 199.753 99.443 201H81.843C81.5496 199.753 81.403 198.287 81.403 196.6C81.403 194.84 81.5496 193.373 81.843 192.2H77.443C77.1496 190.953 77.003 189.487 77.003 187.8C77.003 186.04 77.1496 184.573 77.443 183.4H81.843C81.5496 182.153 81.403 180.687 81.403 179C81.403 177.24 81.5496 175.773 81.843 174.6H99.443C99.1496 173.353 99.003 171.887 99.003 170.2C99.003 168.44 99.1496 166.973 99.443 165.8H84.043C83.7496 164.553 83.603 163.087 83.603 161.4C83.603 159.64 83.7496 158.173 84.043 157H103.843C104.136 158.173 104.283 159.64 104.283 161.4C104.283 163.087 104.136 164.553 103.843 165.8H108.243C108.536 166.973 108.683 168.44 108.683 170.2C108.683 171.887 108.536 173.353 108.243 174.6C108.536 175.773 108.683 177.24 108.683 179C108.683 180.687 108.536 182.153 108.243 183.4C108.536 184.573 108.683 186.04 108.683 187.8C108.683 189.487 108.536 190.953 108.243 192.2H112.643ZM127.426 161.4C127.426 163.087 127.279 164.553 126.986 165.8H130.286C130.579 166.973 130.726 168.44 130.726 170.2C130.726 171.887 130.579 173.353 130.286 174.6C130.579 175.773 130.726 177.24 130.726 179C130.726 180.687 130.579 182.153 130.286 183.4C130.579 184.573 130.726 186.04 130.726 187.8C130.726 189.487 130.579 190.953 130.286 192.2C130.579 193.373 130.726 194.84 130.726 196.6C130.726 198.287 130.579 199.753 130.286 201H121.486C121.193 199.753 121.046 198.287 121.046 196.6C121.046 194.84 121.193 193.373 121.486 192.2C121.193 190.953 121.046 189.487 121.046 187.8C121.046 186.04 121.193 184.573 121.486 183.4C121.193 182.153 121.046 180.687 121.046 179C121.046 177.24 121.193 175.773 121.486 174.6C121.193 173.353 121.046 171.887 121.046 170.2C121.046 168.44 121.193 166.973 121.486 165.8C121.193 164.553 121.046 163.087 121.046 161.4C121.046 159.64 121.193 158.173 121.486 157H126.986C127.279 158.173 127.426 159.64 127.426 161.4ZM139.526 161.4C139.526 163.087 139.379 164.553 139.086 165.8H142.386C142.679 166.973 142.826 168.44 142.826 170.2C142.826 171.887 142.679 173.353 142.386 174.6C142.679 175.773 142.826 177.24 142.826 179C142.826 180.687 142.679 182.153 142.386 183.4C142.679 184.573 142.826 186.04 142.826 187.8C142.826 189.487 142.679 190.953 142.386 192.2C142.679 193.373 142.826 194.84 142.826 196.6C142.826 198.287 142.679 199.753 142.386 201H135.786C135.493 199.753 135.346 198.287 135.346 196.6C135.346 194.84 135.493 193.373 135.786 192.2C135.493 190.953 135.346 189.487 135.346 187.8C135.346 186.04 135.493 184.573 135.786 183.4C135.493 182.153 135.346 180.687 135.346 179C135.346 177.24 135.493 175.773 135.786 174.6C135.493 173.353 135.346 171.887 135.346 170.2C135.346 168.44 135.493 166.973 135.786 165.8H130.286C129.993 164.553 129.846 163.087 129.846 161.4C129.846 159.64 129.993 158.173 130.286 157H139.086C139.379 158.173 139.526 159.64 139.526 161.4ZM156.686 174.6C156.979 175.773 157.126 177.24 157.126 179C157.126 180.687 156.979 182.153 156.686 183.4C156.979 184.573 157.126 186.04 157.126 187.8C157.126 189.487 156.979 190.953 156.686 192.2C156.979 193.373 157.126 194.84 157.126 196.6C157.126 198.287 156.979 199.753 156.686 201H147.886C147.593 199.753 147.446 198.287 147.446 196.6C147.446 194.84 147.593 193.373 147.886 192.2C147.593 190.953 147.446 189.487 147.446 187.8C147.446 186.04 147.593 184.573 147.886 183.4C147.593 182.153 147.446 180.687 147.446 179C147.446 177.24 147.593 175.773 147.886 174.6C147.593 173.353 147.446 171.887 147.446 170.2C147.446 168.44 147.593 166.973 147.886 165.8H142.386C142.093 164.553 141.946 163.087 141.946 161.4C141.946 159.64 142.093 158.173 142.386 157H152.286C152.579 158.173 152.726 159.64 152.726 161.4C152.726 163.087 152.579 164.553 152.286 165.8H156.686C156.979 166.973 157.126 168.44 157.126 170.2C157.126 171.887 156.979 173.353 156.686 174.6ZM200.729 192.2C201.022 193.373 201.169 194.84 201.169 196.6C201.169 198.287 201.022 199.753 200.729 201H191.929C191.636 199.753 191.489 198.287 191.489 196.6C191.489 194.84 191.636 193.373 191.929 192.2H187.529C187.236 190.953 187.089 189.487 187.089 187.8C187.089 186.04 187.236 184.573 187.529 183.4H174.329C174.622 184.573 174.769 186.04 174.769 187.8C174.769 189.487 174.622 190.953 174.329 192.2H187.529C187.822 193.373 187.969 194.84 187.969 196.6C187.969 198.287 187.822 199.753 187.529 201H169.929C169.636 199.753 169.489 198.287 169.489 196.6C169.489 194.84 169.636 193.373 169.929 192.2H165.529C165.236 190.953 165.089 189.487 165.089 187.8C165.089 186.04 165.236 184.573 165.529 183.4H169.929C169.636 182.153 169.489 180.687 169.489 179C169.489 177.24 169.636 175.773 169.929 174.6H187.529C187.236 173.353 187.089 171.887 187.089 170.2C187.089 168.44 187.236 166.973 187.529 165.8H172.129C171.836 164.553 171.689 163.087 171.689 161.4C171.689 159.64 171.836 158.173 172.129 157H191.929C192.222 158.173 192.369 159.64 192.369 161.4C192.369 163.087 192.222 164.553 191.929 165.8H196.329C196.622 166.973 196.769 168.44 196.769 170.2C196.769 171.887 196.622 173.353 196.329 174.6C196.622 175.773 196.769 177.24 196.769 179C196.769 180.687 196.622 182.153 196.329 183.4C196.622 184.573 196.769 186.04 196.769 187.8C196.769 189.487 196.622 190.953 196.329 192.2H200.729ZM244.772 165.8C245.065 166.973 245.212 168.44 245.212 170.2C245.212 171.887 245.065 173.353 244.772 174.6C245.065 175.773 245.212 177.24 245.212 179C245.212 180.687 245.065 182.153 244.772 183.4C245.065 184.573 245.212 186.04 245.212 187.8C245.212 189.487 245.065 190.953 244.772 192.2C245.065 193.373 245.212 194.84 245.212 196.6C245.212 198.287 245.065 199.753 244.772 201H240.372C240.665 202.173 240.812 203.64 240.812 205.4C240.812 207.087 240.665 208.553 240.372 209.8H235.972C236.265 210.973 236.412 212.44 236.412 214.2C236.412 215.887 236.265 217.353 235.972 218.6H218.372C218.079 217.353 217.932 215.887 217.932 214.2C217.932 212.44 218.079 210.973 218.372 209.8H231.572C231.279 208.553 231.132 207.087 231.132 205.4C231.132 203.64 231.279 202.173 231.572 201H235.972C235.679 199.753 235.532 198.287 235.532 196.6C235.532 194.84 235.679 193.373 235.972 192.2H231.572C231.279 190.953 231.132 189.487 231.132 187.8C231.132 186.04 231.279 184.573 231.572 183.4H235.972C235.679 182.153 235.532 180.687 235.532 179C235.532 177.24 235.679 175.773 235.972 174.6C235.679 173.353 235.532 171.887 235.532 170.2C235.532 168.44 235.679 166.973 235.972 165.8H221.672C221.965 166.973 222.112 168.44 222.112 170.2C222.112 171.887 221.965 173.353 221.672 174.6H218.372C218.665 175.773 218.812 177.24 218.812 179C218.812 180.687 218.665 182.153 218.372 183.4H221.672C221.965 184.573 222.112 186.04 222.112 187.8C222.112 189.487 221.965 190.953 221.672 192.2H231.572C231.865 193.373 232.012 194.84 232.012 196.6C232.012 198.287 231.865 199.753 231.572 201H218.372C218.079 199.753 217.932 198.287 217.932 196.6C217.932 194.84 218.079 193.373 218.372 192.2H212.872C212.579 190.953 212.432 189.487 212.432 187.8C212.432 186.04 212.579 184.573 212.872 183.4H209.572C209.279 182.153 209.132 180.687 209.132 179C209.132 177.24 209.279 175.773 209.572 174.6H212.872C212.579 173.353 212.432 171.887 212.432 170.2C212.432 168.44 212.579 166.973 212.872 165.8H218.372C218.079 164.553 217.932 163.087 217.932 161.4C217.932 159.64 218.079 158.173 218.372 157H244.772C245.065 158.173 245.212 159.64 245.212 161.4C245.212 163.087 245.065 164.553 244.772 165.8ZM289.255 179C289.255 180.687 289.108 182.153 288.815 183.4H285.515C285.808 184.573 285.955 186.04 285.955 187.8C285.955 189.487 285.808 190.953 285.515 192.2H280.015C280.308 193.373 280.455 194.84 280.455 196.6C280.455 198.287 280.308 199.753 280.015 201H262.415C262.122 199.753 261.975 198.287 261.975 196.6C261.975 194.84 262.122 193.373 262.415 192.2H256.915C256.622 190.953 256.475 189.487 256.475 187.8C256.475 186.04 256.622 184.573 256.915 183.4H253.615C253.322 182.153 253.175 180.687 253.175 179C253.175 177.24 253.322 175.773 253.615 174.6H256.915C256.622 173.353 256.475 171.887 256.475 170.2C256.475 168.44 256.622 166.973 256.915 165.8H262.415C262.122 164.553 261.975 163.087 261.975 161.4C261.975 159.64 262.122 158.173 262.415 157H280.015C280.308 158.173 280.455 159.64 280.455 161.4C280.455 163.087 280.308 164.553 280.015 165.8H285.515C285.808 166.973 285.955 168.44 285.955 170.2C285.955 171.887 285.808 173.353 285.515 174.6H288.815C289.108 175.773 289.255 177.24 289.255 179ZM280.015 183.4C279.722 182.153 279.575 180.687 279.575 179C279.575 177.24 279.722 175.773 280.015 174.6H276.715C276.422 173.353 276.275 171.887 276.275 170.2C276.275 168.44 276.422 166.973 276.715 165.8H265.715C266.008 166.973 266.155 168.44 266.155 170.2C266.155 171.887 266.008 173.353 265.715 174.6H262.415C262.708 175.773 262.855 177.24 262.855 179C262.855 180.687 262.708 182.153 262.415 183.4H265.715C266.008 184.573 266.155 186.04 266.155 187.8C266.155 189.487 266.008 190.953 265.715 192.2H276.715C276.422 190.953 276.275 189.487 276.275 187.8C276.275 186.04 276.422 184.573 276.715 183.4H280.015ZM328.458 192.2C328.751 193.373 328.898 194.84 328.898 196.6C328.898 198.287 328.751 199.753 328.458 201H310.858C310.564 199.753 310.418 198.287 310.418 196.6C310.418 194.84 310.564 193.373 310.858 192.2H306.458C306.164 190.953 306.018 189.487 306.018 187.8C306.018 186.04 306.164 184.573 306.458 183.4C306.164 182.153 306.018 180.687 306.018 179C306.018 177.24 306.164 175.773 306.458 174.6C306.164 173.353 306.018 171.887 306.018 170.2C306.018 168.44 306.164 166.973 306.458 165.8H297.658C297.364 164.553 297.218 163.087 297.218 161.4C297.218 159.64 297.364 158.173 297.658 157H306.458C306.164 155.753 306.018 154.287 306.018 152.6C306.018 150.84 306.164 149.373 306.458 148.2C306.164 146.953 306.018 145.487 306.018 143.8C306.018 142.04 306.164 140.573 306.458 139.4H315.258C315.551 140.573 315.698 142.04 315.698 143.8C315.698 145.487 315.551 146.953 315.258 148.2C315.551 149.373 315.698 150.84 315.698 152.6C315.698 154.287 315.551 155.753 315.258 157H328.458C328.751 158.173 328.898 159.64 328.898 161.4C328.898 163.087 328.751 164.553 328.458 165.8H315.258C315.551 166.973 315.698 168.44 315.698 170.2C315.698 171.887 315.551 173.353 315.258 174.6C315.551 175.773 315.698 177.24 315.698 179C315.698 180.687 315.551 182.153 315.258 183.4C315.551 184.573 315.698 186.04 315.698 187.8C315.698 189.487 315.551 190.953 315.258 192.2H328.458ZM376.901 183.4C377.194 184.573 377.341 186.04 377.341 187.8C377.341 189.487 377.194 190.953 376.901 192.2H372.501C372.794 193.373 372.941 194.84 372.941 196.6C372.941 198.287 372.794 199.753 372.501 201H350.501C350.207 199.753 350.061 198.287 350.061 196.6C350.061 194.84 350.207 193.373 350.501 192.2H346.101C345.807 190.953 345.661 189.487 345.661 187.8C345.661 186.04 345.807 184.573 346.101 183.4H341.701C341.407 182.153 341.261 180.687 341.261 179C341.261 177.24 341.407 175.773 341.701 174.6H346.101C345.807 173.353 345.661 171.887 345.661 170.2C345.661 168.44 345.807 166.973 346.101 165.8H350.501C350.207 164.553 350.061 163.087 350.061 161.4C350.061 159.64 350.207 158.173 350.501 157H372.501C372.794 158.173 372.941 159.64 372.941 161.4C372.941 163.087 372.794 164.553 372.501 165.8H376.901C377.194 166.973 377.341 168.44 377.341 170.2C377.341 171.887 377.194 173.353 376.901 174.6H368.101C367.807 173.353 367.661 171.887 367.661 170.2C367.661 168.44 367.807 166.973 368.101 165.8H354.901C355.194 166.973 355.341 168.44 355.341 170.2C355.341 171.887 355.194 173.353 354.901 174.6H350.501C350.794 175.773 350.941 177.24 350.941 179C350.941 180.687 350.794 182.153 350.501 183.4H354.901C355.194 184.573 355.341 186.04 355.341 187.8C355.341 189.487 355.194 190.953 354.901 192.2H368.101C367.807 190.953 367.661 189.487 367.661 187.8C367.661 186.04 367.807 184.573 368.101 183.4H376.901ZM394.984 161.4C394.984 163.087 394.837 164.553 394.544 165.8H397.844C398.137 166.973 398.284 168.44 398.284 170.2C398.284 171.887 398.137 173.353 397.844 174.6H394.544C394.837 175.773 394.984 177.24 394.984 179C394.984 180.687 394.837 182.153 394.544 183.4C394.837 184.573 394.984 186.04 394.984 187.8C394.984 189.487 394.837 190.953 394.544 192.2C394.837 193.373 394.984 194.84 394.984 196.6C394.984 198.287 394.837 199.753 394.544 201H385.744C385.45 199.753 385.304 198.287 385.304 196.6C385.304 194.84 385.45 193.373 385.744 192.2C385.45 190.953 385.304 189.487 385.304 187.8C385.304 186.04 385.45 184.573 385.744 183.4C385.45 182.153 385.304 180.687 385.304 179C385.304 177.24 385.45 175.773 385.744 174.6C385.45 173.353 385.304 171.887 385.304 170.2C385.304 168.44 385.45 166.973 385.744 165.8C385.45 164.553 385.304 163.087 385.304 161.4C385.304 159.64 385.45 158.173 385.744 157C385.45 155.753 385.304 154.287 385.304 152.6C385.304 150.84 385.45 149.373 385.744 148.2C385.45 146.953 385.304 145.487 385.304 143.8C385.304 142.04 385.45 140.573 385.744 139.4H394.544C394.837 140.573 394.984 142.04 394.984 143.8C394.984 145.487 394.837 146.953 394.544 148.2C394.837 149.373 394.984 150.84 394.984 152.6C394.984 154.287 394.837 155.753 394.544 157C394.837 158.173 394.984 159.64 394.984 161.4ZM420.944 174.6C421.237 175.773 421.384 177.24 421.384 179C421.384 180.687 421.237 182.153 420.944 183.4C421.237 184.573 421.384 186.04 421.384 187.8C421.384 189.487 421.237 190.953 420.944 192.2C421.237 193.373 421.384 194.84 421.384 196.6C421.384 198.287 421.237 199.753 420.944 201H412.144C411.85 199.753 411.704 198.287 411.704 196.6C411.704 194.84 411.85 193.373 412.144 192.2C411.85 190.953 411.704 189.487 411.704 187.8C411.704 186.04 411.85 184.573 412.144 183.4C411.85 182.153 411.704 180.687 411.704 179C411.704 177.24 411.85 175.773 412.144 174.6C411.85 173.353 411.704 171.887 411.704 170.2C411.704 168.44 411.85 166.973 412.144 165.8H397.844C397.55 164.553 397.404 163.087 397.404 161.4C397.404 159.64 397.55 158.173 397.844 157H415.444C415.737 158.173 415.884 159.64 415.884 161.4C415.884 163.087 415.737 164.553 415.444 165.8H420.944C421.237 166.973 421.384 168.44 421.384 170.2C421.384 171.887 421.237 173.353 420.944 174.6ZM442.987 148.2C442.693 146.953 442.547 145.487 442.547 143.8C442.547 142.04 442.693 140.573 442.987 139.4H451.787C452.08 140.573 452.227 142.04 452.227 143.8C452.227 145.487 452.08 146.953 451.787 148.2H442.987ZM460.587 192.2C460.88 193.373 461.027 194.84 461.027 196.6C461.027 198.287 460.88 199.753 460.587 201H434.187C433.893 199.753 433.747 198.287 433.747 196.6C433.747 194.84 433.893 193.373 434.187 192.2H442.987C442.693 190.953 442.547 189.487 442.547 187.8C442.547 186.04 442.693 184.573 442.987 183.4C442.693 182.153 442.547 180.687 442.547 179C442.547 177.24 442.693 175.773 442.987 174.6C442.693 173.353 442.547 171.887 442.547 170.2C442.547 168.44 442.693 166.973 442.987 165.8H436.387C436.093 164.553 435.947 163.087 435.947 161.4C435.947 159.64 436.093 158.173 436.387 157H451.787C452.08 158.173 452.227 159.64 452.227 161.4C452.227 163.087 452.08 164.553 451.787 165.8C452.08 166.973 452.227 168.44 452.227 170.2C452.227 171.887 452.08 173.353 451.787 174.6C452.08 175.773 452.227 177.24 452.227 179C452.227 180.687 452.08 182.153 451.787 183.4C452.08 184.573 452.227 186.04 452.227 187.8C452.227 189.487 452.08 190.953 451.787 192.2H460.587Z" fill="black"/>
</svg>
