<svg xmlns="http://www.w3.org/2000/svg" width="500" height="345" fill="none"><path fill="#fff" d="M0 0h500v345H0z"/><path fill="#000" d="M64.2 192.2c.293 1.173.44 2.64.44 4.4 0 1.687-.147 3.153-.44 4.4H46.6c-.293-1.247-.44-2.713-.44-4.4 0-1.76.147-3.227.44-4.4h-4.4c-.293-1.247-.44-2.713-.44-4.4 0-1.76.147-3.227.44-4.4-.293-1.247-.44-2.713-.44-4.4 0-1.76.147-3.227.44-4.4-.293-1.247-.44-2.713-.44-4.4 0-1.76.147-3.227.44-4.4h-8.8c-.293-1.247-.44-2.713-.44-4.4 0-1.76.147-3.227.44-4.4h8.8c-.293-1.247-.44-2.713-.44-4.4 0-1.76.147-3.227.44-4.4-.293-1.247-.44-2.713-.44-4.4 0-1.76.147-3.227.44-4.4H51c.293 1.173.44 2.64.44 4.4 0 1.687-.147 3.153-.44 4.4.293 1.173.44 2.64.44 4.4 0 1.687-.147 3.153-.44 4.4h13.2c.293 1.173.44 2.64.44 4.4 0 1.687-.147 3.153-.44 4.4H51c.293 1.173.44 2.64.44 4.4 0 1.687-.147 3.153-.44 4.4.293 1.173.44 2.64.44 4.4 0 1.687-.147 3.153-.44 4.4.293 1.173.44 2.64.44 4.4 0 1.687-.147 3.153-.44 4.4h13.2Zm48.443 0c.293 1.173.44 2.64.44 4.4 0 1.687-.147 3.153-.44 4.4h-8.8c-.293-1.247-.44-2.713-.44-4.4 0-1.76.147-3.227.44-4.4h-4.4c-.293-1.247-.44-2.713-.44-4.4 0-1.76.147-3.227.44-4.4h-13.2c.293 1.173.44 2.64.44 4.4 0 1.687-.147 3.153-.44 4.4h13.2c.293 1.173.44 2.64.44 4.4 0 1.687-.147 3.153-.44 4.4h-17.6c-.293-1.247-.44-2.713-.44-4.4 0-1.76.147-3.227.44-4.4h-4.4c-.293-1.247-.44-2.713-.44-4.4 0-1.76.147-3.227.44-4.4h4.4c-.293-1.247-.44-2.713-.44-4.4 0-1.76.147-3.227.44-4.4h17.6c-.293-1.247-.44-2.713-.44-4.4 0-1.76.147-3.227.44-4.4h-15.4c-.293-1.247-.44-2.713-.44-4.4 0-1.76.147-3.227.44-4.4h19.8c.293 1.173.44 2.64.44 4.4 0 1.687-.147 3.153-.44 4.4h4.4c.293 1.173.44 2.64.44 4.4 0 1.687-.147 3.153-.44 4.4.293 1.173.44 2.64.44 4.4 0 1.687-.147 3.153-.44 4.4.293 1.173.44 2.64.44 4.4 0 1.687-.147 3.153-.44 4.4h4.4Zm14.783-30.8c0 1.687-.147 3.153-.44 4.4h3.3c.293 1.173.44 2.64.44 4.4 0 1.687-.147 3.153-.44 4.4.293 1.173.44 2.64.44 4.4 0 1.687-.147 3.153-.44 4.4.293 1.173.44 2.64.44 4.4 0 1.687-.147 3.153-.44 4.4.293 1.173.44 2.64.44 4.4 0 1.687-.147 3.153-.44 4.4h-8.8c-.293-1.247-.44-2.713-.44-4.4 0-1.76.147-3.227.44-4.4-.293-1.247-.44-2.713-.44-4.4 0-1.76.147-3.227.44-4.4-.293-1.247-.44-2.713-.44-4.4 0-1.76.147-3.227.44-4.4-.293-1.247-.44-2.713-.44-4.4 0-1.76.147-3.227.44-4.4-.293-1.247-.44-2.713-.44-4.4 0-1.76.147-3.227.44-4.4h5.5c.293 1.173.44 2.64.44 4.4Zm12.1 0c0 1.687-.147 3.153-.44 4.4h3.3c.293 1.173.44 2.64.44 4.4 0 1.687-.147 3.153-.44 4.4.293 1.173.44 2.64.44 4.4 0 1.687-.147 3.153-.44 4.4.293 1.173.44 2.64.44 4.4 0 1.687-.147 3.153-.44 4.4.293 1.173.44 2.64.44 4.4 0 1.687-.147 3.153-.44 4.4h-6.6c-.293-1.247-.44-2.713-.44-4.4 0-1.76.147-3.227.44-4.4-.293-1.247-.44-2.713-.44-4.4 0-1.76.147-3.227.44-4.4-.293-1.247-.44-2.713-.44-4.4 0-1.76.147-3.227.44-4.4-.293-1.247-.44-2.713-.44-4.4 0-1.76.147-3.227.44-4.4h-5.5c-.293-1.247-.44-2.713-.44-4.4 0-1.76.147-3.227.44-4.4h8.8c.293 1.173.44 2.64.44 4.4Zm17.16 13.2c.293 1.173.44 2.64.44 4.4 0 1.687-.147 3.153-.44 4.4.293 1.173.44 2.64.44 4.4 0 1.687-.147 3.153-.44 4.4.293 1.173.44 2.64.44 4.4 0 1.687-.147 3.153-.44 4.4h-8.8c-.293-1.247-.44-2.713-.44-4.4 0-1.76.147-3.227.44-4.4-.293-1.247-.44-2.713-.44-4.4 0-1.76.147-3.227.44-4.4-.293-1.247-.44-2.713-.44-4.4 0-1.76.147-3.227.44-4.4-.293-1.247-.44-2.713-.44-4.4 0-1.76.147-3.227.44-4.4h-5.5c-.293-1.247-.44-2.713-.44-4.4 0-1.76.147-3.227.44-4.4h9.9c.293 1.173.44 2.64.44 4.4 0 1.687-.147 3.153-.44 4.4h4.4c.293 1.173.44 2.64.44 4.4 0 1.687-.147 3.153-.44 4.4Zm44.043 17.6c.293 1.173.44 2.64.44 4.4 0 1.687-.147 3.153-.44 4.4h-8.8c-.293-1.247-.44-2.713-.44-4.4 0-1.76.147-3.227.44-4.4h-4.4c-.293-1.247-.44-2.713-.44-4.4 0-1.76.147-3.227.44-4.4h-13.2c.293 1.173.44 2.64.44 4.4 0 1.687-.147 3.153-.44 4.4h13.2c.293 1.173.44 2.64.44 4.4 0 1.687-.147 3.153-.44 4.4h-17.6c-.293-1.247-.44-2.713-.44-4.4 0-1.76.147-3.227.44-4.4h-4.4c-.293-1.247-.44-2.713-.44-4.4 0-1.76.147-3.227.44-4.4h4.4c-.293-1.247-.44-2.713-.44-4.4 0-1.76.147-3.227.44-4.4h17.6c-.293-1.247-.44-2.713-.44-4.4 0-1.76.147-3.227.44-4.4h-15.4c-.293-1.247-.44-2.713-.44-4.4 0-1.76.147-3.227.44-4.4h19.8c.293 1.173.44 2.64.44 4.4 0 1.687-.147 3.153-.44 4.4h4.4c.293 1.173.44 2.64.44 4.4 0 1.687-.147 3.153-.44 4.4.293 1.173.44 2.64.44 4.4 0 1.687-.147 3.153-.44 4.4.293 1.173.44 2.64.44 4.4 0 1.687-.147 3.153-.44 4.4h4.4Zm44.043-26.4c.293 1.173.44 2.64.44 4.4 0 1.687-.147 3.153-.44 4.4.293 1.173.44 2.64.44 4.4 0 1.687-.147 3.153-.44 4.4.293 1.173.44 2.64.44 4.4 0 1.687-.147 3.153-.44 4.4.293 1.173.44 2.64.44 4.4 0 1.687-.147 3.153-.44 4.4h-4.4c.293 1.173.44 2.64.44 4.4 0 1.687-.147 3.153-.44 4.4h-4.4c.293 1.173.44 2.64.44 4.4 0 1.687-.147 3.153-.44 4.4h-17.6c-.293-1.247-.44-2.713-.44-4.4 0-1.76.147-3.227.44-4.4h13.2c-.293-1.247-.44-2.713-.44-4.4 0-1.76.147-3.227.44-4.4h4.4c-.293-1.247-.44-2.713-.44-4.4 0-1.76.147-3.227.44-4.4h-4.4c-.293-1.247-.44-2.713-.44-4.4 0-1.76.147-3.227.44-4.4h4.4c-.293-1.247-.44-2.713-.44-4.4 0-1.76.147-3.227.44-4.4-.293-1.247-.44-2.713-.44-4.4 0-1.76.147-3.227.44-4.4h-14.3c.293 1.173.44 2.64.44 4.4 0 1.687-.147 3.153-.44 4.4h-3.3c.293 1.173.44 2.64.44 4.4 0 1.687-.147 3.153-.44 4.4h3.3c.293 1.173.44 2.64.44 4.4 0 1.687-.147 3.153-.44 4.4h9.9c.293 1.173.44 2.64.44 4.4 0 1.687-.147 3.153-.44 4.4h-13.2c-.293-1.247-.44-2.713-.44-4.4 0-1.76.147-3.227.44-4.4h-5.5c-.293-1.247-.44-2.713-.44-4.4 0-1.76.147-3.227.44-4.4h-3.3c-.293-1.247-.44-2.713-.44-4.4 0-1.76.147-3.227.44-4.4h3.3c-.293-1.247-.44-2.713-.44-4.4 0-1.76.147-3.227.44-4.4h5.5c-.293-1.247-.44-2.713-.44-4.4 0-1.76.147-3.227.44-4.4h26.4c.293 1.173.44 2.64.44 4.4 0 1.687-.147 3.153-.44 4.4Zm44.483 13.2c0 1.687-.147 3.153-.44 4.4h-3.3c.293 1.173.44 2.64.44 4.4 0 1.687-.147 3.153-.44 4.4h-5.5c.293 1.173.44 2.64.44 4.4 0 1.687-.147 3.153-.44 4.4h-17.6c-.293-1.247-.44-2.713-.44-4.4 0-1.76.147-3.227.44-4.4h-5.5c-.293-1.247-.44-2.713-.44-4.4 0-1.76.147-3.227.44-4.4h-3.3c-.293-1.247-.44-2.713-.44-4.4 0-1.76.147-3.227.44-4.4h3.3c-.293-1.247-.44-2.713-.44-4.4 0-1.76.147-3.227.44-4.4h5.5c-.293-1.247-.44-2.713-.44-4.4 0-1.76.147-3.227.44-4.4h17.6c.293 1.173.44 2.64.44 4.4 0 1.687-.147 3.153-.44 4.4h5.5c.293 1.173.44 2.64.44 4.4 0 1.687-.147 3.153-.44 4.4h3.3c.293 1.173.44 2.64.44 4.4Zm-9.24 4.4c-.293-1.247-.44-2.713-.44-4.4 0-1.76.147-3.227.44-4.4h-3.3c-.293-1.247-.44-2.713-.44-4.4 0-1.76.147-3.227.44-4.4h-11c.293 1.173.44 2.64.44 4.4 0 1.687-.147 3.153-.44 4.4h-3.3c.293 1.173.44 2.64.44 4.4 0 1.687-.147 3.153-.44 4.4h3.3c.293 1.173.44 2.64.44 4.4 0 1.687-.147 3.153-.44 4.4h11c-.293-1.247-.44-2.713-.44-4.4 0-1.76.147-3.227.44-4.4h3.3Zm48.443 8.8c.293 1.173.44 2.64.44 4.4 0 1.687-.147 3.153-.44 4.4h-17.6c-.294-1.247-.44-2.713-.44-4.4 0-1.76.146-3.227.44-4.4h-4.4c-.294-1.247-.44-2.713-.44-4.4 0-1.76.146-3.227.44-4.4-.294-1.247-.44-2.713-.44-4.4 0-1.76.146-3.227.44-4.4-.294-1.247-.44-2.713-.44-4.4 0-1.76.146-3.227.44-4.4h-8.8c-.294-1.247-.44-2.713-.44-4.4 0-1.76.146-3.227.44-4.4h8.8c-.294-1.247-.44-2.713-.44-4.4 0-1.76.146-3.227.44-4.4-.294-1.247-.44-2.713-.44-4.4 0-1.76.146-3.227.44-4.4h8.8c.293 1.173.44 2.64.44 4.4 0 1.687-.147 3.153-.44 4.4.293 1.173.44 2.64.44 4.4 0 1.687-.147 3.153-.44 4.4h13.2c.293 1.173.44 2.64.44 4.4 0 1.687-.147 3.153-.44 4.4h-13.2c.293 1.173.44 2.64.44 4.4 0 1.687-.147 3.153-.44 4.4.293 1.173.44 2.64.44 4.4 0 1.687-.147 3.153-.44 4.4.293 1.173.44 2.64.44 4.4 0 1.687-.147 3.153-.44 4.4h13.2Zm48.443-8.8c.293 1.173.44 2.64.44 4.4 0 1.687-.147 3.153-.44 4.4h-4.4c.293 1.173.44 2.64.44 4.4 0 1.687-.147 3.153-.44 4.4h-22c-.294-1.247-.44-2.713-.44-4.4 0-1.76.146-3.227.44-4.4h-4.4c-.294-1.247-.44-2.713-.44-4.4 0-1.76.146-3.227.44-4.4h-4.4c-.294-1.247-.44-2.713-.44-4.4 0-1.76.146-3.227.44-4.4h4.4c-.294-1.247-.44-2.713-.44-4.4 0-1.76.146-3.227.44-4.4h4.4c-.294-1.247-.44-2.713-.44-4.4 0-1.76.146-3.227.44-4.4h22c.293 1.173.44 2.64.44 4.4 0 1.687-.147 3.153-.44 4.4h4.4c.293 1.173.44 2.64.44 4.4 0 1.687-.147 3.153-.44 4.4h-8.8c-.294-1.247-.44-2.713-.44-4.4 0-1.76.146-3.227.44-4.4h-13.2c.293 1.173.44 2.64.44 4.4 0 1.687-.147 3.153-.44 4.4h-4.4c.293 1.173.44 2.64.44 4.4 0 1.687-.147 3.153-.44 4.4h4.4c.293 1.173.44 2.64.44 4.4 0 1.687-.147 3.153-.44 4.4h13.2c-.294-1.247-.44-2.713-.44-4.4 0-1.76.146-3.227.44-4.4h8.8Zm18.083-22c0 1.687-.147 3.153-.44 4.4h3.3c.293 1.173.44 2.64.44 4.4 0 1.687-.147 3.153-.44 4.4h-3.3c.293 1.173.44 2.64.44 4.4 0 1.687-.147 3.153-.44 4.4.293 1.173.44 2.64.44 4.4 0 1.687-.147 3.153-.44 4.4.293 1.173.44 2.64.44 4.4 0 1.687-.147 3.153-.44 4.4h-8.8c-.294-1.247-.44-2.713-.44-4.4 0-1.76.146-3.227.44-4.4-.294-1.247-.44-2.713-.44-4.4 0-1.76.146-3.227.44-4.4-.294-1.247-.44-2.713-.44-4.4 0-1.76.146-3.227.44-4.4-.294-1.247-.44-2.713-.44-4.4 0-1.76.146-3.227.44-4.4-.294-1.247-.44-2.713-.44-4.4 0-1.76.146-3.227.44-4.4-.294-1.247-.44-2.713-.44-4.4 0-1.76.146-3.227.44-4.4-.294-1.247-.44-2.713-.44-4.4 0-1.76.146-3.227.44-4.4h8.8c.293 1.173.44 2.64.44 4.4 0 1.687-.147 3.153-.44 4.4.293 1.173.44 2.64.44 4.4 0 1.687-.147 3.153-.44 4.4.293 1.173.44 2.64.44 4.4Zm25.96 13.2c.293 1.173.44 2.64.44 4.4 0 1.687-.147 3.153-.44 4.4.293 1.173.44 2.64.44 4.4 0 1.687-.147 3.153-.44 4.4.293 1.173.44 2.64.44 4.4 0 1.687-.147 3.153-.44 4.4h-8.8c-.294-1.247-.44-2.713-.44-4.4 0-1.76.146-3.227.44-4.4-.294-1.247-.44-2.713-.44-4.4 0-1.76.146-3.227.44-4.4-.294-1.247-.44-2.713-.44-4.4 0-1.76.146-3.227.44-4.4-.294-1.247-.44-2.713-.44-4.4 0-1.76.146-3.227.44-4.4h-14.3c-.294-1.247-.44-2.713-.44-4.4 0-1.76.146-3.227.44-4.4h17.6c.293 1.173.44 2.64.44 4.4 0 1.687-.147 3.153-.44 4.4h5.5c.293 1.173.44 2.64.44 4.4 0 1.687-.147 3.153-.44 4.4Zm22.043-26.4c-.294-1.247-.44-2.713-.44-4.4 0-1.76.146-3.227.44-4.4h8.8c.293 1.173.44 2.64.44 4.4 0 1.687-.147 3.153-.44 4.4h-8.8Zm17.6 44c.293 1.173.44 2.64.44 4.4 0 1.687-.147 3.153-.44 4.4h-26.4c-.294-1.247-.44-2.713-.44-4.4 0-1.76.146-3.227.44-4.4h8.8c-.294-1.247-.44-2.713-.44-4.4 0-1.76.146-3.227.44-4.4-.294-1.247-.44-2.713-.44-4.4 0-1.76.146-3.227.44-4.4-.294-1.247-.44-2.713-.44-4.4 0-1.76.146-3.227.44-4.4h-6.6c-.294-1.247-.44-2.713-.44-4.4 0-1.76.146-3.227.44-4.4h15.4c.293 1.173.44 2.64.44 4.4 0 1.687-.147 3.153-.44 4.4.293 1.173.44 2.64.44 4.4 0 1.687-.147 3.153-.44 4.4.293 1.173.44 2.64.44 4.4 0 1.687-.147 3.153-.44 4.4.293 1.173.44 2.64.44 4.4 0 1.687-.147 3.153-.44 4.4h8.8Z"/></svg>