<svg xmlns="http://www.w3.org/2000/svg" width="500" height="345" fill="none"><path fill="#341A1A" d="M0 0h500v345H0z"/><path fill="#fff" d="M108.64 161.4c0 1.687-.147 3.153-.44 4.4h3.3c.293 1.173.44 2.64.44 4.4 0 1.687-.147 3.153-.44 4.4h-3.3c.293 1.173.44 2.64.44 4.4 0 1.687-.147 3.153-.44 4.4.293 1.173.44 2.64.44 4.4 0 1.687-.147 3.153-.44 4.4.293 1.173.44 2.64.44 4.4 0 1.687-.147 3.153-.44 4.4h-8.8c-.293-1.247-.44-2.713-.44-4.4 0-1.76.147-3.227.44-4.4-.293-1.247-.44-2.713-.44-4.4 0-1.76.147-3.227.44-4.4-.293-1.247-.44-2.713-.44-4.4 0-1.76.147-3.227.44-4.4-.293-1.247-.44-2.713-.44-4.4 0-1.76.147-3.227.44-4.4-.293-1.247-.44-2.713-.44-4.4 0-1.76.147-3.227.44-4.4-.293-1.247-.44-2.713-.44-4.4 0-1.76.147-3.227.44-4.4-.293-1.247-.44-2.713-.44-4.4 0-1.76.147-3.227.44-4.4h8.8c.293 1.173.44 2.64.44 4.4 0 1.687-.147 3.153-.44 4.4.293 1.173.44 2.64.44 4.4 0 1.687-.147 3.153-.44 4.4.293 1.173.44 2.64.44 4.4Zm25.96 13.2c.293 1.173.44 2.64.44 4.4 0 1.687-.147 3.153-.44 4.4.293 1.173.44 2.64.44 4.4 0 1.687-.147 3.153-.44 4.4.293 1.173.44 2.64.44 4.4 0 1.687-.147 3.153-.44 4.4h-8.8c-.293-1.247-.44-2.713-.44-4.4 0-1.76.147-3.227.44-4.4-.293-1.247-.44-2.713-.44-4.4 0-1.76.147-3.227.44-4.4-.293-1.247-.44-2.713-.44-4.4 0-1.76.147-3.227.44-4.4-.293-1.247-.44-2.713-.44-4.4 0-1.76.147-3.227.44-4.4h-14.3c-.293-1.247-.44-2.713-.44-4.4 0-1.76.147-3.227.44-4.4h17.6c.293 1.173.44 2.64.44 4.4 0 1.687-.147 3.153-.44 4.4h5.5c.293 1.173.44 2.64.44 4.4 0 1.687-.147 3.153-.44 4.4Zm44.043 17.6c.293 1.173.44 2.64.44 4.4 0 1.687-.147 3.153-.44 4.4h-8.8c-.293-1.247-.44-2.713-.44-4.4 0-1.76.147-3.227.44-4.4h-4.4c-.293-1.247-.44-2.713-.44-4.4 0-1.76.147-3.227.44-4.4h-13.2c.293 1.173.44 2.64.44 4.4 0 1.687-.147 3.153-.44 4.4h13.2c.293 1.173.44 2.64.44 4.4 0 1.687-.147 3.153-.44 4.4h-17.6c-.293-1.247-.44-2.713-.44-4.4 0-1.76.147-3.227.44-4.4h-4.4c-.293-1.247-.44-2.713-.44-4.4 0-1.76.147-3.227.44-4.4h4.4c-.293-1.247-.44-2.713-.44-4.4 0-1.76.147-3.227.44-4.4h17.6c-.293-1.247-.44-2.713-.44-4.4 0-1.76.147-3.227.44-4.4h-15.4c-.293-1.247-.44-2.713-.44-4.4 0-1.76.147-3.227.44-4.4h19.8c.293 1.173.44 2.64.44 4.4 0 1.687-.147 3.153-.44 4.4h4.4c.293 1.173.44 2.64.44 4.4 0 1.687-.147 3.153-.44 4.4.293 1.173.44 2.64.44 4.4 0 1.687-.147 3.153-.44 4.4.293 1.173.44 2.64.44 4.4 0 1.687-.147 3.153-.44 4.4h4.4Zm16.983-30.8c0 1.687-.147 3.153-.44 4.4h4.4c.293 1.173.44 2.64.44 4.4 0 1.687-.147 3.153-.44 4.4h-3.3c.293 1.173.44 2.64.44 4.4 0 1.687-.147 3.153-.44 4.4.293 1.173.44 2.64.44 4.4 0 1.687-.147 3.153-.44 4.4.293 1.173.44 2.64.44 4.4 0 1.687-.147 3.153-.44 4.4h-8.8c-.293-1.247-.44-2.713-.44-4.4 0-1.76.147-3.227.44-4.4-.293-1.247-.44-2.713-.44-4.4 0-1.76.147-3.227.44-4.4-.293-1.247-.44-2.713-.44-4.4 0-1.76.147-3.227.44-4.4-.293-1.247-.44-2.713-.44-4.4 0-1.76.147-3.227.44-4.4-.293-1.247-.44-2.713-.44-4.4 0-1.76.147-3.227.44-4.4h7.7c.293 1.173.44 2.64.44 4.4Zm27.06 13.2c.293 1.173.44 2.64.44 4.4 0 1.687-.147 3.153-.44 4.4.293 1.173.44 2.64.44 4.4 0 1.687-.147 3.153-.44 4.4.293 1.173.44 2.64.44 4.4 0 1.687-.147 3.153-.44 4.4h-8.8c-.293-1.247-.44-2.713-.44-4.4 0-1.76.147-3.227.44-4.4-.293-1.247-.44-2.713-.44-4.4 0-1.76.147-3.227.44-4.4-.293-1.247-.44-2.713-.44-4.4 0-1.76.147-3.227.44-4.4-.293-1.247-.44-2.713-.44-4.4 0-1.76.147-3.227.44-4.4h-14.3c-.293-1.247-.44-2.713-.44-4.4 0-1.76.147-3.227.44-4.4h17.6c.293 1.173.44 2.64.44 4.4 0 1.687-.147 3.153-.44 4.4h5.5c.293 1.173.44 2.64.44 4.4 0 1.687-.147 3.153-.44 4.4Zm44.043-8.8c.293 1.173.44 2.64.44 4.4 0 1.687-.147 3.153-.44 4.4.293 1.173.44 2.64.44 4.4 0 1.687-.147 3.153-.44 4.4.293 1.173.44 2.64.44 4.4 0 1.687-.147 3.153-.44 4.4.293 1.173.44 2.64.44 4.4 0 1.687-.147 3.153-.44 4.4h-4.4c.293 1.173.44 2.64.44 4.4 0 1.687-.147 3.153-.44 4.4h-4.4c.293 1.173.44 2.64.44 4.4 0 1.687-.147 3.153-.44 4.4h-17.6c-.293-1.247-.44-2.713-.44-4.4 0-1.76.147-3.227.44-4.4h13.2c-.293-1.247-.44-2.713-.44-4.4 0-1.76.147-3.227.44-4.4h4.4c-.293-1.247-.44-2.713-.44-4.4 0-1.76.147-3.227.44-4.4h-4.4c-.293-1.247-.44-2.713-.44-4.4 0-1.76.147-3.227.44-4.4h4.4c-.293-1.247-.44-2.713-.44-4.4 0-1.76.147-3.227.44-4.4-.293-1.247-.44-2.713-.44-4.4 0-1.76.147-3.227.44-4.4h-14.3c.293 1.173.44 2.64.44 4.4 0 1.687-.147 3.153-.44 4.4h-3.3c.293 1.173.44 2.64.44 4.4 0 1.687-.147 3.153-.44 4.4h3.3c.293 1.173.44 2.64.44 4.4 0 1.687-.147 3.153-.44 4.4h9.9c.293 1.173.44 2.64.44 4.4 0 1.687-.147 3.153-.44 4.4h-13.2c-.293-1.247-.44-2.713-.44-4.4 0-1.76.147-3.227.44-4.4h-5.5c-.293-1.247-.44-2.713-.44-4.4 0-1.76.147-3.227.44-4.4h-3.3c-.293-1.247-.44-2.713-.44-4.4 0-1.76.147-3.227.44-4.4h3.3c-.293-1.247-.44-2.713-.44-4.4 0-1.76.147-3.227.44-4.4h5.5c-.293-1.247-.44-2.713-.44-4.4 0-1.76.147-3.227.44-4.4h26.4c.293 1.173.44 2.64.44 4.4 0 1.687-.147 3.153-.44 4.4Zm14.783-4.4c0 1.687-.147 3.153-.44 4.4h3.3c.293 1.173.44 2.64.44 4.4 0 1.687-.147 3.153-.44 4.4.293 1.173.44 2.64.44 4.4 0 1.687-.147 3.153-.44 4.4.293 1.173.44 2.64.44 4.4 0 1.687-.147 3.153-.44 4.4.293 1.173.44 2.64.44 4.4 0 1.687-.147 3.153-.44 4.4h-8.8c-.293-1.247-.44-2.713-.44-4.4 0-1.76.147-3.227.44-4.4-.293-1.247-.44-2.713-.44-4.4 0-1.76.147-3.227.44-4.4-.293-1.247-.44-2.713-.44-4.4 0-1.76.147-3.227.44-4.4-.293-1.247-.44-2.713-.44-4.4 0-1.76.147-3.227.44-4.4-.293-1.247-.44-2.713-.44-4.4 0-1.76.147-3.227.44-4.4h5.5c.293 1.173.44 2.64.44 4.4Zm12.1 0c0 1.687-.147 3.153-.44 4.4h3.3c.293 1.173.44 2.64.44 4.4 0 1.687-.147 3.153-.44 4.4.293 1.173.44 2.64.44 4.4 0 1.687-.147 3.153-.44 4.4.293 1.173.44 2.64.44 4.4 0 1.687-.147 3.153-.44 4.4.293 1.173.44 2.64.44 4.4 0 1.687-.147 3.153-.44 4.4h-6.6c-.293-1.247-.44-2.713-.44-4.4 0-1.76.147-3.227.44-4.4-.293-1.247-.44-2.713-.44-4.4 0-1.76.147-3.227.44-4.4-.293-1.247-.44-2.713-.44-4.4 0-1.76.147-3.227.44-4.4-.293-1.247-.44-2.713-.44-4.4 0-1.76.147-3.227.44-4.4h-5.5c-.293-1.247-.44-2.713-.44-4.4 0-1.76.147-3.227.44-4.4h8.8c.293 1.173.44 2.64.44 4.4Zm17.16 13.2c.293 1.173.44 2.64.44 4.4 0 1.687-.147 3.153-.44 4.4.293 1.173.44 2.64.44 4.4 0 1.687-.147 3.153-.44 4.4.293 1.173.44 2.64.44 4.4 0 1.687-.147 3.153-.44 4.4h-8.8c-.293-1.247-.44-2.713-.44-4.4 0-1.76.147-3.227.44-4.4-.293-1.247-.44-2.713-.44-4.4 0-1.76.147-3.227.44-4.4-.293-1.247-.44-2.713-.44-4.4 0-1.76.147-3.227.44-4.4-.293-1.247-.44-2.713-.44-4.4 0-1.76.147-3.227.44-4.4h-5.5c-.293-1.247-.44-2.713-.44-4.4 0-1.76.147-3.227.44-4.4h9.9c.293 1.173.44 2.64.44 4.4 0 1.687-.147 3.153-.44 4.4h4.4c.293 1.173.44 2.64.44 4.4 0 1.687-.147 3.153-.44 4.4Zm44.043 17.6c.293 1.173.44 2.64.44 4.4 0 1.687-.147 3.153-.44 4.4h-8.8c-.293-1.247-.44-2.713-.44-4.4 0-1.76.147-3.227.44-4.4h-4.4c-.293-1.247-.44-2.713-.44-4.4 0-1.76.147-3.227.44-4.4h-13.2c.293 1.173.44 2.64.44 4.4 0 1.687-.147 3.153-.44 4.4h13.2c.293 1.173.44 2.64.44 4.4 0 1.687-.147 3.153-.44 4.4h-17.6c-.293-1.247-.44-2.713-.44-4.4 0-1.76.147-3.227.44-4.4h-4.4c-.293-1.247-.44-2.713-.44-4.4 0-1.76.147-3.227.44-4.4h4.4c-.293-1.247-.44-2.713-.44-4.4 0-1.76.147-3.227.44-4.4h17.6c-.293-1.247-.44-2.713-.44-4.4 0-1.76.147-3.227.44-4.4h-15.4c-.293-1.247-.44-2.713-.44-4.4 0-1.76.147-3.227.44-4.4h19.8c.293 1.173.44 2.64.44 4.4 0 1.687-.147 3.153-.44 4.4h4.4c.293 1.173.44 2.64.44 4.4 0 1.687-.147 3.153-.44 4.4.293 1.173.44 2.64.44 4.4 0 1.687-.147 3.153-.44 4.4.293 1.173.44 2.64.44 4.4 0 1.687-.147 3.153-.44 4.4h4.4Zm16.983-30.8c0 1.687-.147 3.153-.44 4.4h4.4c.293 1.173.44 2.64.44 4.4 0 1.687-.147 3.153-.44 4.4h-3.3c.293 1.173.44 2.64.44 4.4 0 1.687-.147 3.153-.44 4.4.293 1.173.44 2.64.44 4.4 0 1.687-.147 3.153-.44 4.4.293 1.173.44 2.64.44 4.4 0 1.687-.147 3.153-.44 4.4h-8.8c-.294-1.247-.44-2.713-.44-4.4 0-1.76.146-3.227.44-4.4-.294-1.247-.44-2.713-.44-4.4 0-1.76.146-3.227.44-4.4-.294-1.247-.44-2.713-.44-4.4 0-1.76.146-3.227.44-4.4-.294-1.247-.44-2.713-.44-4.4 0-1.76.146-3.227.44-4.4-.294-1.247-.44-2.713-.44-4.4 0-1.76.146-3.227.44-4.4h7.7c.293 1.173.44 2.64.44 4.4Zm27.06 13.2c.293 1.173.44 2.64.44 4.4 0 1.687-.147 3.153-.44 4.4.293 1.173.44 2.64.44 4.4 0 1.687-.147 3.153-.44 4.4.293 1.173.44 2.64.44 4.4 0 1.687-.147 3.153-.44 4.4h-8.8c-.294-1.247-.44-2.713-.44-4.4 0-1.76.146-3.227.44-4.4-.294-1.247-.44-2.713-.44-4.4 0-1.76.146-3.227.44-4.4-.294-1.247-.44-2.713-.44-4.4 0-1.76.146-3.227.44-4.4-.294-1.247-.44-2.713-.44-4.4 0-1.76.146-3.227.44-4.4h-14.3c-.294-1.247-.44-2.713-.44-4.4 0-1.76.146-3.227.44-4.4h17.6c.293 1.173.44 2.64.44 4.4 0 1.687-.147 3.153-.44 4.4h5.5c.293 1.173.44 2.64.44 4.4 0 1.687-.147 3.153-.44 4.4Z"/></svg>