<svg xmlns="http://www.w3.org/2000/svg" width="500" height="345" fill="none"><path fill="url(#a)" d="M0 0h500v345H0z"/><path fill="#000" d="M160.93 191.486c-2.772 0-5.166-.54-7.182-1.62-1.98-1.116-3.528-2.682-4.644-4.698-1.08-2.016-1.62-4.428-1.62-7.236 0-2.736.54-5.112 1.62-7.128 1.08-2.052 2.556-3.654 4.428-4.806 1.908-1.152 4.104-1.728 6.588-1.728 1.764 0 3.348.306 4.752.918a9.371 9.371 0 0 1 3.564 2.538c1.008 1.116 1.764 2.466 2.268 4.05.54 1.584.81 3.366.81 5.346 0 .576-.162 1.008-.486 1.296-.324.252-.792.378-1.404.378h-18.792v-2.862h17.766l-.864.702c0-1.944-.288-3.582-.864-4.914-.576-1.368-1.422-2.412-2.538-3.132-1.08-.72-2.448-1.08-4.104-1.08-1.836 0-3.402.432-4.698 1.296-1.26.828-2.214 1.998-2.862 3.51-.648 1.476-.972 3.204-.972 5.184v.324c0 3.312.792 5.832 2.376 7.56 1.62 1.728 3.906 2.592 6.858 2.592 1.224 0 2.43-.162 3.618-.486 1.224-.324 2.412-.864 3.564-1.62.504-.324.954-.468 1.35-.432.432 0 .774.126 1.026.378.252.216.414.504.486.864.108.324.072.684-.108 1.08-.144.396-.45.738-.918 1.026-1.188.864-2.592 1.53-4.212 1.998-1.62.468-3.222.702-4.806.702Zm26.904 0c-2.34 0-4.392-.558-6.156-1.674-1.728-1.116-3.078-2.682-4.05-4.698-.936-2.052-1.404-4.464-1.404-7.236 0-2.808.468-5.22 1.404-7.236.972-2.052 2.322-3.618 4.05-4.698 1.764-1.116 3.816-1.674 6.156-1.674 2.376 0 4.41.594 6.102 1.782 1.692 1.188 2.826 2.79 3.402 4.806h-.594v-16.092c0-.72.18-1.26.54-1.62.396-.396.954-.594 1.674-.594.684 0 1.206.198 1.566.594.396.36.594.9.594 1.62v34.344c0 .72-.18 1.278-.54 1.674-.36.396-.9.594-1.62.594-.684 0-1.224-.198-1.62-.594-.36-.396-.54-.954-.54-1.674v-5.13l.594.756c-.576 2.052-1.728 3.69-3.456 4.914-1.692 1.224-3.726 1.836-6.102 1.836Zm.918-3.51c1.62 0 3.042-.396 4.266-1.188 1.224-.792 2.16-1.944 2.808-3.456.684-1.512 1.026-3.33 1.026-5.454 0-3.276-.738-5.778-2.214-7.506-1.44-1.728-3.402-2.592-5.886-2.592-1.656 0-3.096.396-4.32 1.188-1.188.756-2.124 1.89-2.808 3.402-.648 1.476-.972 3.312-.972 5.508 0 3.24.738 5.742 2.214 7.506 1.476 1.728 3.438 2.592 5.886 2.592Zm29.863 3.51c-2.124 0-3.888-.378-5.292-1.134-1.368-.792-2.412-1.962-3.132-3.51-.684-1.548-1.026-3.474-1.026-5.778v-14.472c0-.756.18-1.314.54-1.674.396-.36.936-.54 1.62-.54.72 0 1.26.18 1.62.54.396.36.594.918.594 1.674v14.418c0 2.304.468 4.032 1.404 5.184.972 1.116 2.484 1.674 4.536 1.674 2.232 0 4.05-.756 5.454-2.268 1.404-1.512 2.106-3.492 2.106-5.94v-13.068c0-.756.18-1.314.54-1.674.396-.36.954-.54 1.674-.54.684 0 1.206.18 1.566.54.396.36.594.918.594 1.674v22.518c0 1.512-.702 2.268-2.106 2.268-.684 0-1.224-.198-1.62-.594-.36-.396-.54-.954-.54-1.674v-4.914l.702.756c-.72 2.124-1.908 3.744-3.564 4.86-1.62 1.116-3.51 1.674-5.67 1.674Zm38.045 0c-3.744 0-6.948-.792-9.612-2.376-2.664-1.584-4.716-3.834-6.156-6.75-1.404-2.916-2.106-6.39-2.106-10.422 0-3.024.396-5.724 1.188-8.1.828-2.412 1.998-4.446 3.51-6.102 1.548-1.692 3.438-2.988 5.67-3.888 2.232-.936 4.734-1.404 7.506-1.404 2.232 0 4.356.324 6.372.972 2.016.612 3.762 1.53 5.238 2.754.468.36.774.774.918 1.242.18.432.198.864.054 1.296a2.087 2.087 0 0 1-.648 1.026c-.288.252-.648.378-1.08.378-.432 0-.918-.18-1.458-.54a13.332 13.332 0 0 0-4.266-2.322c-1.548-.504-3.222-.756-5.022-.756-2.844 0-5.256.612-7.236 1.836-1.98 1.188-3.474 2.934-4.482 5.238-1.008 2.304-1.512 5.094-1.512 8.37 0 3.276.504 6.084 1.512 8.424 1.008 2.304 2.502 4.068 4.482 5.292 1.98 1.188 4.392 1.782 7.236 1.782 1.764 0 3.438-.252 5.022-.756a14.771 14.771 0 0 0 4.374-2.376c.54-.36 1.026-.522 1.458-.486.432 0 .792.126 1.08.378.288.252.486.576.594.972.144.396.144.81 0 1.242-.108.432-.378.81-.81 1.134-1.512 1.296-3.294 2.286-5.346 2.97-2.016.648-4.176.972-6.48.972Zm28.28 0c-2.556 0-4.77-.558-6.642-1.674-1.872-1.116-3.33-2.682-4.374-4.698-1.008-2.052-1.512-4.464-1.512-7.236 0-2.088.288-3.96.864-5.616.576-1.692 1.422-3.132 2.538-4.32a11.018 11.018 0 0 1 3.942-2.7c1.548-.648 3.276-.972 5.184-.972 2.556 0 4.77.558 6.642 1.674 1.872 1.116 3.312 2.7 4.32 4.752 1.044 2.016 1.566 4.41 1.566 7.182 0 2.088-.288 3.96-.864 5.616-.576 1.656-1.422 3.096-2.538 4.32a11.51 11.51 0 0 1-3.996 2.754c-1.512.612-3.222.918-5.13.918Zm0-3.51c1.62 0 3.042-.396 4.266-1.188 1.224-.792 2.16-1.944 2.808-3.456.684-1.512 1.026-3.33 1.026-5.454 0-3.276-.738-5.778-2.214-7.506-1.44-1.728-3.402-2.592-5.886-2.592-1.656 0-3.096.396-4.32 1.188-1.188.756-2.124 1.89-2.808 3.402-.648 1.476-.972 3.312-.972 5.508 0 3.24.738 5.742 2.214 7.506 1.476 1.728 3.438 2.592 5.886 2.592Zm30.006 3.51c-2.556 0-4.77-.558-6.642-1.674-1.872-1.116-3.33-2.682-4.374-4.698-1.008-2.052-1.512-4.464-1.512-7.236 0-2.088.288-3.96.864-5.616.576-1.692 1.422-3.132 2.538-4.32a11.018 11.018 0 0 1 3.942-2.7c1.548-.648 3.276-.972 5.184-.972 2.556 0 4.77.558 6.642 1.674 1.872 1.116 3.312 2.7 4.32 4.752 1.044 2.016 1.566 4.41 1.566 7.182 0 2.088-.288 3.96-.864 5.616-.576 1.656-1.422 3.096-2.538 4.32a11.51 11.51 0 0 1-3.996 2.754c-1.512.612-3.222.918-5.13.918Zm0-3.51c1.62 0 3.042-.396 4.266-1.188 1.224-.792 2.16-1.944 2.808-3.456.684-1.512 1.026-3.33 1.026-5.454 0-3.276-.738-5.778-2.214-7.506-1.44-1.728-3.402-2.592-5.886-2.592-1.656 0-3.096.396-4.32 1.188-1.188.756-2.124 1.89-2.808 3.402-.648 1.476-.972 3.312-.972 5.508 0 3.24.738 5.742 2.214 7.506 1.476 1.728 3.438 2.592 5.886 2.592Zm27.089 3.51c-2.592 0-4.572-.792-5.94-2.376-1.368-1.584-2.052-3.852-2.052-6.804v-27.54c0-.72.18-1.26.54-1.62.36-.396.9-.594 1.62-.594.684 0 1.224.198 1.62.594.396.36.594.9.594 1.62v27.216c0 1.944.378 3.402 1.134 4.374.792.936 1.944 1.404 3.456 1.404.324 0 .612-.018.864-.054a5.34 5.34 0 0 1 .756-.054c.396-.036.666.054.81.27.18.216.27.648.27 1.296s-.144 1.134-.432 1.458c-.288.324-.756.54-1.404.648-.288.036-.594.072-.918.108-.324.036-.63.054-.918.054Z"/><defs><linearGradient id="a" x1="250.868" x2="249.132" y1="0" y2="345" gradientUnits="userSpaceOnUse"><stop stop-color="#1196A0"/><stop offset="1" stop-color="#169D61"/></linearGradient></defs></svg>