<svg xmlns="http://www.w3.org/2000/svg" width="500" height="345" fill="none"><path fill="#131313" d="M0 0h500v345H0z"/><mask id="a" width="413" height="54" x="43" y="150" fill="#000" maskUnits="userSpaceOnUse"><path fill="#fff" d="M43 150h413v54H43z"/><path d="M58.818 163.38c2.304 0 4.32.45 6.048 1.35 1.764.864 3.132 2.196 4.104 3.996 1.008 1.8 1.512 4.068 1.512 6.804V192h-3.834v-16.092c0-2.988-.756-5.238-2.268-6.75-1.476-1.548-3.564-2.322-6.264-2.322-2.016 0-3.78.414-5.292 1.242-1.476.792-2.628 1.962-3.456 3.51-.792 1.512-1.188 3.348-1.188 5.508V192h-3.834v-40.068h3.834v19.494l-.756-1.458c.9-2.052 2.34-3.654 4.32-4.806 1.98-1.188 4.338-1.782 7.074-1.782ZM98.604 192v-6.264l-.162-1.026v-10.476c0-2.412-.684-4.266-2.052-5.562-1.332-1.296-3.33-1.944-5.994-1.944-1.836 0-3.582.306-5.238.918-1.656.612-3.06 1.422-4.212 2.43l-1.728-2.862c1.44-1.224 3.168-2.16 5.184-2.808 2.016-.684 4.14-1.026 6.372-1.026 3.672 0 6.498.918 8.478 2.754 2.016 1.8 3.024 4.554 3.024 8.262V192h-3.672Zm-9.774.27c-2.124 0-3.978-.342-5.562-1.026-1.548-.72-2.736-1.692-3.564-2.916-.828-1.26-1.242-2.7-1.242-4.32 0-1.476.342-2.808 1.026-3.996.72-1.224 1.872-2.196 3.456-2.916 1.62-.756 3.78-1.134 6.48-1.134h9.774v2.862h-9.666c-2.736 0-4.644.486-5.724 1.458-1.044.972-1.566 2.178-1.566 3.618 0 1.62.63 2.916 1.89 3.888 1.26.972 3.024 1.458 5.292 1.458 2.16 0 4.014-.486 5.562-1.458 1.584-1.008 2.736-2.448 3.456-4.32l.864 2.646c-.72 1.872-1.98 3.366-3.78 4.482-1.764 1.116-3.996 1.674-6.696 1.674Zm38.332-28.89c2.304 0 4.32.45 6.048 1.35 1.764.864 3.132 2.196 4.104 3.996 1.008 1.8 1.512 4.068 1.512 6.804V192h-3.834v-16.092c0-2.988-.756-5.238-2.268-6.75-1.476-1.548-3.564-2.322-6.264-2.322-2.016 0-3.78.414-5.292 1.242-1.476.792-2.628 1.962-3.456 3.51-.792 1.512-1.188 3.348-1.188 5.508V192h-3.834v-28.35h3.672v7.776l-.594-1.458c.9-2.052 2.34-3.654 4.32-4.806 1.98-1.188 4.338-1.782 7.074-1.782Zm34.116 39.366c-2.592 0-5.076-.378-7.452-1.134-2.376-.756-4.302-1.836-5.778-3.24l1.944-2.916c1.332 1.188 2.97 2.124 4.914 2.808 1.98.72 4.068 1.08 6.264 1.08 3.6 0 6.246-.846 7.938-2.538 1.692-1.656 2.538-4.248 2.538-7.776v-7.074l.54-4.86-.378-4.86v-8.586h3.672v24.894c0 4.896-1.206 8.478-3.618 10.746-2.376 2.304-5.904 3.456-10.584 3.456Zm-.702-11.826c-2.7 0-5.13-.576-7.29-1.728-2.16-1.188-3.87-2.826-5.13-4.914-1.224-2.088-1.836-4.482-1.836-7.182s.612-5.076 1.836-7.128a13.063 13.063 0 0 1 5.13-4.86c2.16-1.152 4.59-1.728 7.29-1.728 2.52 0 4.788.522 6.804 1.566s3.618 2.592 4.806 4.644c1.188 2.052 1.782 4.554 1.782 7.506s-.594 5.454-1.782 7.506c-1.188 2.052-2.79 3.618-4.806 4.698-2.016 1.08-4.284 1.62-6.804 1.62Zm.378-3.402c2.088 0 3.942-.432 5.562-1.296 1.62-.9 2.898-2.124 3.834-3.672.936-1.584 1.404-3.402 1.404-5.454 0-2.052-.468-3.852-1.404-5.4a9.761 9.761 0 0 0-3.834-3.618c-1.62-.9-3.474-1.35-5.562-1.35-2.052 0-3.906.45-5.562 1.35a9.761 9.761 0 0 0-3.834 3.618c-.9 1.548-1.35 3.348-1.35 5.4 0 2.052.45 3.87 1.35 5.454.936 1.548 2.214 2.772 3.834 3.672 1.656.864 3.51 1.296 5.562 1.296Zm60.619-24.138c2.304 0 4.302.45 5.994 1.35 1.728.864 3.06 2.196 3.996 3.996.972 1.8 1.458 4.068 1.458 6.804V192h-3.834v-16.092c0-2.988-.72-5.238-2.16-6.75-1.404-1.548-3.402-2.322-5.994-2.322-1.944 0-3.636.414-5.076 1.242-1.404.792-2.502 1.962-3.294 3.51-.756 1.512-1.134 3.348-1.134 5.508V192h-3.834v-16.092c0-2.988-.72-5.238-2.16-6.75-1.44-1.548-3.456-2.322-6.048-2.322-1.908 0-3.582.414-5.022 1.242-1.44.792-2.556 1.962-3.348 3.51-.756 1.512-1.134 3.348-1.134 5.508V192h-3.834v-28.35h3.672v7.668l-.594-1.35c.864-2.052 2.25-3.654 4.158-4.806 1.944-1.188 4.23-1.782 6.858-1.782 2.772 0 5.13.702 7.074 2.106 1.944 1.368 3.204 3.438 3.78 6.21l-1.512-.594c.828-2.304 2.286-4.158 4.374-5.562 2.124-1.44 4.662-2.16 7.614-2.16ZM261.184 192v-6.264l-.162-1.026v-10.476c0-2.412-.684-4.266-2.052-5.562-1.332-1.296-3.33-1.944-5.994-1.944-1.836 0-3.582.306-5.238.918-1.656.612-3.06 1.422-4.212 2.43l-1.728-2.862c1.44-1.224 3.168-2.16 5.184-2.808 2.016-.684 4.14-1.026 6.372-1.026 3.672 0 6.498.918 8.478 2.754 2.016 1.8 3.024 4.554 3.024 8.262V192h-3.672Zm-9.774.27c-2.124 0-3.978-.342-5.562-1.026-1.548-.72-2.736-1.692-3.564-2.916-.828-1.26-1.242-2.7-1.242-4.32 0-1.476.342-2.808 1.026-3.996.72-1.224 1.872-2.196 3.456-2.916 1.62-.756 3.78-1.134 6.48-1.134h9.774v2.862h-9.666c-2.736 0-4.644.486-5.724 1.458-1.044.972-1.566 2.178-1.566 3.618 0 1.62.63 2.916 1.89 3.888 1.26.972 3.024 1.458 5.292 1.458 2.16 0 4.014-.486 5.562-1.458 1.584-1.008 2.736-2.448 3.456-4.32l.864 2.646c-.72 1.872-1.98 3.366-3.78 4.482-1.764 1.116-3.996 1.674-6.696 1.674Zm38.332-28.89c2.304 0 4.32.45 6.048 1.35 1.764.864 3.132 2.196 4.104 3.996 1.008 1.8 1.512 4.068 1.512 6.804V192h-3.834v-16.092c0-2.988-.756-5.238-2.268-6.75-1.476-1.548-3.564-2.322-6.264-2.322-2.016 0-3.78.414-5.292 1.242-1.476.792-2.628 1.962-3.456 3.51-.792 1.512-1.188 3.348-1.188 5.508V192h-3.834v-28.35h3.672v7.776l-.594-1.458c.9-2.052 2.34-3.654 4.32-4.806 1.98-1.188 4.338-1.782 7.074-1.782Zm19.914 15.66v-3.348h14.148v3.348h-14.148ZM352.292 192 341.6 163.65h3.672l9.72 26.298h-1.674l9.99-26.298h3.294l9.882 26.298h-1.674l9.882-26.298h3.51L377.456 192h-3.618l-9.504-24.732h1.134L355.91 192h-3.618Zm52.934.27c-2.952 0-5.544-.612-7.776-1.836-2.232-1.26-3.978-2.97-5.238-5.13-1.26-2.196-1.89-4.698-1.89-7.506s.594-5.292 1.782-7.452c1.224-2.16 2.88-3.852 4.968-5.076 2.124-1.26 4.5-1.89 7.128-1.89 2.664 0 5.022.612 7.074 1.836 2.088 1.188 3.726 2.88 4.914 5.076 1.188 2.16 1.782 4.662 1.782 7.506 0 .18-.018.378-.054.594v.594h-24.678v-2.862h22.626l-1.512 1.134c0-2.052-.45-3.87-1.35-5.454-.864-1.62-2.052-2.88-3.564-3.78-1.512-.9-3.258-1.35-5.238-1.35-1.944 0-3.69.45-5.238 1.35-1.548.9-2.754 2.16-3.618 3.78-.864 1.62-1.296 3.474-1.296 5.562v.594c0 2.16.468 4.068 1.404 5.724.972 1.62 2.304 2.898 3.996 3.834 1.728.9 3.69 1.35 5.886 1.35 1.728 0 3.33-.306 4.806-.918a9.997 9.997 0 0 0 3.888-2.808l2.16 2.484c-1.26 1.512-2.844 2.664-4.752 3.456-1.872.792-3.942 1.188-6.21 1.188Zm35.182 0c-2.484 0-4.716-.558-6.696-1.674-1.98-1.152-3.546-2.808-4.698-4.968-1.152-2.16-1.728-4.77-1.728-7.83 0-3.096.576-5.706 1.728-7.83 1.188-2.16 2.772-3.798 4.752-4.914 1.98-1.116 4.194-1.674 6.642-1.674 2.7 0 5.112.612 7.236 1.836 2.16 1.188 3.852 2.862 5.076 5.022 1.224 2.16 1.836 4.68 1.836 7.56 0 2.844-.612 5.364-1.836 7.56a13.225 13.225 0 0 1-5.076 5.076c-2.124 1.224-4.536 1.836-7.236 1.836Zm-14.634-.27v-40.068h3.834v20.088l-.54 5.724.378 5.724V192h-3.672Zm14.364-3.132c2.016 0 3.816-.45 5.4-1.35 1.584-.936 2.844-2.232 3.78-3.888.936-1.692 1.404-3.636 1.404-5.832 0-2.232-.468-4.176-1.404-5.832-.936-1.656-2.196-2.934-3.78-3.834-1.584-.936-3.384-1.404-5.4-1.404-2.016 0-3.834.468-5.454 1.404-1.584.9-2.844 2.178-3.78 3.834-.9 1.656-1.35 3.6-1.35 5.832 0 2.196.45 4.14 1.35 5.832.936 1.656 2.196 2.952 3.78 3.888 1.62.9 3.438 1.35 5.454 1.35Z"/></mask><path fill="#fff" d="M58.818 163.38c2.304 0 4.32.45 6.048 1.35 1.764.864 3.132 2.196 4.104 3.996 1.008 1.8 1.512 4.068 1.512 6.804V192h-3.834v-16.092c0-2.988-.756-5.238-2.268-6.75-1.476-1.548-3.564-2.322-6.264-2.322-2.016 0-3.78.414-5.292 1.242-1.476.792-2.628 1.962-3.456 3.51-.792 1.512-1.188 3.348-1.188 5.508V192h-3.834v-40.068h3.834v19.494l-.756-1.458c.9-2.052 2.34-3.654 4.32-4.806 1.98-1.188 4.338-1.782 7.074-1.782ZM98.604 192v-6.264l-.162-1.026v-10.476c0-2.412-.684-4.266-2.052-5.562-1.332-1.296-3.33-1.944-5.994-1.944-1.836 0-3.582.306-5.238.918-1.656.612-3.06 1.422-4.212 2.43l-1.728-2.862c1.44-1.224 3.168-2.16 5.184-2.808 2.016-.684 4.14-1.026 6.372-1.026 3.672 0 6.498.918 8.478 2.754 2.016 1.8 3.024 4.554 3.024 8.262V192h-3.672Zm-9.774.27c-2.124 0-3.978-.342-5.562-1.026-1.548-.72-2.736-1.692-3.564-2.916-.828-1.26-1.242-2.7-1.242-4.32 0-1.476.342-2.808 1.026-3.996.72-1.224 1.872-2.196 3.456-2.916 1.62-.756 3.78-1.134 6.48-1.134h9.774v2.862h-9.666c-2.736 0-4.644.486-5.724 1.458-1.044.972-1.566 2.178-1.566 3.618 0 1.62.63 2.916 1.89 3.888 1.26.972 3.024 1.458 5.292 1.458 2.16 0 4.014-.486 5.562-1.458 1.584-1.008 2.736-2.448 3.456-4.32l.864 2.646c-.72 1.872-1.98 3.366-3.78 4.482-1.764 1.116-3.996 1.674-6.696 1.674Zm38.332-28.89c2.304 0 4.32.45 6.048 1.35 1.764.864 3.132 2.196 4.104 3.996 1.008 1.8 1.512 4.068 1.512 6.804V192h-3.834v-16.092c0-2.988-.756-5.238-2.268-6.75-1.476-1.548-3.564-2.322-6.264-2.322-2.016 0-3.78.414-5.292 1.242-1.476.792-2.628 1.962-3.456 3.51-.792 1.512-1.188 3.348-1.188 5.508V192h-3.834v-28.35h3.672v7.776l-.594-1.458c.9-2.052 2.34-3.654 4.32-4.806 1.98-1.188 4.338-1.782 7.074-1.782Zm34.116 39.366c-2.592 0-5.076-.378-7.452-1.134-2.376-.756-4.302-1.836-5.778-3.24l1.944-2.916c1.332 1.188 2.97 2.124 4.914 2.808 1.98.72 4.068 1.08 6.264 1.08 3.6 0 6.246-.846 7.938-2.538 1.692-1.656 2.538-4.248 2.538-7.776v-7.074l.54-4.86-.378-4.86v-8.586h3.672v24.894c0 4.896-1.206 8.478-3.618 10.746-2.376 2.304-5.904 3.456-10.584 3.456Zm-.702-11.826c-2.7 0-5.13-.576-7.29-1.728-2.16-1.188-3.87-2.826-5.13-4.914-1.224-2.088-1.836-4.482-1.836-7.182s.612-5.076 1.836-7.128a13.063 13.063 0 0 1 5.13-4.86c2.16-1.152 4.59-1.728 7.29-1.728 2.52 0 4.788.522 6.804 1.566s3.618 2.592 4.806 4.644c1.188 2.052 1.782 4.554 1.782 7.506s-.594 5.454-1.782 7.506c-1.188 2.052-2.79 3.618-4.806 4.698-2.016 1.08-4.284 1.62-6.804 1.62Zm.378-3.402c2.088 0 3.942-.432 5.562-1.296 1.62-.9 2.898-2.124 3.834-3.672.936-1.584 1.404-3.402 1.404-5.454 0-2.052-.468-3.852-1.404-5.4a9.761 9.761 0 0 0-3.834-3.618c-1.62-.9-3.474-1.35-5.562-1.35-2.052 0-3.906.45-5.562 1.35a9.761 9.761 0 0 0-3.834 3.618c-.9 1.548-1.35 3.348-1.35 5.4 0 2.052.45 3.87 1.35 5.454.936 1.548 2.214 2.772 3.834 3.672 1.656.864 3.51 1.296 5.562 1.296Zm60.619-24.138c2.304 0 4.302.45 5.994 1.35 1.728.864 3.06 2.196 3.996 3.996.972 1.8 1.458 4.068 1.458 6.804V192h-3.834v-16.092c0-2.988-.72-5.238-2.16-6.75-1.404-1.548-3.402-2.322-5.994-2.322-1.944 0-3.636.414-5.076 1.242-1.404.792-2.502 1.962-3.294 3.51-.756 1.512-1.134 3.348-1.134 5.508V192h-3.834v-16.092c0-2.988-.72-5.238-2.16-6.75-1.44-1.548-3.456-2.322-6.048-2.322-1.908 0-3.582.414-5.022 1.242-1.44.792-2.556 1.962-3.348 3.51-.756 1.512-1.134 3.348-1.134 5.508V192h-3.834v-28.35h3.672v7.668l-.594-1.35c.864-2.052 2.25-3.654 4.158-4.806 1.944-1.188 4.23-1.782 6.858-1.782 2.772 0 5.13.702 7.074 2.106 1.944 1.368 3.204 3.438 3.78 6.21l-1.512-.594c.828-2.304 2.286-4.158 4.374-5.562 2.124-1.44 4.662-2.16 7.614-2.16ZM261.184 192v-6.264l-.162-1.026v-10.476c0-2.412-.684-4.266-2.052-5.562-1.332-1.296-3.33-1.944-5.994-1.944-1.836 0-3.582.306-5.238.918-1.656.612-3.06 1.422-4.212 2.43l-1.728-2.862c1.44-1.224 3.168-2.16 5.184-2.808 2.016-.684 4.14-1.026 6.372-1.026 3.672 0 6.498.918 8.478 2.754 2.016 1.8 3.024 4.554 3.024 8.262V192h-3.672Zm-9.774.27c-2.124 0-3.978-.342-5.562-1.026-1.548-.72-2.736-1.692-3.564-2.916-.828-1.26-1.242-2.7-1.242-4.32 0-1.476.342-2.808 1.026-3.996.72-1.224 1.872-2.196 3.456-2.916 1.62-.756 3.78-1.134 6.48-1.134h9.774v2.862h-9.666c-2.736 0-4.644.486-5.724 1.458-1.044.972-1.566 2.178-1.566 3.618 0 1.62.63 2.916 1.89 3.888 1.26.972 3.024 1.458 5.292 1.458 2.16 0 4.014-.486 5.562-1.458 1.584-1.008 2.736-2.448 3.456-4.32l.864 2.646c-.72 1.872-1.98 3.366-3.78 4.482-1.764 1.116-3.996 1.674-6.696 1.674Zm38.332-28.89c2.304 0 4.32.45 6.048 1.35 1.764.864 3.132 2.196 4.104 3.996 1.008 1.8 1.512 4.068 1.512 6.804V192h-3.834v-16.092c0-2.988-.756-5.238-2.268-6.75-1.476-1.548-3.564-2.322-6.264-2.322-2.016 0-3.78.414-5.292 1.242-1.476.792-2.628 1.962-3.456 3.51-.792 1.512-1.188 3.348-1.188 5.508V192h-3.834v-28.35h3.672v7.776l-.594-1.458c.9-2.052 2.34-3.654 4.32-4.806 1.98-1.188 4.338-1.782 7.074-1.782Zm19.914 15.66v-3.348h14.148v3.348h-14.148ZM352.292 192 341.6 163.65h3.672l9.72 26.298h-1.674l9.99-26.298h3.294l9.882 26.298h-1.674l9.882-26.298h3.51L377.456 192h-3.618l-9.504-24.732h1.134L355.91 192h-3.618Zm52.934.27c-2.952 0-5.544-.612-7.776-1.836-2.232-1.26-3.978-2.97-5.238-5.13-1.26-2.196-1.89-4.698-1.89-7.506s.594-5.292 1.782-7.452c1.224-2.16 2.88-3.852 4.968-5.076 2.124-1.26 4.5-1.89 7.128-1.89 2.664 0 5.022.612 7.074 1.836 2.088 1.188 3.726 2.88 4.914 5.076 1.188 2.16 1.782 4.662 1.782 7.506 0 .18-.018.378-.054.594v.594h-24.678v-2.862h22.626l-1.512 1.134c0-2.052-.45-3.87-1.35-5.454-.864-1.62-2.052-2.88-3.564-3.78-1.512-.9-3.258-1.35-5.238-1.35-1.944 0-3.69.45-5.238 1.35-1.548.9-2.754 2.16-3.618 3.78-.864 1.62-1.296 3.474-1.296 5.562v.594c0 2.16.468 4.068 1.404 5.724.972 1.62 2.304 2.898 3.996 3.834 1.728.9 3.69 1.35 5.886 1.35 1.728 0 3.33-.306 4.806-.918a9.997 9.997 0 0 0 3.888-2.808l2.16 2.484c-1.26 1.512-2.844 2.664-4.752 3.456-1.872.792-3.942 1.188-6.21 1.188Zm35.182 0c-2.484 0-4.716-.558-6.696-1.674-1.98-1.152-3.546-2.808-4.698-4.968-1.152-2.16-1.728-4.77-1.728-7.83 0-3.096.576-5.706 1.728-7.83 1.188-2.16 2.772-3.798 4.752-4.914 1.98-1.116 4.194-1.674 6.642-1.674 2.7 0 5.112.612 7.236 1.836 2.16 1.188 3.852 2.862 5.076 5.022 1.224 2.16 1.836 4.68 1.836 7.56 0 2.844-.612 5.364-1.836 7.56a13.225 13.225 0 0 1-5.076 5.076c-2.124 1.224-4.536 1.836-7.236 1.836Zm-14.634-.27v-40.068h3.834v20.088l-.54 5.724.378 5.724V192h-3.672Zm14.364-3.132c2.016 0 3.816-.45 5.4-1.35 1.584-.936 2.844-2.232 3.78-3.888.936-1.692 1.404-3.636 1.404-5.832 0-2.232-.468-4.176-1.404-5.832-.936-1.656-2.196-2.934-3.78-3.834-1.584-.936-3.384-1.404-5.4-1.404-2.016 0-3.834.468-5.454 1.404-1.584.9-2.844 2.178-3.78 3.834-.9 1.656-1.35 3.6-1.35 5.832 0 2.196.45 4.14 1.35 5.832.936 1.656 2.196 2.952 3.78 3.888 1.62.9 3.438 1.35 5.454 1.35Z"/><path fill="#8CFF00" d="m64.866 164.73-.462.887.011.006.011.005.44-.898Zm4.104 3.996-.88.475.004.007.004.007.872-.489ZM70.482 192v1h1v-1h-1Zm-3.834 0h-1v1h1v-1Zm-2.268-22.842-.724.69.008.009.009.008.707-.707Zm-11.556-1.08.473.881.007-.004-.48-.877Zm-3.456 3.51-.882-.472-.004.008.886.464ZM48.18 192v1h1v-1h-1Zm-3.834 0h-1v1h1v-1Zm0-40.068v-1h-1v1h1Zm3.834 0h1v-1h-1v1Zm0 19.494-.888.46 1.888-.46h-1Zm-.756-1.458-.916-.402-.192.438.22.424.888-.46Zm4.32-4.806.503.864.011-.007-.514-.857Zm7.074-.782c2.172 0 4.025.424 5.586 1.237l.924-1.774c-1.895-.987-4.074-1.463-6.51-1.463v2Zm5.608 1.248c1.569.768 2.787 1.948 3.664 3.573l1.76-.95c-1.067-1.975-2.585-3.459-4.544-4.419l-.88 1.796Zm3.671 3.587c.902 1.609 1.385 3.696 1.385 6.315h2c0-2.853-.525-5.302-1.64-7.293l-1.745.978Zm1.385 6.315V192h2v-16.47h-2Zm1 15.47h-3.834v2h3.834v-2Zm-2.834 1v-16.092h-2V192h2Zm0-16.092c0-3.146-.797-5.693-2.56-7.457l-1.415 1.414c1.26 1.26 1.975 3.213 1.975 6.043h2Zm-2.544-7.44c-1.712-1.795-4.09-2.632-6.988-2.632v2c2.503 0 4.3.711 5.54 2.012l1.448-1.38Zm-6.988-2.632c-2.155 0-4.09.444-5.772 1.365l.96 1.754c1.342-.735 2.935-1.119 4.812-1.119v-2Zm-5.765 1.361c-1.658.89-2.948 2.206-3.865 3.919l1.764.944c.74-1.383 1.753-2.407 3.047-3.101l-.946-1.762Zm-3.869 3.927c-.884 1.688-1.302 3.692-1.302 5.972h2c0-2.04.374-3.708 1.074-5.044l-1.772-.928Zm-1.302 5.972V192h2v-14.904h-2Zm1 13.904h-3.834v2h3.834v-2Zm-2.834 1v-40.068h-2V192h2Zm-1-39.068h3.834v-2h-3.834v2Zm2.834-1v19.494h2v-19.494h-2Zm1.888 19.034-.756-1.458-1.776.92.756 1.458 1.776-.92Zm-.728-.596c.813-1.854 2.106-3.296 3.907-4.344l-1.006-1.728c-2.159 1.256-3.746 3.018-4.733 5.268l1.832.804Zm3.918-4.351c1.798-1.078 3.971-1.639 6.56-1.639v-2c-2.883 0-5.426.627-7.588 1.925l1.029 1.714ZM98.605 192h-1v1h1v-1Zm0-6.264h1v-.078l-.012-.078-.988.156Zm-.162-1.026h-1v.078l.012.078.988-.156Zm-2.052-16.038-.697.717.01.009.687-.726Zm-11.232-1.026-.347-.938.347.938Zm-4.212 2.43-.856.517.617 1.021.898-.785-.659-.753Zm-1.728-2.862-.648-.762-.647.551.44.728.855-.517Zm5.184-2.808.306.952.008-.002.008-.003-.322-.947Zm14.85 1.728-.68.733.007.007.007.006.666-.746ZM102.276 192v1h1v-1h-1Zm-19.008-.756-.421.907.012.006.013.005.396-.918Zm-3.564-2.916-.836.549.008.011.828-.56Zm-.216-8.316-.862-.507-.004.008.866.499Zm3.456-2.916.414.91.01-.004-.424-.906Zm16.254-1.134h1v-1h-1v1Zm0 2.862v1h1v-1h-1Zm-15.39 1.458-.669-.743-.006.005-.006.006.681.732Zm.324 7.506.611-.792-.61.792Zm10.854 0 .532.847.005-.003-.537-.844Zm3.456-4.32.95-.31-.873-2.676-1.01 2.627.933.359Zm.864 2.646.934.359.127-.332-.11-.337-.95.31Zm-3.78 4.482-.527-.85-.007.005.534.845ZM99.604 192v-6.264h-2V192h2Zm-.012-6.42-.162-1.026-1.976.312.162 1.026 1.976-.312Zm-.15-.87v-10.476h-2v10.476h2Zm0-10.476c0-2.605-.745-4.754-2.364-6.288l-1.376 1.452c1.117 1.058 1.74 2.617 1.74 4.836h2Zm-2.354-6.279c-1.587-1.543-3.88-2.227-6.692-2.227v2c2.517 0 4.22.612 5.297 1.661l1.395-1.434Zm-6.692-2.227c-1.95 0-3.813.325-5.585.98l.694 1.876a13.997 13.997 0 0 1 4.891-.856v-2Zm-5.585.98c-1.753.648-3.267 1.516-4.523 2.615l1.317 1.506c1.047-.917 2.34-1.669 3.9-2.245l-.694-1.876Zm-3.009 2.851-1.728-2.862-1.712 1.034 1.728 2.862 1.712-1.034Zm-1.936-1.583c1.328-1.129 2.936-2.005 4.842-2.618l-.612-1.904c-2.126.683-3.974 1.679-5.526 2.998l1.296 1.524Zm4.858-2.623c1.907-.647 3.922-.973 6.05-.973v-2c-2.336 0-4.569.358-6.693 1.079l.642 1.894Zm6.05-.973c3.512 0 6.061.876 7.798 2.487l1.36-1.466c-2.223-2.061-5.326-3.021-9.158-3.021v2Zm7.812 2.5c1.733 1.547 2.69 3.983 2.69 7.516h2c0-3.883-1.059-6.955-3.358-9.008l-1.332 1.492Zm2.69 7.516V192h2v-17.604h-2Zm1 16.604h-3.672v2h3.672v-2Zm-13.446.27c-2.018 0-3.732-.325-5.165-.944l-.793 1.836c1.734.749 3.728 1.108 5.958 1.108v-2Zm-5.14-.933c-1.41-.655-2.446-1.518-3.157-2.569l-1.657 1.12c.944 1.397 2.284 2.478 3.97 3.263l.844-1.814Zm-3.15-2.558c-.713-1.085-1.078-2.331-1.078-3.771h-2c0 1.8.463 3.434 1.406 4.869l1.672-1.098Zm-1.078-3.771c0-1.315.303-2.472.893-3.497l-1.733-.998c-.778 1.351-1.16 2.858-1.16 4.495h2Zm.888-3.489c.594-1.01 1.569-1.858 3.008-2.513l-.828-1.82c-1.728.785-3.058 1.881-3.904 3.319l1.724 1.014Zm3.017-2.517c1.438-.671 3.435-1.04 6.057-1.04v-2c-2.778 0-5.1.387-6.903 1.228l.846 1.812Zm6.057-1.04h9.774v-2h-9.774v2Zm8.774-1v2.862h2v-2.862h-2Zm1 1.862h-9.666v2h9.666v-2Zm-9.666 0c-2.79 0-5.024.483-6.393 1.715l1.338 1.486c.791-.712 2.374-1.201 5.055-1.201v-2Zm-6.405 1.726c-1.25 1.163-1.885 2.635-1.885 4.35h2c0-1.165.409-2.105 1.248-2.886l-1.363-1.464Zm-1.885 4.35c0 1.923.769 3.514 2.28 4.68l1.221-1.584c-1.01-.778-1.5-1.779-1.5-3.096h-2Zm2.28 4.68c1.495 1.154 3.505 1.666 5.902 1.666v-2c-2.138 0-3.657-.46-4.681-1.25l-1.222 1.584Zm5.902 1.666c2.314 0 4.36-.522 6.094-1.611l-1.064-1.694c-1.361.855-3.023 1.305-5.03 1.305v2Zm6.1-1.614c1.776-1.131 3.06-2.748 3.852-4.805l-1.867-.718c-.649 1.687-1.669 2.95-3.06 3.835l1.074 1.688Zm1.968-4.854.864 2.646 1.901-.62-.864-2.646-1.901.62Zm.88 1.977c-.636 1.657-1.747 2.983-3.373 3.991l1.054 1.7c1.974-1.224 3.384-2.886 4.187-4.973l-1.867-.718Zm-3.38 3.996c-1.564.989-3.596 1.519-6.162 1.519v2c2.835 0 5.266-.586 7.23-1.829l-1.069-1.69Zm38.218-25.021-.462.887.011.006.011.005.44-.898Zm4.104 3.996-.88.475.003.007.004.007.873-.489ZM138.826 192v1h1v-1h-1Zm-3.834 0h-1v1h1v-1Zm-2.268-22.842-.724.69.008.009.009.008.707-.707Zm-11.556-1.08.473.881.007-.004-.48-.877Zm-3.456 3.51-.882-.472-.004.008.886.464ZM116.524 192v1h1v-1h-1Zm-3.834 0h-1v1h1v-1Zm0-28.35v-1h-1v1h1Zm3.672 0h1v-1h-1v1Zm0 7.776-.926.377 1.926-.377h-1Zm-.594-1.458-.916-.402-.17.388.16.391.926-.377Zm4.32-4.806.503.864.011-.007-.514-.857Zm7.074-.782c2.172 0 4.024.424 5.586 1.237l.924-1.774c-1.895-.987-4.075-1.463-6.51-1.463v2Zm5.608 1.248c1.569.768 2.786 1.948 3.664 3.573l1.76-.95c-1.067-1.975-2.585-3.459-4.544-4.419l-.88 1.796Zm3.671 3.587c.902 1.609 1.385 3.696 1.385 6.315h2c0-2.853-.525-5.302-1.64-7.293l-1.745.978Zm1.385 6.315V192h2v-16.47h-2Zm1 15.47h-3.834v2h3.834v-2Zm-2.834 1v-16.092h-2V192h2Zm0-16.092c0-3.146-.797-5.693-2.561-7.457l-1.414 1.414c1.26 1.26 1.975 3.213 1.975 6.043h2Zm-2.545-7.44c-1.711-1.795-4.09-2.632-6.987-2.632v2c2.502 0 4.299.711 5.54 2.012l1.447-1.38Zm-6.987-2.632c-2.156 0-4.09.444-5.773 1.365l.961 1.754c1.342-.735 2.935-1.119 4.812-1.119v-2Zm-5.765 1.361c-1.658.89-2.949 2.206-3.865 3.919l1.764.944c.739-1.383 1.753-2.407 3.047-3.101l-.946-1.762Zm-3.869 3.927c-.884 1.688-1.302 3.692-1.302 5.972h2c0-2.04.374-3.708 1.074-5.044l-1.772-.928Zm-1.302 5.972V192h2v-14.904h-2Zm1 13.904h-3.834v2h3.834v-2Zm-2.834 1v-28.35h-2V192h2Zm-1-27.35h3.672v-2h-3.672v2Zm2.672-1v7.776h2v-7.776h-2Zm1.926 7.399-.594-1.458-1.852.754.594 1.458 1.852-.754Zm-.604-.679c.812-1.854 2.105-3.296 3.907-4.344l-1.006-1.728c-2.159 1.256-3.746 3.018-4.733 5.268l1.832.804Zm3.918-4.351c1.798-1.078 3.971-1.639 6.56-1.639v-2c-2.884 0-5.427.627-7.589 1.925l1.029 1.714Zm33.224 35.593.303-.953-.303.953Zm-5.778-3.24-.832-.555-.467.7.61.58.689-.725Zm1.944-2.916.666-.746-.86-.767-.638.958.832.555Zm4.914 2.808.342-.94-.01-.003-.332.943Zm14.202-1.458-.7-.715-.007.008.707.707Zm2.538-14.85-.994-.11-.006.055v.055h1Zm.54-4.86.994.11.01-.093-.007-.095-.997.078Zm-.378-4.86h-1v.039l.003.039.997-.078Zm0-8.586v-1h-1v1h1Zm3.672 0h1v-1h-1v1Zm-3.618 35.64-.685-.729-.006.006-.005.005.696.718Zm-18.576-10.098-.482.876.011.006.471-.882Zm-5.13-4.914-.863.506.007.011.856-.517Zm0-14.31-.856-.517-.003.005.859.512Zm5.13-4.86.471.882-.471-.882Zm14.094-.162.46-.888-.46.888Zm4.806 4.644.865-.501-.865.501Zm0 15.012.865.501-.865-.501Zm-4.806 4.698.472.881-.472-.881Zm-.864-3.078.471.882.007-.004.008-.004-.486-.874Zm3.834-3.672.856.517.005-.008-.861-.509Zm-3.834-14.472-.486.874.008.004.007.004.471-.882Zm-11.124 0 .471.882.006-.003-.477-.879Zm-3.834 3.618-.856-.517-.004.007-.005.007.865.503Zm0 10.854-.87.494.007.012.007.011.856-.517Zm3.834 3.672-.486.874.012.007.011.006.463-.887Zm5.886 15.524c-2.493 0-4.875-.363-7.149-1.087l-.606 1.906a25.44 25.44 0 0 0 7.755 1.181v-2Zm-7.149-1.087c-2.263-.72-4.047-1.733-5.392-3.012l-1.378 1.45c1.607 1.529 3.675 2.676 6.164 3.468l.606-1.906Zm-5.249-1.732 1.944-2.916-1.664-1.11-1.944 2.916 1.664 1.11Zm.446-2.725c1.444 1.287 3.2 2.285 5.248 3.005l.664-1.886c-1.84-.648-3.36-1.522-4.58-2.611l-1.332 1.492Zm5.238 3.002c2.094.761 4.298 1.14 6.606 1.14v-2c-2.085 0-4.056-.341-5.922-1.02l-.684 1.88Zm6.606 1.14c3.733 0 6.689-.875 8.645-2.831l-1.414-1.414c-1.428 1.428-3.764 2.245-7.231 2.245v2Zm8.637-2.823c1.962-1.92 2.839-4.825 2.839-8.491h-2c0 3.39-.815 5.669-2.238 7.061l1.399 1.43Zm2.839-8.491v-7.074h-2v7.074h2Zm-.006-6.964.54-4.86-1.988-.22-.54 4.86 1.988.22Zm.543-5.048-.378-4.86-1.994.156.378 4.86 1.994-.156Zm-.375-4.782v-8.586h-2v8.586h2Zm-1-7.586h3.672v-2h-3.672v2Zm2.672-1v24.894h2V163.65h-2Zm0 24.894c0 4.753-1.172 8.013-3.303 10.017l1.37 1.458c2.693-2.532 3.933-6.436 3.933-11.475h-2Zm-3.314 10.028c-2.124 2.06-5.36 3.174-9.888 3.174v2c4.832 0 8.652-1.19 11.28-3.738l-1.392-1.436Zm-10.59-8.652c-2.553 0-4.819-.543-6.819-1.61l-.942 1.764c2.32 1.237 4.914 1.846 7.761 1.846v-2Zm-6.808-1.604c-2.008-1.104-3.588-2.619-4.756-4.555l-1.712 1.034c1.352 2.24 3.192 4.001 5.504 5.273l.964-1.752Zm-4.749-4.544c-1.124-1.917-1.699-4.133-1.699-6.676h-2c0 2.857.649 5.429 1.973 7.688l1.726-1.012Zm-1.699-6.676c0-2.544.575-4.738 1.695-6.616l-1.718-1.024c-1.328 2.226-1.977 4.784-1.977 7.64h2Zm1.692-6.611a12.07 12.07 0 0 1 4.745-4.495l-.942-1.764a14.056 14.056 0 0 0-5.515 5.225l1.712 1.034Zm4.745-4.495c2-1.067 4.266-1.61 6.819-1.61v-2c-2.847 0-5.441.609-7.761 1.846l.942 1.764Zm6.819-1.61c2.378 0 4.485.491 6.344 1.454l.92-1.776c-2.173-1.125-4.602-1.678-7.264-1.678v2Zm6.344 1.454c1.839.952 3.304 2.362 4.401 4.257l1.73-1.002c-1.279-2.209-3.018-3.895-5.211-5.031l-.92 1.776Zm4.401 4.257c1.08 1.867 1.647 4.186 1.647 7.005h2c0-3.085-.621-5.77-1.917-8.007l-1.73 1.002Zm1.647 7.005c0 2.819-.567 5.138-1.647 7.005l1.73 1.002c1.296-2.237 1.917-4.922 1.917-8.007h-2Zm-1.647 7.005c-1.099 1.897-2.567 3.329-4.413 4.318l.944 1.762c2.186-1.171 3.922-2.871 5.199-5.078l-1.73-1.002Zm-4.413 4.318c-1.857.994-3.96 1.501-6.332 1.501v2c2.668 0 5.101-.573 7.276-1.739l-.944-1.762Zm-5.954.099c2.229 0 4.249-.462 6.033-1.414l-.942-1.764c-1.456.776-3.144 1.178-5.091 1.178v2Zm6.048-1.422c1.768-.982 3.175-2.328 4.204-4.029l-1.712-1.034c-.843 1.395-1.992 2.497-3.464 3.315l.972 1.748Zm4.209-4.037c1.037-1.756 1.543-3.753 1.543-5.963h-2c0 1.894-.43 3.533-1.265 4.945l1.722 1.018Zm1.543-5.963c0-2.209-.506-4.193-1.548-5.917l-1.712 1.034c.83 1.372 1.26 2.988 1.26 4.883h2Zm-1.548-5.917a10.76 10.76 0 0 0-4.219-3.983l-.942 1.764a8.763 8.763 0 0 1 3.449 3.253l1.712-1.034Zm-4.204-3.975c-1.787-.993-3.812-1.476-6.048-1.476v2c1.94 0 3.623.417 5.076 1.224l.972-1.748Zm-6.048-1.476c-2.204 0-4.224.485-6.04 1.471l.955 1.758c1.497-.814 3.185-1.229 5.085-1.229v-2Zm-6.033 1.468a10.76 10.76 0 0 0-4.219 3.983l1.712 1.034a8.763 8.763 0 0 1 3.449-3.253l-.942-1.764Zm-4.228 3.997c-1.001 1.722-1.485 3.701-1.485 5.903h2c0-1.902.415-3.523 1.214-4.897l-1.729-1.006Zm-1.485 5.903c0 2.203.485 4.195 1.48 5.948l1.739-.988c-.804-1.415-1.219-3.059-1.219-4.96h-2Zm1.494 5.971c1.029 1.701 2.436 3.047 4.204 4.029l.972-1.748c-1.472-.818-2.621-1.92-3.464-3.315l-1.712 1.034Zm4.227 4.042c1.813.945 3.828 1.409 6.025 1.409v-2c-1.907 0-3.6-.4-5.099-1.183l-.926 1.774Zm72.638-22.379-.47.883.011.006.012.005.447-.894Zm3.996 3.996-.887.461.003.007.004.007.88-.475ZM233.021 192v1h1v-1h-1Zm-3.834 0h-1v1h1v-1Zm-2.16-22.842-.741.672.008.009.009.009.724-.69Zm-11.07-1.08.491.871.007-.004-.498-.867Zm-3.294 3.51-.891-.455-.004.008.895.447ZM211.529 192v1h1v-1h-1Zm-3.834 0h-1v1h1v-1Zm-2.16-22.842-.733.681.009.009.724-.69Zm-11.07-1.08.482.876.008-.004.008-.005-.498-.867Zm-3.348 3.51-.891-.455-.004.008.895.447ZM189.983 192v1h1v-1h-1Zm-3.834 0h-1v1h1v-1Zm0-28.35v-1h-1v1h1Zm3.672 0h1v-1h-1v1Zm0 7.668-.916.403 1.916-.403h-1Zm-.594-1.35-.922-.388-.167.397.173.394.916-.403Zm4.158-4.806.517.856.004-.003-.521-.853Zm13.932.324-.586.811.01.007.576-.818Zm3.78 6.21-.366.931 1.721.676-.376-1.81-.979.203Zm-1.512-.594-.941-.338-.329.914.904.355.366-.931Zm4.374-5.562.558.83.003-.002-.561-.828Zm7.614-1.16c2.173 0 4.003.424 5.524 1.233l.939-1.766c-1.863-.991-4.028-1.467-6.463-1.467v2Zm5.547 1.244c1.529.765 2.712 1.941 3.556 3.563l1.774-.922c-1.028-1.978-2.51-3.466-4.436-4.429l-.894 1.788Zm3.563 3.577c.871 1.613 1.338 3.705 1.338 6.329h2c0-2.848-.505-5.292-1.578-7.279l-1.76.95Zm1.338 6.329V192h2v-16.47h-2Zm1 15.47h-3.834v2h3.834v-2Zm-2.834 1v-16.092h-2V192h2Zm0-16.092c0-3.134-.755-5.675-2.436-7.44l-1.448 1.38c1.199 1.259 1.884 3.218 1.884 6.06h2Zm-2.42-7.422c-1.637-1.805-3.933-2.65-6.734-2.65v2c2.383 0 4.083.703 5.253 1.994l1.481-1.344Zm-6.734-2.65c-2.089 0-3.959.446-5.575 1.375l.997 1.734c1.264-.727 2.779-1.109 4.578-1.109v-2Zm-5.568 1.371c-1.588.896-2.819 2.217-3.693 3.926l1.781.91c.71-1.387 1.675-2.406 2.895-3.094l-.983-1.742Zm-3.697 3.934c-.842 1.684-1.239 3.682-1.239 5.955h2c0-2.047.358-3.721 1.028-5.061l-1.789-.894Zm-1.239 5.955V192h2v-14.904h-2Zm1 13.904h-3.834v2h3.834v-2Zm-2.834 1v-16.092h-2V192h2Zm0-16.092c0-3.134-.755-5.675-2.436-7.44l-1.448 1.38c1.199 1.259 1.884 3.218 1.884 6.06h2Zm-2.428-7.431c-1.671-1.796-3.978-2.641-6.78-2.641v2c2.381 0 4.106.703 5.316 2.003l1.464-1.362Zm-6.78-2.641c-2.057 0-3.908.448-5.521 1.375l.997 1.734c1.267-.729 2.764-1.109 4.524-1.109v-2Zm-5.504 1.366c-1.626.894-2.879 2.216-3.757 3.931l1.781.91c.707-1.381 1.685-2.399 2.94-3.089l-.964-1.752Zm-3.761 3.939c-.842 1.684-1.239 3.682-1.239 5.955h2c0-2.047.358-3.721 1.028-5.061l-1.789-.894Zm-1.239 5.955V192h2v-14.904h-2Zm1 13.904h-3.834v2h3.834v-2Zm-2.834 1v-28.35h-2V192h2Zm-1-27.35h3.672v-2h-3.672v2Zm2.672-1v7.668h2v-7.668h-2Zm1.915 7.265-.594-1.35-1.831.806.594 1.35 1.831-.806Zm-.588-.559c.782-1.857 2.026-3.295 3.754-4.338l-1.034-1.712c-2.089 1.261-3.617 3.027-4.563 5.274l1.843.776Zm3.758-4.341c1.764-1.078 3.864-1.635 6.337-1.635v-2c-2.784 0-5.256.631-7.38 1.929l1.043 1.706Zm6.337-1.635c2.595 0 4.74.654 6.488 1.917l1.171-1.622c-2.14-1.545-4.711-2.295-7.659-2.295v2Zm6.498 1.924c1.698 1.195 2.842 3.022 3.377 5.595l1.958-.406c-.617-2.971-1.994-5.284-4.184-6.825l-1.151 1.636Zm4.721 4.461-1.512-.594-.731 1.862 1.512.594.731-1.862Zm-.936.675c.754-2.097 2.074-3.782 3.991-5.07l-1.116-1.66c-2.26 1.52-3.855 3.543-4.757 6.054l1.882.676Zm3.994-5.072c1.934-1.312 4.27-1.988 7.053-1.988v-2c-3.121 0-5.862.764-8.175 2.332l1.122 1.656ZM261.184 192h-1v1h1v-1Zm0-6.264h1v-.078l-.012-.078-.988.156Zm-.162-1.026h-1v.078l.013.078.987-.156Zm-2.052-16.038-.697.717.01.009.687-.726Zm-11.232-1.026-.346-.938.346.938Zm-4.212 2.43-.856.517.617 1.021.898-.785-.659-.753Zm-1.728-2.862-.647-.762-.648.551.439.728.856-.517Zm5.184-2.808.306.952.008-.002.008-.003-.322-.947Zm14.85 1.728-.68.733.007.007.007.006.666-.746ZM264.856 192v1h1v-1h-1Zm-19.008-.756-.421.907.012.006.013.005.396-.918Zm-3.564-2.916-.836.549.008.011.828-.56Zm-.216-8.316-.862-.507-.004.008.866.499Zm3.456-2.916.414.91.009-.004-.423-.906Zm16.254-1.134h1v-1h-1v1Zm0 2.862v1h1v-1h-1Zm-15.39 1.458-.669-.743-.006.005-.006.006.681.732Zm.324 7.506.611-.792-.611.792Zm10.854 0 .532.847.005-.003-.537-.844Zm3.456-4.32.951-.31-.874-2.676-1.01 2.627.933.359Zm.864 2.646.934.359.127-.332-.11-.337-.951.31Zm-3.78 4.482-.527-.85-.007.005.534.845Zm4.078 1.404v-6.264h-2V192h2Zm-.012-6.42-.162-1.026-1.975.312.162 1.026 1.975-.312Zm-.15-.87v-10.476h-2v10.476h2Zm0-10.476c0-2.605-.744-4.754-2.364-6.288l-1.375 1.452c1.116 1.058 1.739 2.617 1.739 4.836h2Zm-2.354-6.279c-1.587-1.543-3.88-2.227-6.692-2.227v2c2.517 0 4.219.612 5.297 1.661l1.395-1.434Zm-6.692-2.227c-1.949 0-3.813.325-5.584.98l.693 1.876a13.998 13.998 0 0 1 4.891-.856v-2Zm-5.584.98c-1.753.648-3.268 1.516-4.524 2.615l1.317 1.506c1.047-.917 2.341-1.669 3.9-2.245l-.693-1.876Zm-3.01 2.851-1.728-2.862-1.712 1.034 1.728 2.862 1.712-1.034Zm-1.936-1.583c1.328-1.129 2.936-2.005 4.842-2.618l-.612-1.904c-2.126.683-3.974 1.679-5.525 2.998l1.295 1.524Zm4.858-2.623c1.907-.647 3.922-.973 6.05-.973v-2c-2.336 0-4.569.358-6.693 1.079l.643 1.894Zm6.05-.973c3.512 0 6.061.876 7.798 2.487l1.36-1.466c-2.223-2.061-5.326-3.021-9.158-3.021v2Zm7.812 2.5c1.733 1.547 2.69 3.983 2.69 7.516h2c0-3.883-1.059-6.955-3.358-9.008l-1.332 1.492Zm2.69 7.516V192h2v-17.604h-2Zm1 16.604h-3.672v2h3.672v-2Zm-13.446.27c-2.018 0-3.732-.325-5.165-.944l-.793 1.836c1.734.749 3.729 1.108 5.958 1.108v-2Zm-5.14-.933c-1.41-.655-2.446-1.518-3.157-2.569l-1.657 1.12c.945 1.397 2.284 2.478 3.971 3.263l.843-1.814Zm-3.15-2.558c-.713-1.085-1.078-2.331-1.078-3.771h-2c0 1.8.463 3.434 1.407 4.869l1.671-1.098Zm-1.078-3.771c0-1.315.303-2.472.893-3.497l-1.733-.998c-.778 1.351-1.16 2.858-1.16 4.495h2Zm.888-3.489c.594-1.01 1.569-1.858 3.008-2.513l-.828-1.82c-1.728.785-3.058 1.881-3.904 3.319l1.724 1.014Zm3.017-2.517c1.438-.671 3.436-1.04 6.057-1.04v-2c-2.778 0-5.1.387-6.903 1.228l.846 1.812Zm6.057-1.04h9.774v-2h-9.774v2Zm8.774-1v2.862h2v-2.862h-2Zm1 1.862h-9.666v2h9.666v-2Zm-9.666 0c-2.791 0-5.024.483-6.393 1.715l1.338 1.486c.792-.712 2.374-1.201 5.055-1.201v-2Zm-6.405 1.726c-1.25 1.163-1.885 2.635-1.885 4.35h2c0-1.165.409-2.105 1.248-2.886l-1.363-1.464Zm-1.885 4.35c0 1.923.769 3.514 2.279 4.68l1.222-1.584c-1.009-.778-1.501-1.779-1.501-3.096h-2Zm2.279 4.68c1.496 1.154 3.506 1.666 5.903 1.666v-2c-2.138 0-3.657-.46-4.681-1.25l-1.222 1.584Zm5.903 1.666c2.314 0 4.36-.522 6.094-1.611l-1.064-1.694c-1.361.855-3.023 1.305-5.03 1.305v2Zm6.099-1.614c1.777-1.131 3.061-2.748 3.853-4.805l-1.867-.718c-.649 1.687-1.669 2.95-3.06 3.835l1.074 1.688Zm1.969-4.854.864 2.646 1.901-.62-.864-2.646-1.901.62Zm.881 1.977c-.637 1.657-1.748 2.983-3.374 3.991l1.054 1.7c1.975-1.224 3.384-2.886 4.187-4.973l-1.867-.718Zm-3.381 3.996c-1.564.989-3.596 1.519-6.162 1.519v2c2.835 0 5.266-.586 7.231-1.829l-1.069-1.69Zm38.218-25.021-.462.887.011.006.011.005.44-.898Zm4.104 3.996-.88.475.004.007.003.007.873-.489ZM301.406 192v1h1v-1h-1Zm-3.834 0h-1v1h1v-1Zm-2.268-22.842-.724.69.008.009.009.008.707-.707Zm-11.556-1.08.473.881.007-.004-.48-.877Zm-3.456 3.51-.882-.472-.004.008.886.464ZM279.104 192v1h1v-1h-1Zm-3.834 0h-1v1h1v-1Zm0-28.35v-1h-1v1h1Zm3.672 0h1v-1h-1v1Zm0 7.776-.926.377 1.926-.377h-1Zm-.594-1.458-.916-.402-.17.388.16.391.926-.377Zm4.32-4.806.503.864.011-.007-.514-.857Zm7.074-.782c2.172 0 4.024.424 5.586 1.237l.924-1.774c-1.895-.987-4.075-1.463-6.51-1.463v2Zm5.608 1.248c1.569.768 2.787 1.948 3.664 3.573l1.76-.95c-1.067-1.975-2.585-3.459-4.544-4.419l-.88 1.796Zm3.671 3.587c.902 1.609 1.385 3.696 1.385 6.315h2c0-2.853-.525-5.302-1.64-7.293l-1.745.978Zm1.385 6.315V192h2v-16.47h-2Zm1 15.47h-3.834v2h3.834v-2Zm-2.834 1v-16.092h-2V192h2Zm0-16.092c0-3.146-.797-5.693-2.561-7.457l-1.414 1.414c1.26 1.26 1.975 3.213 1.975 6.043h2Zm-2.544-7.44c-1.712-1.795-4.091-2.632-6.988-2.632v2c2.502 0 4.3.711 5.54 2.012l1.448-1.38Zm-6.988-2.632c-2.155 0-4.09.444-5.772 1.365l.96 1.754c1.342-.735 2.935-1.119 4.812-1.119v-2Zm-5.765 1.361c-1.658.89-2.949 2.206-3.865 3.919l1.764.944c.739-1.383 1.753-2.407 3.047-3.101l-.946-1.762Zm-3.869 3.927c-.884 1.688-1.302 3.692-1.302 5.972h2c0-2.04.374-3.708 1.074-5.044l-1.772-.928Zm-1.302 5.972V192h2v-14.904h-2Zm1 13.904h-3.834v2h3.834v-2Zm-2.834 1v-28.35h-2V192h2Zm-1-27.35h3.672v-2h-3.672v2Zm2.672-1v7.776h2v-7.776h-2Zm1.926 7.399-.594-1.458-1.852.754.594 1.458 1.852-.754Zm-.604-.679c.812-1.854 2.106-3.296 3.907-4.344l-1.006-1.728c-2.159 1.256-3.746 3.018-4.733 5.268l1.832.804Zm3.918-4.351c1.798-1.078 3.971-1.639 6.56-1.639v-2c-2.884 0-5.427.627-7.589 1.925l1.029 1.714Zm26.474 13.021h-1v1h1v-1Zm0-3.348v-1h-1v1h1Zm14.148 0h1v-1h-1v1Zm0 3.348v1h1v-1h-1Zm-13.148 0v-3.348h-2v3.348h2Zm-1-2.348h14.148v-2h-14.148v2Zm13.148-1v3.348h2v-3.348h-2Zm1 2.348h-14.148v2h14.148v-2ZM352.292 192l-.936.353.244.647h.692v-1ZM341.6 163.65v-1h-1.446l.51 1.353.936-.353Zm3.672 0 .938-.347-.242-.653h-.696v1Zm9.72 26.298v1h1.436l-.498-1.347-.938.347Zm-1.674 0-.935-.355-.515 1.355h1.45v-1Zm9.99-26.298v-1h-.69l-.245.645.935.355Zm3.294 0 .936-.352-.244-.648h-.692v1Zm9.882 26.298v1h1.444l-.508-1.352-.936.352Zm-1.674 0-.936-.352-.508 1.352h1.444v-1Zm9.882-26.298v-1h-.693l-.243.648.936.352Zm3.51 0 .935.354.513-1.354h-1.448v1ZM377.456 192v1h.69l.245-.646-.935-.354Zm-3.618 0-.933.359.246.641h.687v-1Zm-9.504-24.732v-1h-1.456l.523 1.359.933-.359Zm1.134 0 .933.36.526-1.36h-1.459v1ZM355.91 192v1h.686l.247-.64-.933-.36Zm-2.682-.353-10.692-28.35-1.872.706 10.692 28.35 1.872-.706ZM341.6 164.65h3.672v-2H341.6v2Zm2.734-.653 9.72 26.298 1.876-.694-9.72-26.298-1.876.694Zm10.658 24.951h-1.674v2h1.674v-2Zm-.739 1.355 9.99-26.298-1.87-.71-9.99 26.298 1.87.71Zm9.055-25.653h3.294v-2h-3.294v2Zm2.358-.648 9.882 26.298 1.872-.704-9.882-26.298-1.872.704Zm10.818 24.946h-1.674v2h1.674v-2Zm-.738 1.352 9.882-26.298-1.872-.704-9.882 26.298 1.872.704Zm8.946-25.65h3.51v-2h-3.51v2Zm2.575-1.354-10.746 28.35 1.87.708 10.746-28.35-1.87-.708ZM377.456 191h-3.618v2h3.618v-2Zm-2.685.641-9.504-24.732-1.866.718 9.504 24.732 1.866-.718Zm-10.437-23.373h1.134v-2h-1.134v2Zm.201-1.36-9.558 24.732 1.866.72 9.558-24.732-1.866-.72ZM355.91 191h-3.618v2h3.618v-2Zm41.54-.566-.492.871.011.006.481-.877Zm-5.238-5.13-.867.498.003.006.864-.504Zm-.108-14.958-.87-.493-.006.011.876.482Zm4.968-5.076.506.863.004-.003-.51-.86Zm14.202-.054-.512.859.008.005.009.005.495-.869Zm4.914 5.076-.88.476.004.006.876-.482Zm1.728 8.1-.987-.164-.013.081v.083h1Zm0 .594v1h1v-1h-1Zm-24.678 0h-1v1h1v-1Zm0-2.862v-1h-1v1h1Zm22.626 0 .6.8 2.4-1.8h-3v1Zm-1.512 1.134h-1v2l1.6-1.2-.6-.8Zm-1.35-5.454-.882.471.006.011.006.012.87-.494Zm-3.564-3.78.511-.859-.511.859Zm-10.476 0-.503-.865.503.865Zm-3.618 3.78.882.471-.882-.471Zm.108 11.88-.871.492.007.011.006.011.858-.514Zm3.996 3.834-.484.875.011.006.011.006.462-.887Zm10.692.432-.375-.927-.008.003.383.924Zm3.888-2.808.754-.656-.76-.874-.753.879.759.651Zm2.16 2.484.768.64.545-.654-.559-.642-.754.656Zm-4.752 3.456-.383-.924-.007.003.39.921Zm-6.21.188c-2.811 0-5.233-.582-7.295-1.713l-.962 1.754c2.401 1.317 5.164 1.959 8.257 1.959v-2Zm-7.285-1.707c-2.081-1.175-3.697-2.76-4.865-4.763l-1.728 1.008c1.352 2.317 3.228 4.152 5.61 5.497l.983-1.742Zm-4.862-4.757c-1.164-2.028-1.757-4.355-1.757-7.008h-2c0 2.963.666 5.64 2.023 8.004l1.734-.996Zm-1.757-7.008c0-2.663.562-4.977 1.658-6.97l-1.752-.964c-1.28 2.327-1.906 4.981-1.906 7.934h2Zm1.652-6.959c1.139-2.011 2.672-3.574 4.604-4.706l-1.012-1.726c-2.244 1.316-4.024 3.137-5.332 5.446l1.74.986Zm4.608-4.709c1.96-1.162 4.157-1.75 6.618-1.75v-2c-2.796 0-5.35.672-7.638 2.03l1.02 1.72Zm6.618-1.75c2.505 0 4.682.574 6.562 1.695l1.024-1.718c-2.224-1.327-4.763-1.977-7.586-1.977v2Zm6.579 1.705c1.919 1.092 3.427 2.645 4.529 4.683l1.759-.952c-1.273-2.354-3.041-4.185-5.299-5.469l-.989 1.738Zm4.533 4.689c1.095 1.991 1.658 4.322 1.658 7.024h2c0-2.986-.625-5.659-1.906-7.988l-1.752.964Zm1.658 7.024c0 .115-.012.257-.041.43l1.973.328a4.65 4.65 0 0 0 .068-.758h-2Zm-.054.594V178.986h2V178.392h-2Zm1-.406h-24.678v2h24.678v-2Zm-23.678 1v-2.862h-2v2.862h2Zm-1-1.862h22.626v-2h-22.626v2Zm22.026-1.8-1.512 1.134 1.2 1.6 1.512-1.134-1.2-1.6Zm.088 1.934c0-2.203-.485-4.195-1.481-5.948l-1.739.988c.804 1.415 1.22 3.059 1.22 4.96h2Zm-1.468-5.925c-.946-1.773-2.259-3.171-3.935-4.168l-1.023 1.718c1.349.803 2.411 1.925 3.194 3.392l1.764-.942Zm-3.935-4.168c-1.685-1.004-3.612-1.491-5.749-1.491v2c1.823 0 3.388.413 4.726 1.209l1.023-1.718Zm-5.749-1.491c-2.105 0-4.027.489-5.741 1.485l1.006 1.73c1.382-.804 2.952-1.215 4.735-1.215v-2Zm-5.741 1.485c-1.713.996-3.048 2.395-3.997 4.174l1.764.942c.779-1.461 1.855-2.582 3.239-3.386l-1.006-1.73Zm-3.997 4.174c-.952 1.784-1.414 3.804-1.414 6.033h2c0-1.947.402-3.635 1.178-5.091l-1.764-.942Zm-1.414 6.033v.594h2v-.594h-2Zm0 .594c0 2.309.502 4.391 1.533 6.216l1.741-.984c-.84-1.487-1.274-3.221-1.274-5.232h-2Zm1.546 6.238c1.065 1.775 2.528 3.176 4.37 4.195l.968-1.75c-1.542-.853-2.743-2.008-3.623-3.473l-1.715 1.028Zm4.392 4.207c1.888.983 4.012 1.463 6.348 1.463v-2c-2.056 0-3.856-.42-5.424-1.237l-.924 1.774Zm6.348 1.463c1.849 0 3.582-.328 5.189-.994l-.766-1.848c-1.345.558-2.816.842-4.423.842v2Zm5.181-.991a10.996 10.996 0 0 0 4.272-3.084l-1.518-1.302a8.999 8.999 0 0 1-3.504 2.532l.75 1.854Zm2.758-3.079 2.16 2.484 1.509-1.312-2.16-2.484-1.509 1.312Zm2.147 1.188c-1.152 1.381-2.601 2.439-4.367 3.172l.766 1.848c2.05-.851 3.768-2.097 5.137-3.74l-1.536-1.28Zm-4.374 3.175c-1.735.734-3.67 1.109-5.82 1.109v2c2.386 0 4.591-.417 6.6-1.267l-.78-1.842Zm22.666.435-.503.864.012.007.491-.871Zm-4.698-4.968.882-.471-.882.471Zm0-15.66-.876-.482-.003.005.879.477Zm4.752-4.914.491.871-.491-.871Zm13.878.162-.5.866.009.005.009.005.482-.876Zm5.076 5.022.87-.493-.87.493Zm0 15.12.87.493.003-.006-.873-.487Zm-5.076 5.076-.493-.87-.007.004.5.866ZM425.774 192h-1v1h1v-1Zm0-40.068v-1h-1v1h1Zm3.834 0h1v-1h-1v1Zm0 20.088.995.094.005-.047v-.047h-1Zm-.54 5.724-.996-.094-.007.08.005.08.998-.066Zm.378 5.724h1v-.033l-.002-.033-.998.066Zm0 8.532v1h1v-1h-1Zm16.092-4.482.494.869.007-.004.007-.004-.508-.861Zm3.78-3.888.87.492.005-.008-.875-.484Zm-3.78-15.498-.509.861.007.004.008.004.494-.869Zm-10.854 0 .494.869.006-.003-.5-.866Zm-3.78 3.834-.871-.492-.004.007-.004.007.879.478Zm0 11.664-.883.47.006.011.006.011.871-.492Zm3.78 3.888-.509.861.011.007.012.006.486-.874Zm5.724 3.752c-2.329 0-4.389-.521-6.205-1.545l-.982 1.742c2.143 1.208 4.547 1.803 7.187 1.803v-2Zm-6.193-1.538c-1.809-1.052-3.248-2.567-4.319-4.575l-1.765.942c1.234 2.312 2.926 4.109 5.078 5.361l1.006-1.728Zm-4.319-4.575c-1.058-1.983-1.61-4.423-1.61-7.359h-2c0 3.184.599 5.964 1.845 8.301l1.765-.942Zm-1.61-7.359c0-2.975.553-5.411 1.607-7.353l-1.758-.954c-1.251 2.306-1.849 5.09-1.849 8.307h2Zm1.604-7.348c1.106-2.011 2.563-3.508 4.367-4.525l-.982-1.742c-2.156 1.215-3.868 2.994-5.137 5.303l1.752.964Zm4.367-4.525c1.818-1.025 3.861-1.545 6.151-1.545v-2c-2.607 0-4.992.596-7.133 1.803l.982 1.742Zm6.151-1.545c2.543 0 4.779.575 6.736 1.702l.999-1.732c-2.291-1.321-4.878-1.97-7.735-1.97v2Zm6.754 1.712c1.996 1.098 3.554 2.639 4.688 4.639l1.74-.986c-1.315-2.32-3.141-4.127-5.464-5.405l-.964 1.752Zm4.688 4.639c1.126 1.987 1.706 4.332 1.706 7.067h2c0-3.025-.644-5.72-1.966-8.053l-1.74.986Zm1.706 7.067c0 2.696-.579 5.045-1.71 7.073l1.747.974c1.318-2.364 1.963-5.055 1.963-8.047h-2Zm-1.706 7.067a12.229 12.229 0 0 1-4.699 4.699l.986 1.74a14.228 14.228 0 0 0 5.453-5.453l-1.74-.986Zm-4.706 4.703c-1.957 1.127-4.193 1.702-6.736 1.702v2c2.857 0 5.444-.649 7.735-1.97l-.999-1.732ZM426.774 192v-40.068h-2V192h2Zm-1-39.068h3.834v-2h-3.834v2Zm2.834-1v20.088h2v-20.088h-2Zm.004 19.994-.54 5.724 1.991.188.54-5.724-1.991-.188Zm-.542 5.884.378 5.724 1.996-.132-.378-5.724-1.996.132Zm.376 5.658V192h2v-8.532h-2Zm1 7.532h-3.672v2h3.672v-2Zm10.692-1.132c2.17 0 4.144-.486 5.894-1.481l-.988-1.738c-1.418.805-3.045 1.219-4.906 1.219v2Zm5.908-1.489c1.741-1.028 3.123-2.454 4.142-4.257l-1.741-.984c-.853 1.509-1.99 2.675-3.418 3.519l1.017 1.722Zm4.147-4.265c1.028-1.859 1.529-3.974 1.529-6.316h-2c0 2.05-.436 3.823-1.279 5.348l1.75.968Zm1.529-6.316c0-2.374-.499-4.494-1.534-6.324l-1.741.984c.838 1.482 1.275 3.25 1.275 5.34h2Zm-1.534-6.324c-1.021-1.806-2.408-3.218-4.156-4.211l-.988 1.738c1.419.807 2.552 1.951 3.403 3.457l1.741-.984Zm-4.142-4.203c-1.752-1.036-3.731-1.543-5.908-1.543v2c1.854 0 3.476.429 4.891 1.265l1.017-1.722Zm-5.908-1.543c-2.178 0-4.171.507-5.955 1.538l1.001 1.732c1.456-.841 3.099-1.27 4.954-1.27v-2Zm-5.948 1.535c-1.749.993-3.136 2.405-4.157 4.211l1.741.984c.851-1.506 1.984-2.65 3.404-3.457l-.988-1.738Zm-4.165 4.225c-.993 1.828-1.471 3.942-1.471 6.31h2c0-2.096.421-3.87 1.228-5.354l-1.757-.956Zm-1.471 6.31c0 2.336.479 4.445 1.467 6.302l1.766-.94c-.813-1.527-1.233-3.306-1.233-5.362h-2Zm1.479 6.324c1.019 1.803 2.402 3.229 4.142 4.257l1.017-1.722c-1.427-.844-2.565-2.01-3.418-3.519l-1.741.984Zm4.165 4.27c1.781.99 3.769 1.476 5.94 1.476v-2c-1.862 0-3.51-.414-4.969-1.224l-.971 1.748Z" mask="url(#a)"/></svg>